<?xml version="1.0" encoding="UTF-8" standalone="no"?>
<!-- Created with Inkscape (http://www.inkscape.org/) -->

<svg
   xmlns:dc="http://purl.org/dc/elements/1.1/"
   xmlns:cc="http://creativecommons.org/ns#"
   xmlns:rdf="http://www.w3.org/1999/02/22-rdf-syntax-ns#"
   xmlns:svg="http://www.w3.org/2000/svg"
   xmlns="http://www.w3.org/2000/svg"
   xmlns:sodipodi="http://sodipodi.sourceforge.net/DTD/sodipodi-0.dtd"
   xmlns:inkscape="http://www.inkscape.org/namespaces/inkscape"
   width="23.883883mm"
   height="47.78548mm"
   viewBox="0 0 84.627931 169.31863"
   id="svg2"
   version="1.1"
   inkscape:version="0.92.1 r"
   sodipodi:docname="arkeyve_logo.svg">
  <defs
     id="defs4" />
  <sodipodi:namedview
     id="base"
     pagecolor="#ffffff"
     bordercolor="#666666"
     borderopacity="1.0"
     inkscape:pageopacity="0.0"
     inkscape:pageshadow="2"
     inkscape:zoom="1"
     inkscape:cx="45.643761"
     inkscape:cy="128.76891"
     inkscape:document-units="px"
     inkscape:current-layer="layer1"
     showgrid="true"
     fit-margin-top="0"
     fit-margin-left="0"
     fit-margin-right="0"
     fit-margin-bottom="0"
     showguides="false"
     inkscape:window-width="1366"
     inkscape:window-height="723"
     inkscape:window-x="0"
     inkscape:window-y="21"
     inkscape:window-maximized="1">
    <inkscape:grid
       type="xygrid"
       id="grid4136"
       originx="-683.37695"
       originy="-930.69712" />
  </sodipodi:namedview>
  <metadata
     id="metadata7">
    <rdf:RDF>
      <cc:Work
         rdf:about="">
        <dc:format>image/svg+xml</dc:format>
        <dc:type
           rdf:resource="http://purl.org/dc/dcmitype/StillImage" />
        <dc:title />
      </cc:Work>
    </rdf:RDF>
  </metadata>
  <g
     inkscape:label="Layer 1"
     inkscape:groupmode="layer"
     id="layer1"
     transform="translate(-683.37694,47.653569)">
    <path
       style="opacity:1;fill:#000000;fill-opacity:1;stroke:#000000;stroke-width:0.31999999;stroke-miterlimit:4;stroke-dasharray:none;stroke-opacity:1"
       d="M 45.134766 0.16015625 C 44.593912 0.16015625 44.270811 0.2157667 43.935547 0.3671875 C 43.683003 0.48125256 43.288782 0.76199545 43.060547 0.99023438 C 42.832312 1.2184733 42.565474 1.5890665 42.466797 1.8144531 C 42.36813 2.0398409 42.257556 2.430095 42.220703 2.6816406 C 42.183476 2.9358774 42.203685 3.3853455 42.267578 3.6933594 C 42.331365 4.0008164 42.52294 4.4504114 42.697266 4.703125 C 42.870066 4.9536157 43.197707 5.2938868 43.425781 5.4589844 C 43.653867 5.624082 44.053642 5.8192331 44.314453 5.8925781 C 44.590869 5.9703061 45.030793 6.004555 45.367188 5.9765625 C 45.684595 5.9501518 46.135231 5.8437021 46.369141 5.7402344 C 46.60305 5.6367677 46.98075 5.3669108 47.208984 5.1386719 C 47.437219 4.9104329 47.717973 4.5162191 47.832031 4.2636719 C 47.983455 3.9284036 48.039062 3.6053043 48.039062 3.0644531 C 48.039062 2.5236019 47.983423 2.1985495 47.832031 1.8632812 C 47.717973 1.6107341 47.437219 1.2184733 47.208984 0.99023438 C 46.98075 0.76199545 46.586528 0.48125256 46.333984 0.3671875 C 45.99872 0.21576244 45.675608 0.16015625 45.134766 0.16015625 z M 45.134766 1.5820312 C 45.263427 1.5820312 45.557884 1.6732512 45.789062 1.7851562 C 46.094214 1.93288 46.264387 2.105 46.412109 2.4101562 C 46.524024 2.6413253 46.617188 2.9357918 46.617188 3.0644531 C 46.617188 3.1931145 46.524056 3.4875809 46.412109 3.71875 C 46.264387 4.0239063 46.094214 4.1940731 45.789062 4.3417969 C 45.557884 4.4537041 45.26113 4.5449645 45.128906 4.5449219 C 44.996672 4.5448792 44.700763 4.4527557 44.472656 4.3398438 C 44.176507 4.1932518 44.000098 4.0155638 43.855469 3.7167969 C 43.744066 3.4866742 43.654297 3.1931145 43.654297 3.0644531 C 43.654297 2.9357918 43.745475 2.6413253 43.857422 2.4101562 C 44.005145 2.105 44.175317 1.93288 44.480469 1.7851562 C 44.711647 1.6732491 45.006094 1.5820312 45.134766 1.5820312 z M 59.841797 21.902344 C 59.80297 21.943549 59.699895 22.535471 59.613281 23.216797 C 59.526668 23.898122 59.455078 24.53 59.455078 24.621094 C 59.455078 24.71783 59.773631 24.998093 60.220703 25.296875 C 61.511359 26.159425 62.80485 27.239919 64.105469 28.539062 C 64.788989 29.221824 65.700811 30.223967 66.130859 30.767578 C 67.102987 31.99641 68.155341 33.60662 68.875 34.966797 C 69.177517 35.538579 69.622599 36.478222 69.863281 37.052734 C 70.446908 38.445755 71.036763 40.291142 71.34375 41.681641 C 71.48167 42.306332 71.672698 43.350101 71.767578 44.001953 C 71.893221 44.865172 71.939453 45.817343 71.939453 47.507812 C 71.939453 49.198281 71.893242 50.150453 71.767578 51.013672 C 71.527877 52.660635 71.163388 54.255481 70.697266 55.695312 C 69.929522 58.066878 68.951109 60.125689 67.619141 62.173828 C 67.23081 62.770953 66.560907 63.704432 66.130859 64.248047 C 65.700811 64.791662 64.788989 65.794981 64.105469 66.478516 C 63.421927 67.162042 62.418616 68.073852 61.875 68.503906 C 60.646179 69.476034 59.035952 70.528392 57.675781 71.248047 C 57.103995 71.550565 56.166314 71.995637 55.591797 72.236328 C 54.198784 72.819953 52.353387 73.409805 50.962891 73.716797 C 50.338197 73.854713 49.292476 74.04575 48.640625 74.140625 C 47.777404 74.266264 46.82524 74.3125 45.134766 74.3125 C 43.444302 74.3125 42.492128 74.26626 41.628906 74.140625 C 39.981941 73.90092 38.387095 73.536436 36.947266 73.070312 C 34.575703 72.30257 32.516889 71.324158 30.46875 69.992188 C 29.87163 69.603861 28.938147 68.93395 28.394531 68.503906 C 27.850915 68.073852 26.848768 67.162042 26.166016 66.478516 C 24.866869 65.177903 23.786367 63.884406 22.923828 62.59375 C 22.625033 62.146678 22.344794 61.830078 22.248047 61.830078 C 22.156954 61.830078 21.525073 61.899697 20.84375 61.986328 C 20.162427 62.072941 19.570502 62.176059 19.529297 62.214844 C 19.423057 62.314844 20.432575 63.907028 21.498047 65.320312 C 21.996052 65.980876 22.802194 66.958015 23.291016 67.492188 C 23.779837 68.02636 24.616225 68.862742 25.150391 69.351562 C 26.340791 70.440886 28.184601 71.838773 29.542969 72.683594 C 30.102457 73.031554 31.098185 73.589853 31.755859 73.923828 C 32.413534 74.257804 33.542285 74.763752 34.263672 75.048828 C 34.985037 75.333914 36.115433 75.723979 36.775391 75.914062 C 38.317343 76.358181 40.543765 76.799793 41.925781 76.935547 L 43.40625 77.080078 C 44.212938 77.159342 47.595039 77.041684 48.775391 76.892578 C 50.272425 76.703472 52.004117 76.341635 53.537109 75.900391 C 54.173579 75.7172 55.284494 75.333914 56.005859 75.048828 C 56.727246 74.763752 57.855997 74.257804 58.513672 73.923828 C 59.171347 73.589853 60.167075 73.031554 60.726562 72.683594 C 62.08493 71.838773 63.928741 70.440886 65.119141 69.351562 C 65.653306 68.862742 66.489694 68.02636 66.978516 67.492188 C 68.067838 66.301788 69.465726 64.457979 70.310547 63.099609 C 70.658515 62.540122 71.216808 61.544398 71.550781 60.886719 C 71.884755 60.22904 72.390715 59.102242 72.675781 58.380859 C 73.275269 56.863911 73.755148 55.254841 74.113281 53.558594 C 74.564311 51.422436 74.699219 50.020889 74.699219 47.507812 C 74.699219 44.994736 74.564311 43.593189 74.113281 41.457031 C 73.755148 39.760781 73.275269 38.153671 72.675781 36.636719 C 72.390715 35.915345 71.884755 34.786581 71.550781 34.128906 C 71.216808 33.471232 70.658515 32.475508 70.310547 31.916016 C 69.465726 30.557648 68.067838 28.715792 66.978516 27.525391 C 66.489694 26.991218 65.653306 26.152878 65.119141 25.664062 C 64.584965 25.175245 63.605867 24.369093 62.945312 23.871094 C 61.532022 22.805621 59.941797 21.796086 59.841797 21.902344 z M 3.0605469 30.978516 C 2.4907229 30.978516 2.2113705 31.029223 1.8515625 31.203125 C 1.5943038 31.327459 1.2104842 31.603971 0.99804688 31.816406 C 0.78560955 32.028841 0.51104941 32.412669 0.38671875 32.669922 C 0.21282009 33.029733 0.16015625 33.30908 0.16015625 33.878906 C 0.16015625 34.448732 0.21282009 34.728078 0.38671875 35.087891 C 0.77773741 35.896921 1.5453288 36.527768 2.4179688 36.755859 C 2.8777661 36.87604 3.7989196 36.76842 4.2910156 36.537109 C 4.5361996 36.421856 4.9105989 36.153841 5.1230469 35.941406 C 5.3354735 35.728972 5.6119975 35.345144 5.7363281 35.087891 C 5.9102268 34.728078 5.9609375 34.448732 5.9609375 33.878906 C 5.9609375 33.30908 5.9102268 33.029733 5.7363281 32.669922 C 5.6119975 32.412669 5.3354735 32.028841 5.1230469 31.816406 C 4.9105989 31.603971 4.5267792 31.327459 4.2695312 31.203125 C 3.9097126 31.029223 3.6303709 30.978516 3.0605469 30.978516 z M 87.208984 30.978516 C 86.63916 30.978516 86.359819 31.029223 86 31.203125 C 85.742752 31.327459 85.358932 31.603971 85.146484 31.816406 C 84.934058 32.028841 84.659487 32.412669 84.535156 32.669922 C 84.361258 33.029733 84.308594 33.30908 84.308594 33.878906 C 84.308594 34.448732 84.361258 34.728078 84.535156 35.087891 C 84.926175 35.896921 85.693756 36.527768 86.566406 36.755859 C 87.026193 36.87604 87.947346 36.76842 88.439453 36.537109 C 88.684637 36.421856 89.059047 36.153841 89.271484 35.941406 C 89.483922 35.728972 89.758482 35.345144 89.882812 35.087891 C 90.056711 34.728078 90.109375 34.448732 90.109375 33.878906 C 90.109375 33.30908 90.056711 33.029733 89.882812 32.669922 C 89.758482 32.412669 89.483922 32.028841 89.271484 31.816406 C 89.059047 31.603971 88.675227 31.327459 88.417969 31.203125 C 88.058161 31.029223 87.778808 30.978516 87.208984 30.978516 z M 3.0605469 32.396484 C 3.1892082 32.396484 3.4836758 32.489657 3.7148438 32.601562 C 4.0200064 32.749286 4.190168 32.919453 4.3378906 33.224609 C 4.4498053 33.455778 4.5429688 33.750245 4.5429688 33.878906 C 4.5429688 34.007569 4.4498373 34.302034 4.3378906 34.533203 C 4.190168 34.83836 4.0200064 35.008526 3.7148438 35.15625 C 3.4836758 35.268157 3.1869115 35.359419 3.0546875 35.359375 C 2.9224528 35.359332 2.6265442 35.267209 2.3984375 35.154297 C 2.1022882 35.007705 1.9258793 34.830017 1.78125 34.53125 C 1.669858 34.301127 1.5800781 34.007569 1.5800781 33.878906 C 1.5800781 33.750245 1.6712565 33.455778 1.7832031 33.224609 C 1.9309258 32.919453 2.101098 32.749286 2.40625 32.601562 C 2.637418 32.489655 2.9318855 32.396484 3.0605469 32.396484 z M 87.208984 32.396484 C 87.337646 32.396484 87.632113 32.489657 87.863281 32.601562 C 88.168433 32.749286 88.338605 32.919453 88.486328 33.224609 C 88.598232 33.455778 88.691406 33.750245 88.691406 33.878906 C 88.691406 34.007569 88.598275 34.302034 88.486328 34.533203 C 88.338605 34.83836 88.168433 35.008526 87.863281 35.15625 C 87.632113 35.268157 87.335349 35.359419 87.203125 35.359375 C 87.07088 35.359332 86.774982 35.267209 86.546875 35.154297 C 86.250726 35.007705 86.074317 34.830017 85.929688 34.53125 C 85.818285 34.301127 85.726562 34.007569 85.726562 33.878906 C 85.726562 33.750245 85.819694 33.455778 85.931641 33.224609 C 86.079363 32.919453 86.249525 32.749286 86.554688 32.601562 C 86.785855 32.489655 87.080323 32.396484 87.208984 32.396484 z M 45.134766 32.753906 C 43.211352 32.753906 42.164417 32.918549 40.482422 33.480469 C 38.171435 34.252517 36.491203 35.299821 34.708984 37.082031 C 33.453795 38.337222 32.601095 39.495236 31.882812 40.923828 C 31.665927 41.355192 31.31621 42.224681 31.105469 42.855469 C 30.543549 44.537473 30.380859 45.584405 30.380859 47.507812 C 30.380859 49.431219 30.543549 50.480105 31.105469 52.162109 C 31.877522 54.473093 32.926776 56.151382 34.708984 57.933594 C 35.956142 59.180745 37.12285 60.040921 38.521484 60.744141 C 39.434498 61.203202 40.967921 61.745937 41.974609 61.966797 C 42.382023 62.056184 43.047675 62.170797 43.455078 62.220703 C 44.452315 62.342876 46.659932 62.268685 47.751953 62.076172 C 48.240838 61.989975 49.156315 61.747688 49.787109 61.537109 C 52.097147 60.765958 53.778051 59.716082 55.560547 57.933594 C 56.815736 56.678403 57.668436 55.52039 58.386719 54.091797 C 58.603604 53.660429 58.953321 52.792894 59.164062 52.162109 C 59.725982 50.480105 59.888672 49.431219 59.888672 47.507812 C 59.888672 45.584405 59.725982 44.537473 59.164062 42.855469 C 58.392009 40.54449 57.342755 38.864241 55.560547 37.082031 C 54.305347 35.826841 53.147337 34.976095 51.71875 34.257812 C 51.287379 34.040928 50.417904 33.691203 49.787109 33.480469 C 48.105115 32.918549 47.058168 32.753906 45.134766 32.753906 z M 45.134766 35.625 C 46.871779 35.625 47.530221 35.724786 48.966797 36.207031 C 49.380696 36.345971 50.143731 36.677571 50.662109 36.945312 C 51.180499 37.213054 51.894234 37.651191 52.248047 37.917969 C 53.064239 38.533382 54.456009 39.97231 54.978516 40.742188 C 55.5165 41.534861 56.14145 42.795955 56.443359 43.695312 C 56.919178 45.112755 57.019531 45.775921 57.019531 47.507812 C 57.019531 49.244829 56.919783 49.903271 56.4375 51.339844 C 56.298556 51.75374 55.96501 52.516777 55.697266 53.035156 C 55.429522 53.553547 54.993336 54.267276 54.726562 54.621094 C 54.111149 55.437281 52.670268 56.829054 51.900391 57.351562 C 51.107719 57.889548 49.848579 58.5145 48.949219 58.816406 C 48.54524 58.952012 47.886873 59.133368 47.488281 59.21875 C 47.089689 59.304137 46.186645 59.390235 45.480469 59.410156 C 44.774293 59.430082 44.085027 59.427465 43.949219 59.404297 C 43.813421 59.381033 43.391975 59.311366 43.011719 59.25 C 41.571217 59.017555 39.691903 58.24932 38.369141 57.351562 C 37.599263 56.829054 36.160335 55.437281 35.544922 54.621094 C 35.278149 54.267276 34.84001 53.553547 34.572266 53.035156 C 34.304522 52.516777 33.970975 51.75374 33.832031 51.339844 C 33.349781 49.903271 33.25 49.244829 33.25 47.507812 C 33.25 45.775921 33.350375 45.112755 33.826172 43.695312 C 34.128081 42.795955 34.754985 41.534861 35.292969 40.742188 C 35.815475 39.97231 37.207246 38.533382 38.023438 37.917969 C 38.377251 37.651191 39.089033 37.213054 39.607422 36.945312 C 40.125801 36.677571 40.888836 36.345971 41.302734 36.207031 C 42.73931 35.724789 43.397742 35.625 45.134766 35.625 z M 24.544922 73.484375 C 24.381135 73.484375 24.767348 73.822922 25.720703 74.517578 C 26.267988 74.916374 27.203245 75.540742 27.800781 75.904297 C 30.065315 77.282104 33.002253 78.599187 35.466797 79.34375 C 36.929848 79.785754 38.554179 80.148535 40.171875 80.396484 C 42.598339 80.768386 45.051857 80.867902 47.455078 80.689453 C 49.971558 80.50258 52.502245 80.039345 54.804688 79.34375 C 57.269231 78.599187 60.204217 77.282104 62.46875 75.904297 C 63.066286 75.540742 64.001543 74.916374 64.548828 74.517578 C 65.502183 73.822922 65.888396 73.484375 65.724609 73.484375 C 65.682689 73.484375 64.933186 73.725259 64.058594 74.019531 C 63.184012 74.313802 61.956725 74.696042 61.332031 74.871094 C 60.707338 75.046136 59.760772 75.408011 59.228516 75.673828 C 57.908142 76.333276 56.102669 77.065402 54.669922 77.523438 C 53.242402 77.979812 51.202432 78.454654 49.777344 78.660156 C 48.230442 78.883227 46.519864 79.011719 45.134766 79.011719 C 43.749656 79.011719 42.039089 78.883227 40.492188 78.660156 C 39.0671 78.454654 37.027129 77.979812 35.599609 77.523438 C 34.166863 77.065402 32.361389 76.333276 31.041016 75.673828 C 30.50876 75.408011 29.562193 75.046136 28.9375 74.871094 C 28.312807 74.696042 27.085519 74.313802 26.210938 74.019531 C 25.336346 73.725259 24.586853 73.484375 24.544922 73.484375 z M 31.046875 79.699219 C 30.807388 79.671437 30.724828 79.767574 30.558594 79.960938 C 30.375746 80.173649 30.236976 80.414888 30.25 80.496094 C 30.263013 80.577288 30.650293 80.807368 31.111328 81.007812 C 32.429632 81.580968 35.358815 82.517435 37.035156 82.902344 C 37.87713 83.095666 39.212341 83.346264 40 83.458984 C 42.615008 83.833227 45.086193 83.929346 47.603516 83.751953 C 48.391174 83.696444 49.657478 83.560139 50.417969 83.451172 C 51.178459 83.342194 52.490058 83.09542 53.332031 82.902344 C 54.981621 82.524072 57.788426 81.630124 59.183594 81.039062 C 59.779775 80.78649 60.047482 80.622181 60.044922 80.509766 C 60.042789 80.420134 59.892985 80.173649 59.710938 79.960938 C 59.37993 79.574211 59.378346 79.574616 57.794922 80.183594 C 56.061258 80.850369 54.498124 81.323775 52.724609 81.720703 C 50.337708 82.254906 47.525155 82.570312 45.134766 82.570312 C 42.744366 82.570312 39.931823 82.254906 37.544922 81.720703 C 35.771407 81.323775 34.208273 80.850369 32.474609 80.183594 C 31.682897 79.879105 31.286362 79.727 31.046875 79.699219 z M 19.060547 80.162109 C 18.490723 80.162109 18.21137 80.214777 17.851562 80.388672 C 17.594304 80.513008 17.210484 80.789519 16.998047 81.001953 C 16.78561 81.214398 16.511049 81.598215 16.386719 81.855469 C 16.21282 82.215282 16.160156 82.494626 16.160156 83.064453 C 16.160156 83.63428 16.21282 83.911672 16.386719 84.271484 C 16.777737 85.080512 17.545329 85.713318 18.417969 85.941406 C 18.877755 86.061584 19.79892 85.953968 20.291016 85.722656 C 20.5362 85.607407 20.910599 85.339388 21.123047 85.126953 C 21.335474 84.914509 21.611997 84.528739 21.736328 84.271484 C 21.910227 83.911672 21.960938 83.63428 21.960938 83.064453 C 21.960938 82.494626 21.910227 82.215282 21.736328 81.855469 C 21.611997 81.598215 21.335474 81.214398 21.123047 81.001953 C 20.910599 80.789519 20.526779 80.513008 20.269531 80.388672 C 19.909713 80.214776 19.630371 80.162109 19.060547 80.162109 z M 71.208984 80.755859 C 70.63916 80.755859 70.359819 80.808527 70 80.982422 C 69.742752 81.106758 69.358932 81.381316 69.146484 81.59375 C 68.934058 81.806195 68.659487 82.190011 68.535156 82.447266 C 68.361258 82.807078 68.308594 83.086423 68.308594 83.65625 C 68.308594 84.226077 68.361258 84.505422 68.535156 84.865234 C 68.926175 85.674262 69.693766 86.305114 70.566406 86.533203 C 71.026193 86.65338 71.947357 86.545766 72.439453 86.314453 C 72.684637 86.199204 73.059047 85.931184 73.271484 85.71875 C 73.483922 85.506305 73.758482 85.122489 73.882812 84.865234 C 74.056711 84.505422 74.109375 84.226077 74.109375 83.65625 C 74.109375 83.086423 74.056711 82.807078 73.882812 82.447266 C 73.758482 82.190011 73.483922 81.806195 73.271484 81.59375 C 73.059047 81.381316 72.675227 81.106758 72.417969 80.982422 C 72.058161 80.808525 71.778808 80.755859 71.208984 80.755859 z M 19.060547 81.582031 C 19.189208 81.582031 19.483676 81.673242 19.714844 81.785156 C 20.020006 81.93288 20.190168 82.105001 20.337891 82.410156 C 20.449805 82.641326 20.542969 82.935792 20.542969 83.064453 C 20.542969 83.193114 20.449837 83.48758 20.337891 83.71875 C 20.190168 84.023905 20.020006 84.194073 19.714844 84.341797 C 19.483676 84.453707 19.186911 84.544961 19.054688 84.544922 C 18.922453 84.544882 18.626555 84.452758 18.398438 84.339844 C 18.102299 84.193256 17.925879 84.015562 17.78125 83.716797 C 17.669858 83.486673 17.580078 83.193114 17.580078 83.064453 C 17.580078 82.935792 17.671256 82.641326 17.783203 82.410156 C 17.930926 82.105001 18.101098 81.93288 18.40625 81.785156 C 18.637418 81.673245 18.931886 81.582031 19.060547 81.582031 z M 71.208984 82.175781 C 71.337646 82.175781 71.632113 82.266992 71.863281 82.378906 C 72.168433 82.526629 72.338605 82.696797 72.486328 83.001953 C 72.598232 83.233123 72.691406 83.527589 72.691406 83.65625 C 72.691406 83.784912 72.598275 84.079377 72.486328 84.310547 C 72.338605 84.615703 72.168433 84.785871 71.863281 84.933594 C 71.632113 85.045505 71.335349 85.138711 71.203125 85.138672 C 71.07088 85.138632 70.774982 85.044555 70.546875 84.931641 C 70.250726 84.785053 70.074317 84.60736 69.929688 84.308594 C 69.818285 84.078471 69.726562 83.784912 69.726562 83.65625 C 69.726562 83.527589 69.819694 83.233123 69.931641 83.001953 C 70.079363 82.696797 70.249525 82.526629 70.554688 82.378906 C 70.785855 82.266995 71.080323 82.175781 71.208984 82.175781 z M 33.441406 83.478516 C 33.081841 83.410128 32.940169 83.562485 32.613281 84.080078 C 31.98078 85.081579 31.516489 86.073455 31.107422 87.298828 C 30.896691 87.930107 30.659075 88.823428 30.580078 89.285156 C 30.373657 90.491576 30.275097 91.853516 30.394531 91.853516 C 30.448505 91.853516 30.717862 91.465543 30.992188 90.990234 C 31.266534 90.514926 31.770529 89.746884 32.113281 89.285156 C 32.456012 88.823428 33.137278 88.045628 33.626953 87.556641 C 34.5837 86.601223 35.586788 85.812191 36.691406 85.140625 C 37.071652 84.909455 37.401193 84.702371 37.423828 84.681641 C 37.446441 84.660905 37.442009 84.621601 37.414062 84.59375 C 37.386223 84.565889 36.678565 84.368487 35.841797 84.15625 C 35.00505 83.944013 34.126357 83.701062 33.888672 83.615234 C 33.705456 83.549074 33.561261 83.501312 33.441406 83.478516 z M 56.828125 83.478516 C 56.70827 83.501312 56.566028 83.549074 56.382812 83.615234 C 56.145127 83.701058 55.264481 83.944013 54.427734 84.15625 C 53.590966 84.368487 52.883319 84.565888 52.855469 84.59375 C 52.827629 84.621601 52.82515 84.660905 52.847656 84.681641 C 52.87027 84.702377 53.199833 84.909455 53.580078 85.140625 C 54.684686 85.812191 55.685831 86.601223 56.642578 87.556641 C 57.132253 88.045628 57.813519 88.823428 58.15625 89.285156 C 58.499002 89.746884 59.003008 90.514926 59.277344 90.990234 C 59.55168 91.465543 59.821005 91.853516 59.875 91.853516 C 59.937933 91.853516 59.947037 91.543874 59.902344 90.990234 C 59.791357 89.616803 59.57412 88.533031 59.162109 87.298828 C 58.753043 86.073455 58.288751 85.081579 57.65625 84.080078 C 57.329362 83.562485 57.18769 83.410128 56.828125 83.478516 z M 38.234375 87.955078 C 38.161842 88.027569 38.463844 88.227243 39.451172 88.759766 C 39.954031 89.030986 40.551062 89.45153 40.833984 89.734375 C 41.107883 90.008192 41.453968 90.457016 41.601562 90.730469 C 41.749157 91.00392 41.936267 91.4889 42.019531 91.808594 C 42.153963 92.324722 42.171875 95.798 42.171875 122.81445 C 42.171875 142.38492 42.208691 153.80299 42.273438 154.81836 C 42.455261 157.66935 42.778094 160.28358 43.265625 162.84375 C 43.587086 164.53185 43.859165 165.63086 43.957031 165.63086 C 44.011751 165.63086 44.048828 150.85684 44.048828 128.29297 C 44.048828 95.798689 44.066286 90.91973 44.191406 90.677734 C 44.270553 90.524797 44.488624 90.327091 44.675781 90.238281 C 44.862917 90.149481 45.069699 90.076172 45.134766 90.076172 C 45.199832 90.076172 45.406614 90.149481 45.59375 90.238281 C 45.780907 90.327092 45.999032 90.524797 46.078125 90.677734 C 46.203384 90.919967 46.220703 96.722141 46.220703 135.70117 C 46.220703 162.86638 46.257353 180.44727 46.3125 180.44727 C 46.36242 180.44727 46.470196 180.14596 46.552734 179.7793 C 47.045833 177.58866 47.517573 174.68367 47.75 172.39648 C 47.832773 171.58167 47.944372 170.13812 47.998047 169.1875 C 48.05906 168.10676 48.09485 153.39371 48.095703 129.92383 C 48.09677 96.523119 48.115301 92.325828 48.25 91.808594 C 48.333307 91.4889 48.522327 91.00392 48.669922 90.730469 C 48.817517 90.457016 49.161648 90.008192 49.435547 89.734375 C 49.71847 89.45153 50.315501 89.030986 50.818359 88.759766 C 51.805687 88.227243 52.107658 88.027572 52.035156 87.955078 C 52.00817 87.928123 51.500031 88.013995 50.90625 88.146484 C 50.31249 88.278988 49.292476 88.465762 48.640625 88.560547 C 47.778065 88.685969 46.82395 88.732422 45.134766 88.732422 C 43.445571 88.732422 42.491466 88.685972 41.628906 88.560547 C 40.977056 88.465763 39.957041 88.278988 39.363281 88.146484 C 38.7695 88.013991 38.26133 87.928126 38.234375 87.955078 z "
       transform="matrix(0.93750002,0,0,0.93750002,683.37694,-47.653569)"
       id="path5156" />
  </g>
</svg>
