<?xml version="1.0" encoding="UTF-8" standalone="no"?>
<!-- Created with Inkscape (http://www.inkscape.org/) -->

<svg
   xmlns:dc="http://purl.org/dc/elements/1.1/"
   xmlns:cc="http://creativecommons.org/ns#"
   xmlns:rdf="http://www.w3.org/1999/02/22-rdf-syntax-ns#"
   xmlns:svg="http://www.w3.org/2000/svg"
   xmlns="http://www.w3.org/2000/svg"
   xmlns:sodipodi="http://sodipodi.sourceforge.net/DTD/sodipodi-0.dtd"
   xmlns:inkscape="http://www.inkscape.org/namespaces/inkscape"
   width="1366mm"
   height="768mm"
   viewBox="0 0 1366 768"
   version="1.1"
   id="svg4596"
   inkscape:version="0.92.2 5c3e80d, 2017-08-06"
   sodipodi:docname="arkeyve_logo_glitch.svg"
   inkscape:export-filename="/home/arkeyve/bitmap.png"
   inkscape:export-xdpi="96"
   inkscape:export-ydpi="96">
  <defs
     id="defs4590">
    <filter
       inkscape:collect="always"
       style="color-interpolation-filters:sRGB"
       id="filter5275"
       x="-0.0054078098"
       width="1.0108156"
       y="-0.0026980518"
       height="1.0053961">
      <feGaussianBlur
         inkscape:collect="always"
         stdDeviation="0.6235204"
         id="feGaussianBlur5277" />
    </filter>
    <filter
       inkscape:collect="always"
       style="color-interpolation-filters:sRGB"
       id="filter5287"
       x="-0.0072104127"
       width="1.0144208"
       y="-0.0035974025"
       height="1.0071948">
      <feGaussianBlur
         inkscape:collect="always"
         stdDeviation="0.83136058"
         id="feGaussianBlur5289" />
    </filter>
    <filter
       inkscape:collect="always"
       style="color-interpolation-filters:sRGB"
       id="filter5311"
       x="-0.0072104128"
       width="1.0144208"
       y="-0.0035974024"
       height="1.0071948">
      <feGaussianBlur
         inkscape:collect="always"
         stdDeviation="0.8313606"
         id="feGaussianBlur5313" />
    </filter>
  </defs>
  <sodipodi:namedview
     id="base"
     pagecolor="#ffffff"
     bordercolor="#666666"
     borderopacity="1.0"
     inkscape:pageopacity="0.0"
     inkscape:pageshadow="2"
     inkscape:zoom="0.21435469"
     inkscape:cx="3415.4895"
     inkscape:cy="2028.6828"
     inkscape:document-units="mm"
     inkscape:current-layer="layer1"
     showgrid="false"
     inkscape:window-width="1362"
     inkscape:window-height="729"
     inkscape:window-x="0"
     inkscape:window-y="18"
     inkscape:window-maximized="0">
    <sodipodi:guide
       position="0,0"
       orientation="0,5162.8346"
       id="guide4598"
       inkscape:locked="false" />
    <sodipodi:guide
       position="1366,0"
       orientation="-2902.6772,0"
       id="guide4600"
       inkscape:locked="false" />
    <sodipodi:guide
       position="-547.06759,384"
       orientation="0,1"
       id="guide4602"
       inkscape:locked="false"
       inkscape:label=""
       inkscape:color="rgb(0,0,255)" />
    <sodipodi:guide
       position="668,1240.0199"
       orientation="1,0"
       id="guide4604"
       inkscape:locked="false"
       inkscape:label=""
       inkscape:color="rgb(0,0,255)" />
    <sodipodi:guide
       position="0,0"
       orientation="0,5162.8346"
       id="guide5154"
       inkscape:locked="false" />
    <sodipodi:guide
       position="1366,0"
       orientation="-2902.6772,0"
       id="guide5156"
       inkscape:locked="false" />
    <sodipodi:guide
       position="1366,768"
       orientation="0,-5162.8346"
       id="guide5158"
       inkscape:locked="false" />
    <sodipodi:guide
       position="0,768"
       orientation="2902.6772,0"
       id="guide5160"
       inkscape:locked="false" />
  </sodipodi:namedview>
  <metadata
     id="metadata4593">
    <rdf:RDF>
      <cc:Work
         rdf:about="">
        <dc:format>image/svg+xml</dc:format>
        <dc:type
           rdf:resource="http://purl.org/dc/dcmitype/StillImage" />
        <dc:title />
      </cc:Work>
    </rdf:RDF>
  </metadata>
  <g
     inkscape:label="Layer 1"
     inkscape:groupmode="layer"
     id="layer1"
     transform="translate(0,471)">
    <rect
       style="fill:#000008;fill-opacity:1;stroke-width:0.26458332"
       id="rect4606"
       width="1366"
       height="768"
       x="-4.3639975"
       y="-470.99997" />
    <path
       inkscape:connector-curvature="0"
       style="opacity:1;fill:#ff0000;fill-opacity:0.58823532;stroke:none;stroke-width:0.98444837;stroke-miterlimit:4;stroke-dasharray:none;stroke-opacity:1;filter:url(#filter5287)"
       d="m 664.96056,-366.10759 c -1.664,0 -2.6579,0.17448 -3.6894,0.6395 -0.7767,0.34883 -1.9897,1.21506 -2.6918,1.91736 -0.7023,0.69764 -1.5231,1.84177 -1.8267,2.53592 -0.3035,0.69765 -0.6441,1.89292 -0.7569,2.66732 -0.1162,0.77903 -0.058,2.16502 0.1442,3.11264 0.1965,0.94181 0.786,2.32895 1.3219,3.10682 0.5314,0.7674 1.5395,1.81737 2.2413,2.32431 0.7022,0.51161 1.9315,1.1046 2.7338,1.33482 0.8499,0.24417 2.2038,0.34881 3.2387,0.2558 0.9767,-0.1162 2.3628,-0.40696 3.0824,-0.7209 0.7197,-0.31395 1.8815,-1.15111 2.5837,-1.85108 0.7023,-0.69764 1.5658,-1.91502 1.9168,-2.69172 0.4662,-1.03483 0.6371,-2.02548 0.6371,-3.68936 0,-1.66388 -0.1709,-2.66383 -0.6371,-3.69517 -0.3512,-0.77903 -1.2147,-1.98363 -1.9168,-2.68592 -0.7023,-0.69764 -1.9149,-1.5662 -2.6919,-1.91735 -1.0313,-0.46508 -2.0254,-0.6395 -3.6892,-0.6395 z m 0,4.37422 c 0.3953,0 1.3017,0.27906 2.0128,0.62787 0.9383,0.45347 1.4622,0.98832 1.9167,1.92315 0.3442,0.70928 0.6314,1.61737 0.6314,2.0127 0,0.39534 -0.286,1.30226 -0.6314,2.01269 -0.4546,0.94182 -0.9778,1.46272 -1.9167,1.91735 -0.7116,0.34883 -1.6241,0.62788 -2.031,0.62788 -0.4069,0 -1.317,-0.27905 -2.0188,-0.62788 -0.9116,-0.45346 -1.4538,-0.99994 -1.8988,-1.91735 -0.343,-0.70925 -0.6185,-1.61039 -0.6185,-2.00687 0,-0.39534 0.2802,-1.3011 0.6243,-2.01269 0.4547,-0.94182 0.9779,-1.46737 1.9168,-1.922 0.7116,-0.34883 1.617,-0.62789 2.0129,-0.62789 z m 45.2446,62.5144 c -0.1197,0.12794 -0.436,1.94759 -0.7034,4.04282 -0.2663,2.09643 -0.4872,4.0405 -0.4872,4.32075 0,0.3023 0.9802,1.16273 2.3553,2.07895 3.9707,2.65338 7.9499,5.97761 11.9512,9.97394 2.1027,2.10107 4.9079,5.18346 6.2309,6.85664 2.9906,3.78005 6.2282,8.7333 8.4421,12.91799 0.9302,1.75921 2.2999,4.64977 3.0403,6.41713 1.7955,4.28584 3.6101,9.96232 4.5546,14.24 0.4244,1.922 1.0116,5.13348 1.3038,7.13803 0.386,2.65568 0.529,5.58578 0.529,10.78552 0,5.2009 -0.1419,8.12986 -0.529,10.78553 -0.7372,5.06718 -1.8588,9.97394 -3.2927,14.40279 -2.3619,7.29616 -5.3719,13.62957 -9.4695,19.93042 -1.1947,1.83712 -3.2557,4.70908 -4.5786,6.3811 -1.323,1.67318 -4.1282,4.75908 -6.2309,6.86245 -2.1029,2.10222 -5.1895,4.90791 -6.8619,6.23111 -3.7802,2.99053 -8.734,6.2276 -12.9184,8.44143 -1.7591,0.93019 -4.6437,2.29989 -6.4112,3.04056 -4.2855,1.79526 -9.9627,3.61029 -14.2404,4.55442 -1.9217,0.43022 -5.1388,1.0116 -7.1442,1.30344 -2.6556,0.38368 -5.5848,0.52322 -10.7854,0.52322 -5.2005,0 -8.1298,-0.13948 -10.7855,-0.52322 -5.0667,-0.73253 -9.9731,-1.85807 -14.4025,-3.29172 -7.296,-2.36267 -13.6296,-5.37298 -19.9306,-9.47045 -1.837,-1.19413 -4.7087,-3.25567 -6.3811,-4.57768 -1.6723,-1.3232 -4.7554,-4.12889 -6.8558,-6.23111 -3.9967,-4.00098 -7.3208,-7.981 -9.9743,-11.95174 -0.9197,-1.37553 -1.7813,-2.34874 -2.079,-2.34874 -0.2802,0 -2.2242,0.20931 -4.3201,0.47674 -2.0961,0.26742 -3.917,0.58137 -4.0439,0.70926 -0.3267,0.30231 2.779,5.20556 6.0567,9.55302 1.5321,2.03247 4.0121,5.03812 5.5159,6.68223 1.5039,1.64296 4.0769,4.21609 5.7202,5.71949 3.6621,3.35101 9.3344,7.65197 13.5134,10.25068 1.7212,1.06971 4.7844,2.78824 6.8077,3.81609 2.0233,1.0232 5.4958,2.5836 7.715,3.46029 2.2193,0.87206 5.6968,2.07781 7.727,2.66268 4.7438,1.3662 11.5931,2.72427 15.8447,3.1417 l 4.5546,0.44184 c 2.4816,0.24418 12.8863,-0.1162 16.5176,-0.58136 4.6054,-0.58138 9.9329,-1.69411 14.6489,-3.05218 1.958,-0.55813 5.3757,-1.74295 7.595,-2.61965 2.2192,-0.87206 5.6917,-2.43359 7.715,-3.46146 2.0232,-1.0232 5.0864,-2.74405 6.8077,-3.81493 4.1789,-2.59871 9.8512,-6.89967 13.5134,-10.25066 1.6433,-1.50342 4.2163,-4.07655 5.7201,-5.72066 3.3512,-3.66144 7.6517,-9.33443 10.2507,-13.51329 1.0709,-1.72085 2.788,-4.78349 3.8154,-6.80781 1.0279,-2.02317 2.584,-5.48927 3.461,-7.70894 1.8442,-4.66605 3.3205,-9.61699 4.4224,-14.83533 1.3874,-6.57061 1.8025,-10.88319 1.8025,-18.61421 0,-7.73103 -0.4151,-12.04244 -1.8025,-18.61421 -1.1023,-5.21835 -2.5782,-10.16231 -4.4224,-14.82952 -0.8767,-2.21965 -2.4335,-5.69159 -3.461,-7.71475 -1.0278,-2.02315 -2.745,-5.08696 -3.8154,-6.8078 -2.599,-4.17886 -6.8995,-9.84487 -10.2507,-13.50749 -1.5038,-1.64293 -4.0768,-4.22304 -5.7201,-5.72647 -1.6435,-1.50341 -4.6555,-3.98351 -6.6876,-5.51599 -4.3478,-3.27776 -9.24,-6.38342 -9.5477,-6.05668 z m -174.6818,27.92192 c -1.7531,0 -2.6125,0.15119 -3.7194,0.68601 -0.7918,0.38371 -1.9722,1.23249 -2.6258,1.88595 -0.6535,0.65113 -1.4982,1.83478 -1.8806,2.62662 -0.5349,1.10459 -0.6977,1.96618 -0.6977,3.71842 0,1.75341 0.1617,2.61267 0.6977,3.71959 1.2028,2.4894 3.5643,4.43001 6.2489,5.13114 1.4146,0.37207 4.2484,0 5.7622,-0.67438 0.7547,-0.36045 1.9061,-1.17902 2.5597,-1.83247 0.6535,-0.65114 1.5042,-1.83479 1.8868,-2.62545 0.5348,-1.10459 0.6906,-1.96619 0.6906,-3.7196 0,-1.75338 -0.1557,-2.61266 -0.6906,-3.71958 -0.3826,-0.79065 -1.2332,-1.97199 -1.8868,-2.62545 -0.6535,-0.65113 -1.8343,-1.50458 -2.6257,-1.88712 -1.1069,-0.53485 -1.9664,-0.68602 -3.7193,-0.68602 z m 258.8743,0 c -1.753,0 -2.6123,0.15119 -3.7194,0.68601 -0.7918,0.38371 -1.9721,1.23249 -2.6257,1.88595 -0.6534,0.65113 -1.4982,1.83478 -1.8807,2.62662 -0.5348,1.10459 -0.6965,1.96618 -0.6965,3.71842 0,1.75341 0.1617,2.61267 0.6965,3.71959 1.203,2.4894 3.5644,4.43001 6.249,5.13114 1.4145,0.37207 4.2483,0 5.7622,-0.67438 0.7546,-0.36045 1.9062,-1.17902 2.5597,-1.83247 0.6535,-0.65114 1.4982,-1.83479 1.8806,-2.62545 0.5349,-1.10459 0.6965,-1.96619 0.6965,-3.7196 0,-1.75338 -0.1617,-2.61266 -0.6965,-3.71958 -0.3825,-0.79065 -1.2271,-1.97199 -1.8806,-2.62545 -0.6534,-0.65113 -1.8343,-1.50458 -2.6258,-1.88712 -1.1069,-0.53485 -1.9663,-0.68602 -3.7193,-0.68602 z m -258.8743,4.36141 c 0.3953,0 1.3016,0.29067 2.0128,0.62786 0.9383,0.45348 1.4623,0.97671 1.9167,1.91737 0.3442,0.70926 0.6314,1.61735 0.6314,2.01268 0,0.39533 -0.286,1.30226 -0.6314,2.0127 -0.4546,0.94181 -0.9778,1.4627 -1.9167,1.91735 -0.7116,0.34881 -1.6242,0.62788 -2.0309,0.62788 -0.4069,0 -1.3171,-0.27907 -2.0189,-0.62788 -0.9116,-0.45347 -1.4538,-0.99995 -1.8987,-1.91735 -0.343,-0.70927 -0.6185,-1.61038 -0.6185,-2.00686 0,-0.39536 0.2802,-1.30111 0.6243,-2.01272 0.4547,-0.94183 0.9779,-1.46272 1.9168,-1.91617 0.7116,-0.34882 1.6171,-0.6279 2.0129,-0.6279 z m 258.8743,0 c 0.3953,0 1.3016,0.29067 2.0129,0.62786 0.9383,0.45348 1.4622,0.97671 1.9167,1.91737 0.3442,0.70926 0.6314,1.61735 0.6314,2.01268 0,0.39533 -0.286,1.30226 -0.6314,2.0127 -0.4546,0.94181 -0.9778,1.4627 -1.9167,1.91735 -0.7116,0.34881 -1.6241,0.62788 -2.031,0.62788 -0.4069,0 -1.3171,-0.27907 -2.0188,-0.62788 -0.9116,-0.45347 -1.4538,-0.99995 -1.8988,-1.91735 -0.343,-0.70927 -0.6243,-1.61038 -0.6243,-2.00686 0,-0.39536 0.286,-1.30111 0.6313,-2.01272 0.4546,-0.94183 0.9779,-1.46272 1.9168,-1.91617 0.7116,-0.34882 1.617,-0.6279 2.0128,-0.6279 z m -129.4371,1.1046 c -5.9173,0 -9.1381,0.51159 -14.3126,2.23595 -7.1095,2.37428 -12.2786,5.59623 -17.7613,11.07968 -3.8616,3.86144 -6.4848,7.42406 -8.6945,11.8192 -0.6674,1.32667 -1.7431,4.00096 -2.3914,5.94157 -1.7288,5.17533 -2.2292,8.3961 -2.2292,14.31327 0,5.91715 0.5,9.14373 2.2292,14.31789 2.3751,7.11012 5.603,12.27267 11.0859,17.75612 3.8366,3.83586 7.426,6.48224 11.7287,8.64609 2.8088,1.41157 7.5263,3.08126 10.6232,3.76145 1.2534,0.27905 3.3012,0.62789 4.5545,0.77903 3.0679,0.37208 9.8595,0.1512 13.2189,-0.44184 1.504,-0.26742 4.3204,-1.01157 6.261,-1.65921 7.1066,-2.37199 12.2777,-5.60206 17.7614,-11.08552 3.8615,-3.86144 6.4848,-7.42406 8.6944,-11.8192 0.6674,-1.32667 1.7431,-3.99514 2.3914,-5.93575 1.7288,-5.17533 2.2292,-8.40191 2.2292,-14.31906 0,-5.91717 -0.5,-9.13794 -2.2292,-14.31211 -2.3751,-7.10896 -5.603,-12.27848 -11.0858,-17.76193 -3.8615,-3.86145 -7.424,-6.47877 -11.8189,-8.68794 -1.3271,-0.66276 -4.0019,-1.74295 -5.9425,-2.39174 -5.1745,-1.72783 -8.3953,-2.23479 -14.3124,-2.23479 z m 0,8.83329 c 5.3437,0 7.3693,0.30231 11.7888,1.79061 1.2733,0.43021 3.6207,1.44761 5.2155,2.27082 1.5948,0.82554 3.7905,2.172 4.8789,2.99289 2.5109,1.89292 6.7926,6.31945 8.4001,8.68793 1.655,2.43827 3.5776,6.31832 4.5064,9.08445 1.4637,4.36143 1.7726,6.40085 1.7726,11.72968 0,5.34392 -0.307,7.3694 -1.7906,11.78896 -0.4279,1.27319 -1.4536,3.62075 -2.2773,5.21486 -0.8232,1.59527 -2.1655,3.79051 -2.9863,4.87883 -1.8932,2.5115 -6.326,6.79268 -8.6944,8.40073 -2.4386,1.65459 -6.3122,3.57775 -9.0789,4.50562 -1.2429,0.41858 -3.2683,0.9767 -4.4945,1.23831 -1.2262,0.26743 -4.0044,0.52324 -6.1769,0.59299 -2.1725,0.1162 -4.293,0.1162 -4.7107,0 -0.4174,-0.11619 -1.7143,-0.29067 -2.8842,-0.47671 -4.4315,-0.7209 -10.2131,-3.07891 -14.2824,-5.84041 -2.3684,-1.60807 -6.7952,-5.88927 -8.6884,-8.39961 -0.8209,-1.09296 -2.1686,-3.28471 -2.9923,-4.88 -0.8232,-1.59411 -1.8498,-3.94166 -2.2772,-5.21485 -1.4837,-4.41956 -1.7907,-6.44504 -1.7907,-11.78896 0,-5.32765 0.3093,-7.36826 1.7726,-11.7285 0.9291,-2.76732 2.8574,-6.64619 4.5125,-9.08562 1.6075,-2.36849 5.8891,-6.795 8.4001,-8.68794 1.0883,-0.82555 3.2781,-2.16851 4.8729,-2.99288 1.5948,-0.82554 3.9421,-1.84295 5.2154,-2.27082 4.4196,-1.48366 6.4451,-1.79061 11.789,-1.79061 z m -63.3427,116.46993 c -0.5034,0 0.6849,1.04647 3.6172,3.17891 1.6836,1.22671 4.5608,3.14753 6.3991,4.26609 6.9666,4.23932 16.0018,8.29028 23.5837,10.58088 4.501,1.3604 9.4981,2.47661 14.4748,3.23939 7.4648,1.13947 15.0128,1.44992 22.406,0.89529 7.7417,-0.56973 15.5272,-1.9999 22.6104,-4.14049 7.5819,-2.29059 16.6111,-6.34272 23.5777,-10.58089 1.8383,-1.11623 4.7155,-3.03939 6.3991,-4.26608 2.9329,-2.13709 4.1211,-3.1789 3.6172,-3.1789 -0.1292,0 -2.4347,0.74414 -5.1253,1.64643 -2.6906,0.90692 -6.4661,2.08129 -8.388,2.61962 -1.9218,0.53487 -4.8339,1.65225 -6.4712,2.46966 -4.062,2.02896 -9.6164,4.28118 -14.0241,5.69042 -4.3916,1.40343 -10.6674,2.86498 -15.0516,3.49634 -4.7588,0.68602 -10.0213,1.08134 -14.2823,1.08134 -4.2612,0 -9.5236,-0.39532 -14.2825,-1.08134 -4.3842,-0.62788 -10.6599,-2.09291 -15.0516,-3.49634 -4.4077,-1.40924 -9.962,-3.66146 -14.0241,-5.69042 -1.6373,-0.81391 -4.5494,-1.9313 -6.4712,-2.46966 -1.9217,-0.53485 -5.6974,-1.71386 -8.3879,-2.61962 -2.6907,-0.90694 -4.9964,-1.64643 -5.1254,-1.64643 z m 20.0026,19.12001 c -0.7372,-0.11619 -0.9907,0.20929 -1.5022,0.8023 -0.5627,0.65111 -0.9895,1.39643 -0.9488,1.64642 0.035,0.24417 1.2315,0.95345 2.6499,1.57437 4.0556,1.76269 13.0669,4.64397 18.224,5.82764 2.5903,0.59299 6.6979,1.36621 9.1211,1.71272 8.0448,1.15113 15.6471,1.44646 23.3915,0.90694 2.4232,-0.17447 6.3188,-0.593 8.6583,-0.9302 2.3397,-0.33719 6.3746,-1.09296 8.9648,-1.6883 5.0749,-1.16389 13.7097,-3.91377 18.0018,-5.7323 1.8341,-0.77906 2.6577,-1.28251 2.6498,-1.62901 -0.01,-0.27906 -0.4674,-1.03484 -1.0279,-1.68828 -1.0185,-1.18949 -1.0232,-1.18833 -5.8944,0.68599 -5.3334,2.05224 -10.1423,3.508 -15.5983,4.72889 -7.3431,1.64411 -15.9956,2.61383 -23.3494,2.61383 -7.3538,0 -16.0063,-0.96506 -23.3495,-2.61383 -5.456,-1.22089 -10.2648,-2.67665 -15.5983,-4.72889 -2.4356,-0.94182 -3.6555,-1.40456 -4.3922,-1.48945 z m -36.8748,1.42435 c -1.7529,0 -2.6124,0.16275 -3.7193,0.69765 -0.7918,0.3837 -1.9721,1.2325 -2.6257,1.88597 -0.6535,0.65113 -1.4982,1.8348 -1.8807,2.62546 -0.5349,1.10461 -0.6965,1.96736 -0.6965,3.71961 0,1.75341 0.1615,2.60687 0.6965,3.7138 1.2029,2.48826 3.5643,4.43585 6.249,5.13698 1.4144,0.3721 4.2482,0 5.7621,-0.67438 0.7547,-0.36046 1.9061,-1.17902 2.5597,-1.83249 0.6534,-0.65113 1.5042,-1.8406 1.8868,-2.63129 0.5348,-1.1046 0.6906,-1.96037 0.6906,-3.71379 0,-1.75341 -0.1557,-2.61268 -0.6906,-3.7196 -0.3826,-0.79068 -1.2333,-1.97201 -1.8868,-2.62546 -0.6535,-0.65116 -1.8344,-1.5046 -2.6257,-1.88714 -1.1069,-0.53486 -1.9663,-0.69765 -3.7194,-0.69765 z m 160.4296,1.82551 c -1.7531,0 -2.6124,0.16275 -3.7194,0.69764 -0.7918,0.38371 -1.9721,1.22786 -2.6257,1.8813 -0.6534,0.65115 -1.4983,1.83483 -1.8807,2.62548 -0.5348,1.10461 -0.6964,1.9662 -0.6964,3.71961 0,1.75343 0.1617,2.61268 0.6964,3.71961 1.203,2.48827 3.5644,4.42886 6.2489,5.13118 1.4146,0.37208 4.2484,0 5.7623,-0.67441 0.7546,-0.36044 1.9061,-1.179 2.5596,-1.83248 0.6535,-0.65111 1.4982,-1.83478 1.8808,-2.62546 0.5348,-1.10458 0.6964,-1.96734 0.6964,-3.71959 0,-1.75343 -0.1617,-2.61268 -0.6964,-3.71962 -0.3826,-0.79066 -1.2272,-1.97201 -1.8808,-2.62547 -0.6534,-0.65114 -1.8343,-1.49877 -2.6257,-1.88131 -1.1069,-0.53488 -1.9664,-0.69764 -3.7193,-0.69764 z m -160.4296,2.54174 c 0.3954,0 1.3017,0.27906 2.013,0.62789 0.9383,0.45346 1.4622,0.98831 1.9167,1.92317 0.3442,0.70927 0.6314,1.61738 0.6314,2.0127 0,0.39533 -0.286,1.30228 -0.6314,2.01271 -0.4546,0.94183 -0.9778,1.46273 -1.9167,1.91736 -0.7116,0.34881 -1.6241,0.62788 -2.031,0.62788 -0.4069,0 -1.3171,-0.27907 -2.0189,-0.62788 -0.9115,-0.45347 -1.4537,-0.99995 -1.8987,-1.91736 -0.343,-0.70928 -0.6186,-1.6104 -0.6186,-2.00689 0,-0.39532 0.2803,-1.30112 0.6256,-2.0127 0.4546,-0.94183 0.9778,-1.46854 1.9168,-1.92318 0.7115,-0.34882 1.617,-0.62789 2.0128,-0.62789 z m 160.4296,1.82667 c 0.3953,0 1.3017,0.27908 2.0128,0.62789 0.9383,0.45345 1.4624,0.97669 1.9168,1.91736 0.3441,0.70925 0.6313,1.61738 0.6313,2.0127 0,0.39534 -0.286,1.30227 -0.6313,2.0127 -0.4547,0.94182 -0.9779,1.46273 -1.9168,1.91737 -0.7116,0.34882 -1.6241,0.62787 -2.0308,0.62787 -0.407,0 -1.3172,-0.29068 -2.0189,-0.63952 -0.9116,-0.45345 -1.4539,-0.99994 -1.8987,-1.91734 -0.343,-0.70927 -0.6244,-1.61041 -0.6244,-2.0069 0,-0.39533 0.286,-1.30111 0.6313,-2.0127 0.4547,-0.94181 0.9779,-1.46272 1.9168,-1.91736 0.7116,-0.34882 1.617,-0.62788 2.0128,-0.62788 z m -116.1882,4.00797 c -1.1058,-0.20929 -1.542,0.2558 -2.5477,1.85108 -1.9458,3.08128 -3.3741,6.13228 -4.6327,9.901888 -0.6476,1.941768 -1.3792,4.690479 -1.6222,6.111339 -0.6349,3.71144 -0.9383,7.90078 -0.5709,7.90078 0.1662,0 0.9953,-1.19298 1.8386,-2.6557 0.8442,-1.4627 2.3945,-3.82538 3.449,-5.24508 1.0546,-1.42086 3.1502,-3.813764 4.6567,-5.318325 2.9433,-2.939422 6.0292,-5.366052 9.4274,-7.432242 1.1698,-0.70928 2.1836,-1.34878 2.2533,-1.41273 0.07,0 0.058,-0.18604 -0.035,-0.26743 -0.081,-0.1162 -2.2627,-0.69765 -4.837,-1.34529 -2.5742,-0.65114 -5.2773,-1.40112 -6.0086,-1.66504 -0.5639,-0.20931 -1.0069,-0.34883 -1.376,-0.41859 z m 71.9468,0 c -0.3685,0.11621 -0.8057,0.22092 -1.3699,0.41858 -0.7314,0.26744 -3.4404,1.01158 -6.0146,1.66505 -2.5743,0.65113 -4.7513,1.25927 -4.837,1.34529 -0.081,0.11621 -0.093,0.2093 -0.023,0.26744 0.07,0.1162 1.0837,0.69764 2.2533,1.41273 3.3982,2.06502 6.4782,4.49284 9.4215,7.432202 1.5065,1.504601 3.6023,3.897495 4.6567,5.317195 1.0546,1.42087 2.6049,3.78354 3.4489,5.24627 0.8441,1.46155 1.6726,2.65567 1.8386,2.65567 0.1942,0 0.2221,-0.95345 0.081,-2.65567 -0.3418,-4.2254 -1.0093,-7.56013 -2.2772,-11.356449 -1.2584,-3.769578 -2.6869,-6.821778 -4.6327,-9.901868 -1.0058,-1.59297 -1.4414,-2.06154 -2.5476,-1.85109 z m -57.2017,13.771466 c -0.2233,0.22093 0.7057,0.837174 3.7433,2.475471 1.547,0.83717 3.3836,2.12897 4.2541,2.99868 0.843,0.83717 1.9073,2.22316 2.3614,3.06499 0.4534,0.83717 1.0302,2.33243 1.2858,3.3161 0.414,1.58829 0.4686,12.27267 0.4686,95.38608 0,60.20755 0.1162,95.333643 0.3128,98.457923 0.5593,8.77052 1.5525,16.81314 3.0523,24.68833 0.9895,5.19393 1.8259,8.57517 2.1271,8.57517 0.1685,0 0.2825,-45.451225 0.2825,-114.866433 0,-99.96607 0.058,-114.97583 0.4384,-115.71997 0.243,-0.47673 0.9139,-1.08135 1.49,-1.35226 0.5756,-0.27905 1.212,-0.49998 1.4121,-0.49998 0.1999,0 0.836,0.22093 1.412,0.49998 0.5756,0.27906 1.2468,0.88368 1.4901,1.35226 0.3849,0.74414 0.4384,18.59563 0.4384,138.51075 0,83.570253 0.1162,137.656003 0.2826,137.656003 0.1534,0 0.4848,-0.93019 0.7394,-2.05454 1.5171,-6.73923 2.9683,-15.67601 3.6834,-22.71287 0.2546,-2.50684 0.5976,-6.94735 0.7627,-9.87163 0.1872,-3.32541 0.2977,-48.58829 0.3,-120.790533 0,-102.75432 0.058,-115.66649 0.4744,-117.25828 0.2558,-0.98832 0.8372,-2.47544 1.2918,-3.3161 0.4535,-0.83717 1.5127,-2.222 2.3553,-3.06499 0.8709,-0.87204 2.7071,-2.16384 4.2541,-2.99868 3.0374,-1.637137 3.9665,-2.252211 3.7435,-2.475471 -0.081,-0.1162 -1.6463,0.18603 -3.473,0.593007 -1.8267,0.406967 -4.9646,0.976694 -6.97,1.274344 -2.6536,0.3837 -5.5888,0.52324 -10.7854,0.52324 -5.1968,0 -8.132,-0.13949 -10.7854,-0.52324 -2.0054,-0.29067 -5.1434,-0.860417 -6.97,-1.274344 -1.8268,-0.406977 -3.3901,-0.674367 -3.473,-0.593007 z"
       id="path5156-6" />
    <path
       inkscape:connector-curvature="0"
       style="opacity:1;fill:#00ff00;fill-opacity:0.29411766;stroke:#000000;stroke-width:0.98444837;stroke-miterlimit:4;stroke-dasharray:none;stroke-opacity:1;filter:url(#filter5311)"
       d="m 672.48861,-359.4739 c -1.664,0 -2.6579,0.17448 -3.6894,0.6395 -0.7767,0.34883 -1.9897,1.21506 -2.6918,1.91736 -0.7023,0.69764 -1.5231,1.84177 -1.8267,2.53592 -0.3035,0.69765 -0.6441,1.89292 -0.7569,2.66732 -0.1162,0.77903 -0.058,2.16502 0.1442,3.11264 0.1965,0.94181 0.786,2.32895 1.3219,3.10682 0.5314,0.7674 1.5395,1.81737 2.2413,2.32431 0.7022,0.51161 1.9315,1.1046 2.7338,1.33482 0.8499,0.24417 2.2038,0.34881 3.2387,0.2558 0.9767,-0.1162 2.3628,-0.40696 3.0824,-0.7209 0.7197,-0.31395 1.8815,-1.15111 2.5837,-1.85108 0.7023,-0.69764 1.5658,-1.91502 1.9168,-2.69172 0.4662,-1.03483 0.6371,-2.02548 0.6371,-3.68936 0,-1.66388 -0.1709,-2.66383 -0.6371,-3.69517 -0.3512,-0.77903 -1.2147,-1.98363 -1.9168,-2.68592 -0.7023,-0.69764 -1.9149,-1.5662 -2.6919,-1.91735 -1.0313,-0.46508 -2.0254,-0.6395 -3.6892,-0.6395 z m 0,4.37422 c 0.3953,0 1.3017,0.27906 2.0128,0.62787 0.9383,0.45347 1.4622,0.98832 1.9167,1.92315 0.3442,0.70928 0.6314,1.61737 0.6314,2.0127 0,0.39534 -0.286,1.30226 -0.6314,2.01269 -0.4546,0.94182 -0.9778,1.46272 -1.9167,1.91735 -0.7116,0.34883 -1.6241,0.62788 -2.031,0.62788 -0.4069,0 -1.317,-0.27905 -2.0188,-0.62788 -0.9116,-0.45346 -1.4538,-0.99994 -1.8988,-1.91735 -0.343,-0.70925 -0.6185,-1.61039 -0.6185,-2.00687 0,-0.39534 0.2802,-1.3011 0.6243,-2.01269 0.4547,-0.94182 0.9779,-1.46737 1.9168,-1.922 0.7116,-0.34883 1.617,-0.62789 2.0129,-0.62789 z m 45.2446,62.5144 c -0.1197,0.12794 -0.436,1.94759 -0.7034,4.04282 -0.2663,2.09644 -0.4872,4.0405 -0.4872,4.32075 0,0.30231 0.9802,1.16273 2.3553,2.07895 3.9707,2.65339 7.9499,5.97761 11.9512,9.97394 2.1027,2.10108 4.9079,5.18346 6.2309,6.85664 2.9906,3.78006 6.2282,8.7333 8.4421,12.91799 0.9302,1.75922 2.2999,4.64978 3.0403,6.41713 1.7955,4.28584 3.6101,9.96233 4.5546,14.24001 0.4244,1.922 1.0116,5.13348 1.3038,7.13803 0.386,2.65567 0.529,5.58578 0.529,10.78552 0,5.20089 -0.1419,8.12986 -0.529,10.78553 -0.7372,5.06717 -1.8588,9.97394 -3.2927,14.40279 -2.3619,7.29616 -5.3719,13.62957 -9.4695,19.93042 -1.1947,1.83712 -3.2557,4.70908 -4.5786,6.3811 -1.323,1.67318 -4.1282,4.75908 -6.2309,6.86245 -2.1029,2.10222 -5.1895,4.90791 -6.8619,6.23111 -3.7802,2.99053 -8.734,6.2276 -12.9184,8.44143 -1.7591,0.93019 -4.6437,2.29989 -6.4112,3.04056 -4.2855,1.79526 -9.9627,3.61029 -14.2404,4.55442 -1.9217,0.43022 -5.1388,1.0116 -7.1442,1.30344 -2.6556,0.38368 -5.5848,0.52322 -10.7854,0.52322 -5.2005,0 -8.1298,-0.13948 -10.7855,-0.52322 -5.0667,-0.73253 -9.9731,-1.85807 -14.4025,-3.29172 -7.296,-2.36267 -13.6296,-5.37298 -19.9306,-9.47045 -1.837,-1.19413 -4.7087,-3.25567 -6.3811,-4.57768 -1.6723,-1.3232 -4.7554,-4.12889 -6.8558,-6.23111 -3.9967,-4.00098 -7.3208,-7.981 -9.9743,-11.95174 -0.9197,-1.37553 -1.7813,-2.34874 -2.079,-2.34874 -0.2802,0 -2.2242,0.20931 -4.3201,0.47674 -2.0961,0.26742 -3.917,0.58137 -4.0439,0.70926 -0.3267,0.3023 2.779,5.20556 6.0567,9.55302 1.5321,2.03247 4.0121,5.03812 5.5159,6.68223 1.5039,1.64296 4.0769,4.21609 5.7202,5.71949 3.6621,3.35101 9.3344,7.65197 13.5134,10.25068 1.7212,1.06971 4.7844,2.78824 6.8077,3.81609 2.0233,1.0232 5.4958,2.5836 7.715,3.46029 2.2193,0.87206 5.6968,2.07781 7.727,2.66268 4.7438,1.3662 11.5931,2.72427 15.8447,3.1417 l 4.5546,0.44184 c 2.4816,0.24418 12.8863,-0.1162 16.5176,-0.58136 4.6054,-0.58138 9.9329,-1.69411 14.6489,-3.05218 1.958,-0.55813 5.3757,-1.74295 7.595,-2.61965 2.2192,-0.87206 5.6917,-2.43359 7.715,-3.46146 2.0232,-1.0232 5.0864,-2.74405 6.8077,-3.81493 4.1789,-2.59871 9.8512,-6.89967 13.5134,-10.25066 1.6433,-1.50342 4.2163,-4.07655 5.7201,-5.72066 3.3512,-3.66144 7.6517,-9.33443 10.2507,-13.51329 1.0709,-1.72085 2.788,-4.78349 3.8154,-6.80781 1.0279,-2.02317 2.584,-5.48927 3.461,-7.70894 1.8442,-4.66605 3.3205,-9.617 4.4224,-14.83534 1.3874,-6.5706 1.8025,-10.88318 1.8025,-18.61421 0,-7.73103 -0.4151,-12.04243 -1.8025,-18.61421 -1.1023,-5.21834 -2.5782,-10.16231 -4.4224,-14.82952 -0.8767,-2.21964 -2.4335,-5.69159 -3.461,-7.71475 -1.0278,-2.02315 -2.745,-5.08695 -3.8154,-6.80779 -2.599,-4.17886 -6.8995,-9.84487 -10.2507,-13.5075 -1.5038,-1.64293 -4.0768,-4.22303 -5.7201,-5.72647 -1.6435,-1.50341 -4.6555,-3.9835 -6.6876,-5.51598 -4.3478,-3.27777 -9.24,-6.38343 -9.5477,-6.05668 z m -174.6818,27.92193 c -1.7531,0 -2.6125,0.15118 -3.7194,0.686 -0.7918,0.38371 -1.9722,1.23249 -2.6258,1.88595 -0.6535,0.65114 -1.4982,1.83478 -1.8806,2.62662 -0.5349,1.10459 -0.6977,1.96619 -0.6977,3.71843 0,1.75341 0.1617,2.61266 0.6977,3.71959 1.2028,2.48939 3.5643,4.43 6.2489,5.13113 1.4146,0.37207 4.2484,0 5.7622,-0.67437 0.7547,-0.36046 1.9061,-1.17902 2.5597,-1.83248 0.6535,-0.65114 1.5042,-1.83478 1.8868,-2.62545 0.5348,-1.10458 0.6906,-1.96619 0.6906,-3.7196 0,-1.75337 -0.1557,-2.61266 -0.6906,-3.71957 -0.3826,-0.79066 -1.2332,-1.97199 -1.8868,-2.62545 -0.6535,-0.65114 -1.8343,-1.50458 -2.6257,-1.88712 -1.1069,-0.53486 -1.9664,-0.68603 -3.7193,-0.68603 z m 258.8743,0 c -1.753,0 -2.6123,0.15118 -3.7194,0.686 -0.7918,0.38371 -1.9721,1.23249 -2.6257,1.88595 -0.6534,0.65114 -1.4982,1.83478 -1.8807,2.62662 -0.5348,1.10459 -0.6965,1.96619 -0.6965,3.71843 0,1.75341 0.1617,2.61266 0.6965,3.71959 1.203,2.48939 3.5644,4.43 6.249,5.13113 1.4145,0.37207 4.2483,0 5.7622,-0.67437 0.7546,-0.36046 1.9062,-1.17902 2.5597,-1.83248 0.6535,-0.65114 1.4982,-1.83478 1.8806,-2.62545 0.5349,-1.10458 0.6965,-1.96619 0.6965,-3.7196 0,-1.75337 -0.1617,-2.61266 -0.6965,-3.71957 -0.3825,-0.79066 -1.2271,-1.97199 -1.8806,-2.62545 -0.6534,-0.65114 -1.8343,-1.50458 -2.6258,-1.88712 -1.1069,-0.53486 -1.9663,-0.68603 -3.7193,-0.68603 z m -258.8743,4.36141 c 0.3953,0 1.3016,0.29066 2.0128,0.62785 0.9383,0.45348 1.4623,0.97671 1.9167,1.91737 0.3442,0.70926 0.6314,1.61735 0.6314,2.01268 0,0.39533 -0.286,1.30226 -0.6314,2.01271 -0.4546,0.94181 -0.9778,1.46269 -1.9167,1.91735 -0.7116,0.3488 -1.6242,0.62788 -2.0309,0.62788 -0.4069,0 -1.3171,-0.27908 -2.0189,-0.62788 -0.9116,-0.45348 -1.4538,-0.99995 -1.8987,-1.91735 -0.343,-0.70928 -0.6185,-1.61039 -0.6185,-2.00686 0,-0.39537 0.2802,-1.30112 0.6243,-2.01272 0.4547,-0.94184 0.9779,-1.46273 1.9168,-1.91617 0.7116,-0.34883 1.6171,-0.62791 2.0129,-0.62791 z m 258.8743,0 c 0.3953,0 1.3016,0.29066 2.0129,0.62785 0.9383,0.45348 1.4622,0.97671 1.9167,1.91737 0.3442,0.70926 0.6314,1.61735 0.6314,2.01268 0,0.39533 -0.286,1.30226 -0.6314,2.01271 -0.4546,0.94181 -0.9778,1.46269 -1.9167,1.91735 -0.7116,0.3488 -1.6241,0.62788 -2.031,0.62788 -0.4069,0 -1.3171,-0.27908 -2.0188,-0.62788 -0.9116,-0.45348 -1.4538,-0.99995 -1.8988,-1.91735 -0.343,-0.70928 -0.6243,-1.61039 -0.6243,-2.00686 0,-0.39537 0.286,-1.30112 0.6313,-2.01272 0.4546,-0.94184 0.9779,-1.46273 1.9168,-1.91617 0.7116,-0.34883 1.617,-0.62791 2.0128,-0.62791 z m -129.4371,1.10459 c -5.9173,0 -9.1381,0.51159 -14.3126,2.23596 -7.1095,2.37427 -12.2786,5.59622 -17.7613,11.07967 -3.8616,3.86144 -6.4848,7.42406 -8.6945,11.81921 -0.6674,1.32666 -1.7431,4.00096 -2.3914,5.94156 -1.7288,5.17534 -2.2292,8.39611 -2.2292,14.31327 0,5.91716 0.5,9.14373 2.2292,14.31789 2.3751,7.11013 5.603,12.27268 11.0859,17.75613 3.8366,3.83586 7.426,6.48223 11.7287,8.64609 2.8088,1.41157 7.5263,3.08126 10.6232,3.76145 1.2534,0.27905 3.3012,0.62789 4.5545,0.77903 3.0679,0.37208 9.8595,0.1512 13.2189,-0.44184 1.504,-0.26742 4.3204,-1.01157 6.261,-1.65921 7.1066,-2.37199 12.2777,-5.60206 17.7614,-11.08552 3.8615,-3.86144 6.4848,-7.42406 8.6944,-11.8192 0.6674,-1.32667 1.7431,-3.99514 2.3914,-5.93575 1.7288,-5.17534 2.2292,-8.40191 2.2292,-14.31907 0,-5.91716 -0.5,-9.13793 -2.2292,-14.3121 -2.3751,-7.10896 -5.603,-12.27849 -11.0858,-17.76194 -3.8615,-3.86144 -7.424,-6.47877 -11.8189,-8.68793 -1.3271,-0.66276 -4.0019,-1.74295 -5.9425,-2.39174 -5.1745,-1.72783 -8.3953,-2.23479 -14.3124,-2.23479 z m 0,8.8333 c 5.3437,0 7.3693,0.30231 11.7888,1.79061 1.2733,0.43021 3.6207,1.44761 5.2155,2.27081 1.5948,0.82554 3.7905,2.17201 4.8789,2.99289 2.5109,1.89293 6.7926,6.31946 8.4001,8.68793 1.655,2.43827 3.5776,6.31833 4.5064,9.08445 1.4637,4.36144 1.7726,6.40085 1.7726,11.72968 0,5.34393 -0.307,7.3694 -1.7906,11.78896 -0.4279,1.2732 -1.4536,3.62076 -2.2773,5.21487 -0.8232,1.59527 -2.1655,3.79051 -2.9863,4.87883 -1.8932,2.5115 -6.326,6.79267 -8.6944,8.40072 -2.4386,1.6546 -6.3122,3.57776 -9.0789,4.50563 -1.2429,0.41858 -3.2683,0.9767 -4.4945,1.23831 -1.2262,0.26743 -4.0044,0.52324 -6.1769,0.59299 -2.1725,0.1162 -4.293,0.1162 -4.7107,0 -0.4174,-0.11619 -1.7143,-0.29067 -2.8842,-0.47671 -4.4315,-0.7209 -10.2131,-3.07892 -14.2824,-5.84041 -2.3684,-1.60807 -6.7952,-5.88927 -8.6884,-8.39961 -0.8209,-1.09296 -2.1686,-3.28471 -2.9923,-4.88 -0.8232,-1.59412 -1.8498,-3.94167 -2.2772,-5.21485 -1.4837,-4.41956 -1.7907,-6.44504 -1.7907,-11.78896 0,-5.32765 0.3093,-7.36826 1.7726,-11.7285 0.9291,-2.76732 2.8574,-6.64619 4.5125,-9.08562 1.6075,-2.3685 5.8891,-6.795 8.4001,-8.68794 1.0883,-0.82555 3.2781,-2.16852 4.8729,-2.99289 1.5948,-0.82554 3.9421,-1.84295 5.2154,-2.27081 4.4196,-1.48367 6.4451,-1.79061 11.789,-1.79061 z m -63.3427,116.46993 c -0.5034,0 0.6849,1.04647 3.6172,3.17891 1.6836,1.22671 4.5608,3.14753 6.3991,4.26609 6.9666,4.23932 16.0018,8.29028 23.5837,10.58088 4.501,1.3604 9.4981,2.47661 14.4748,3.23939 7.4648,1.13947 15.0128,1.44992 22.406,0.89529 7.7417,-0.56973 15.5272,-1.9999 22.6104,-4.14049 7.5819,-2.29059 16.6111,-6.34272 23.5777,-10.58089 1.8383,-1.11623 4.7155,-3.03939 6.3991,-4.26608 2.9329,-2.13709 4.1211,-3.1789 3.6172,-3.1789 -0.1292,0 -2.4347,0.74414 -5.1253,1.64643 -2.6906,0.90692 -6.4661,2.08129 -8.388,2.61962 -1.9218,0.53487 -4.8339,1.65225 -6.4712,2.46966 -4.062,2.02896 -9.6164,4.28118 -14.0241,5.69042 -4.3916,1.40343 -10.6674,2.86498 -15.0516,3.49634 -4.7588,0.68602 -10.0213,1.08134 -14.2823,1.08134 -4.2612,0 -9.5236,-0.39532 -14.2825,-1.08134 -4.3842,-0.62788 -10.6599,-2.09291 -15.0516,-3.49634 -4.4077,-1.40924 -9.962,-3.66146 -14.0241,-5.69042 -1.6373,-0.81391 -4.5494,-1.9313 -6.4712,-2.46966 -1.9217,-0.53485 -5.6974,-1.71386 -8.3879,-2.61962 -2.6907,-0.90694 -4.9964,-1.64643 -5.1254,-1.64643 z m 20.0026,19.12001 c -0.7372,-0.11619 -0.9907,0.20929 -1.5022,0.8023 -0.5627,0.65111 -0.9895,1.39643 -0.9488,1.64642 0.035,0.24417 1.2315,0.95345 2.6499,1.57437 4.0556,1.76269 13.0669,4.64397 18.224,5.82765 2.5903,0.59299 6.6979,1.36622 9.1211,1.71273 8.0448,1.15114 15.6471,1.44647 23.3915,0.90694 2.4232,-0.17447 6.3188,-0.593 8.6583,-0.9302 2.3397,-0.33719 6.3746,-1.09297 8.9648,-1.68831 5.0749,-1.1639 13.7097,-3.91378 18.0018,-5.73231 1.8341,-0.77906 2.6577,-1.28251 2.6498,-1.62901 -0.01,-0.27906 -0.4674,-1.03484 -1.0279,-1.68828 -1.0185,-1.18949 -1.0232,-1.18833 -5.8944,0.68599 -5.3334,2.05224 -10.1423,3.508 -15.5983,4.72889 -7.3431,1.64411 -15.9956,2.61383 -23.3494,2.61383 -7.3538,0 -16.0063,-0.96506 -23.3495,-2.61383 -5.456,-1.22089 -10.2648,-2.67665 -15.5983,-4.72889 -2.4356,-0.94182 -3.6555,-1.40456 -4.3922,-1.48945 z m -36.8748,1.42435 c -1.7529,0 -2.6124,0.16275 -3.7193,0.69765 -0.7918,0.3837 -1.9721,1.2325 -2.6257,1.88597 -0.6535,0.65113 -1.4982,1.8348 -1.8807,2.62546 -0.5349,1.10461 -0.6965,1.96736 -0.6965,3.71962 0,1.75342 0.1615,2.60689 0.6965,3.71382 1.2029,2.488268 3.5643,4.435856 6.249,5.136984 1.4144,0.3721 4.2482,0 5.7621,-0.674378 0.7547,-0.360457 1.9061,-1.179021 2.5597,-1.832488 0.6534,-0.651137 1.5042,-1.840601 1.8868,-2.631298 0.5348,-1.1046 0.6906,-1.96038 0.6906,-3.71381 0,-1.75342 -0.1557,-2.61269 -0.6906,-3.71961 -0.3826,-0.79068 -1.2333,-1.97201 -1.8868,-2.62546 -0.6535,-0.65116 -1.8344,-1.5046 -2.6257,-1.88714 -1.1069,-0.53486 -1.9663,-0.69765 -3.7194,-0.69765 z m 160.4296,1.82551 c -1.7531,0 -2.6124,0.16275 -3.7194,0.69764 -0.7918,0.38371 -1.9721,1.22786 -2.6257,1.8813 -0.6534,0.65115 -1.4983,1.83483 -1.8807,2.62548 -0.5348,1.10462 -0.6964,1.96621 -0.6964,3.71963 0,1.75344 0.1617,2.612697 0.6964,3.719621 1.203,2.488278 3.5644,4.428873 6.2489,5.131183 1.4146,0.37208 4.2484,0 5.7623,-0.6744 0.7546,-0.36044 1.9061,-1.17901 2.5596,-1.832488 0.6535,-0.651114 1.4982,-1.834778 1.8808,-2.625465 0.5348,-1.104574 0.6964,-1.967341 0.6964,-3.719601 0,-1.75344 -0.1617,-2.61269 -0.6964,-3.71964 -0.3826,-0.79066 -1.2272,-1.97201 -1.8808,-2.62547 -0.6534,-0.65114 -1.8343,-1.49877 -2.6257,-1.88131 -1.1069,-0.53488 -1.9664,-0.69764 -3.7193,-0.69764 z m -160.4296,2.54174 c 0.3954,0 1.3017,0.27906 2.013,0.62789 0.9383,0.45346 1.4622,0.98831 1.9167,1.92317 0.3442,0.70927 0.6314,1.61739 0.6314,2.01271 0,0.39533 -0.286,1.30229 -0.6314,2.01272 -0.4546,0.94184 -0.9778,1.46274 -1.9167,1.91737 -0.7116,0.34881 -1.6241,0.627887 -2.031,0.627887 -0.4069,0 -1.3171,-0.279077 -2.0189,-0.627887 -0.9115,-0.45347 -1.4537,-0.99995 -1.8987,-1.91737 -0.343,-0.70928 -0.6186,-1.61041 -0.6186,-2.0069 0,-0.39532 0.2803,-1.30113 0.6256,-2.01271 0.4546,-0.94183 0.9778,-1.46854 1.9168,-1.92318 0.7115,-0.34882 1.617,-0.62789 2.0128,-0.62789 z m 160.4296,1.82667 c 0.3953,0 1.3017,0.27908 2.0128,0.62789 0.9383,0.45345 1.4624,0.97669 1.9168,1.91737 0.3441,0.70925 0.6313,1.61739 0.6313,2.01271 0,0.39534 -0.286,1.30228 -0.6313,2.01271 -0.4547,0.941827 -0.9779,1.462734 -1.9168,1.917371 -0.7116,0.348827 -1.6241,0.627877 -2.0308,0.627877 -0.407,0 -1.3172,-0.29068 -2.0189,-0.639527 -0.9116,-0.453447 -1.4539,-0.999934 -1.8987,-1.917341 -0.343,-0.70927 -0.6244,-1.61042 -0.6244,-2.00691 0,-0.39533 0.286,-1.30112 0.6313,-2.01271 0.4547,-0.94182 0.9779,-1.46273 1.9168,-1.91737 0.7116,-0.34882 1.617,-0.62788 2.0128,-0.62788 z m -116.1882,4.00799 c -1.1058,-0.20929 -1.542,0.2558 -2.5477,1.85109 -1.9458,3.081288 -3.3741,6.132284 -4.6327,9.901884 -0.6476,1.94178 -1.3792,4.69048 -1.6222,6.11135 -0.6349,3.71144 -0.9383,7.90077 -0.5709,7.90077 0.1662,0 0.9953,-1.19298 1.8386,-2.6557 0.8442,-1.46269 2.3945,-3.82537 3.449,-5.24507 1.0546,-1.42087 3.1502,-3.81376 4.6567,-5.31834 2.9433,-2.93941 6.0292,-5.366038 9.4274,-7.432226 1.1698,-0.709287 2.1836,-1.348784 2.2533,-1.412734 0.07,0 0.058,-0.186037 -0.035,-0.267427 -0.081,-0.1162 -2.2627,-0.697657 -4.837,-1.345297 -2.5742,-0.65114 -5.2773,-1.40113 -6.0086,-1.66505 -0.5639,-0.20931 -1.0069,-0.34883 -1.376,-0.41859 z m 71.9468,0 c -0.3685,0.11621 -0.8057,0.22092 -1.3699,0.41858 -0.7314,0.26744 -3.4404,1.01159 -6.0146,1.66506 -2.5743,0.65113 -4.7513,1.259277 -4.837,1.345297 -0.081,0.11621 -0.093,0.2093 -0.023,0.267437 0.07,0.1162 1.0837,0.697637 2.2533,1.412734 3.3982,2.065018 6.4782,4.492836 9.4215,7.432196 1.5065,1.5046 3.6023,3.8975 4.6567,5.3172 1.0546,1.42086 2.6049,3.78354 3.4489,5.24626 0.8441,1.46156 1.6726,2.65568 1.8386,2.65568 0.1942,0 0.2221,-0.95345 0.081,-2.65568 -0.3418,-4.22539 -1.0093,-7.56012 -2.2772,-11.35644 -1.2584,-3.76958 -2.6869,-6.821776 -4.6327,-9.901874 -1.0058,-1.59298 -1.4414,-2.06155 -2.5476,-1.8511 z m -57.2017,13.771484 c -0.2233,0.22093 0.7057,0.83717 3.7433,2.47547 1.547,0.83717 3.3836,2.12897 4.2541,2.99868 0.843,0.83717 1.9073,2.22316 2.3614,3.06498 0.4534,0.83717 1.0302,2.33244 1.2858,3.31611 0.414,1.58829 0.4686,12.27267 0.4686,95.386072 0,60.20755 0.1162,95.333604 0.3128,98.457874 0.5593,8.77055 1.5525,16.81316 3.0523,24.68836 0.9895,5.19392 1.8259,8.57517 2.1271,8.57517 0.1685,0 0.2825,-45.45124 0.2825,-114.866414 0,-99.966062 0.058,-114.975822 0.4384,-115.719962 0.243,-0.47673 0.9139,-1.08136 1.49,-1.35226 0.5756,-0.27906 1.212,-0.49999 1.4121,-0.49999 0.1999,0 0.836,0.22093 1.412,0.49999 0.5756,0.27905 1.2468,0.88368 1.4901,1.35226 0.3849,0.74414 0.4384,18.59563 0.4384,138.510752 0,83.570224 0.1162,137.655974 0.2826,137.655974 0.1534,0 0.4848,-0.9302 0.7394,-2.05454 1.5171,-6.73923 2.9683,-15.67601 3.6834,-22.71289 0.2546,-2.50682 0.5976,-6.94735 0.7627,-9.87163 0.1872,-3.32539 0.2977,-48.58827 0.3,-120.790484 0,-102.754332 0.058,-115.666502 0.4744,-117.258282 0.2558,-0.98833 0.8372,-2.47544 1.2918,-3.31611 0.4535,-0.83716 1.5127,-2.22199 2.3553,-3.06498 0.8709,-0.87204 2.7071,-2.16384 4.2541,-2.99868 3.0374,-1.63714 3.9665,-2.25222 3.7435,-2.47547 -0.081,-0.11621 -1.6463,0.18603 -3.473,0.59301 -1.8267,0.40696 -4.9646,0.97668 -6.97,1.27434 -2.6536,0.3837 -5.5888,0.52324 -10.7854,0.52324 -5.1968,0 -8.132,-0.13949 -10.7854,-0.52324 -2.0054,-0.29067 -5.1434,-0.86043 -6.97,-1.27434 -1.8268,-0.40698 -3.3901,-0.67437 -3.473,-0.59301 z"
       id="path5156-6-7" />
    <path
       inkscape:connector-curvature="0"
       style="opacity:1;fill:#ffffff;fill-opacity:1;stroke:none;stroke-width:0.98444837;stroke-miterlimit:4;stroke-dasharray:none;stroke-opacity:1;filter:url(#filter5275)"
       d="m 669.19185,-363.46638 c -1.664,0 -2.65791,0.17448 -3.68936,0.6395 -0.77672,0.34883 -1.98968,1.21506 -2.69185,1.91736 -0.70229,0.69764 -1.52306,1.84177 -1.82665,2.53592 -0.30348,0.69765 -0.64415,1.89292 -0.75694,2.66732 -0.11621,0.77903 -0.0581,2.16502 0.14419,3.11264 0.1965,0.94181 0.786,2.32895 1.32192,3.10682 0.53137,0.7674 1.53956,1.81737 2.24128,2.32431 0.70229,0.51161 1.93153,1.1046 2.73381,1.33482 0.84996,0.24417 2.20387,0.34881 3.2387,0.2558 0.97669,-0.1162 2.3628,-0.40696 3.08239,-0.7209 0.71975,-0.31395 1.88155,-1.15111 2.58373,-1.85108 0.70229,-0.69764 1.56586,-1.91502 1.91677,-2.69172 0.46626,-1.03483 0.63717,-2.02548 0.63717,-3.68936 0,-1.66388 -0.17097,-2.66383 -0.63717,-3.69517 -0.35116,-0.77903 -1.21461,-1.98363 -1.91677,-2.68592 -0.70229,-0.69764 -1.91491,-1.5662 -2.69186,-1.91735 -1.03134,-0.46508 -2.02548,-0.6395 -3.68922,-0.6395 z m 0,4.37422 c 0.39533,0 1.30169,0.27906 2.01281,0.62787 0.93832,0.45347 1.46225,0.98832 1.91676,1.92315 0.34417,0.70928 0.63137,1.61737 0.63137,2.0127 0,0.39534 -0.28602,1.30226 -0.63137,2.01269 -0.45464,0.94182 -0.97785,1.46272 -1.91676,1.91735 -0.7116,0.34883 -1.6241,0.62788 -2.03095,0.62788 -0.40696,0 -1.31703,-0.27905 -2.01887,-0.62788 -0.91158,-0.45346 -1.45376,-0.99994 -1.89874,-1.91735 -0.34301,-0.70925 -0.61856,-1.61039 -0.61856,-2.00687 0,-0.39534 0.2802,-1.3011 0.62438,-2.01269 0.45463,-0.94182 0.97787,-1.46737 1.91676,-1.922 0.7116,-0.34883 1.61702,-0.62789 2.01294,-0.62789 z m 45.24467,62.5144 c -0.1197,0.12794 -0.43602,1.94759 -0.70346,4.04282 -0.26627,2.09642 -0.48719,4.0405 -0.48719,4.32074 0,0.3023 0.9802,1.16273 2.35535,2.07896 3.97063,2.65337 7.94984,5.97761 11.95116,9.97394 2.1027,2.10106 4.90791,5.18346 6.23086,6.85663 2.99068,3.78005 6.2282,8.7333 8.44216,12.91799 0.93018,1.75921 2.29989,4.64977 3.04032,6.41713 1.7955,4.28584 3.61005,9.96232 4.55454,14.24 0.4244,1.922 1.01159,5.13348 1.30378,7.13803 0.38603,2.65568 0.52905,5.58578 0.52905,10.78552 0,5.20091 -0.14192,8.12986 -0.52905,10.78553 -0.73718,5.06719 -1.85876,9.97394 -3.29264,14.40279 -2.36197,7.29616 -5.37194,13.62957 -9.46953,19.93042 -1.19472,1.83712 -3.25566,4.70908 -4.57863,6.3811 -1.32295,1.67318 -4.12816,4.75908 -6.23086,6.86245 -2.10292,2.10222 -5.18952,4.90791 -6.86186,6.23111 -3.78029,2.99053 -8.734,6.2276 -12.91846,8.44143 -1.75909,0.93019 -4.64373,2.29989 -6.41119,3.04056 -4.28548,1.79526 -9.96266,3.61029 -14.24036,4.55442 -1.92177,0.43022 -5.13882,1.0116 -7.14418,1.30344 -2.65569,0.38368 -5.58485,0.52322 -10.78541,0.52322 -5.20057,0 -8.12984,-0.13948 -10.78554,-0.52322 -5.06672,-0.73253 -9.97311,-1.85807 -14.40255,-3.29172 -7.29592,-2.36267 -13.62957,-5.37298 -19.93054,-9.47045 -1.83701,-1.19413 -4.70872,-3.25567 -6.38109,-4.57768 -1.67236,-1.3232 -4.75547,-4.12889 -6.85584,-6.23111 -3.99667,-4.00098 -7.32079,-7.981 -9.97429,-11.95174 -0.9197,-1.37553 -1.7813,-2.34874 -2.07895,-2.34874 -0.28022,0 -2.22421,0.20931 -4.32014,0.47674 -2.09607,0.26742 -3.91703,0.58137 -4.04387,0.70926 -0.32674,0.30231 2.77893,5.20556 6.05668,9.55302 1.53212,2.03247 4.01212,5.03812 5.5159,6.68223 1.50388,1.64296 4.07688,4.21609 5.72019,5.71949 3.66213,3.35101 9.33442,7.65197 13.51341,10.25068 1.72119,1.06971 4.78441,2.78824 6.80769,3.81609 2.02326,1.0232 5.49577,2.5836 7.71497,3.46029 2.21931,0.87206 5.69682,2.07781 7.72706,2.66268 4.74373,1.3662 11.59305,2.72427 15.8447,3.1417 l 4.55454,0.44184 c 2.48163,0.24418 12.88637,-0.1162 16.51759,-0.58136 4.60546,-0.58138 9.93289,-1.69411 14.64894,-3.05218 1.95804,-0.55813 5.37567,-1.74295 7.59499,-2.61965 2.21919,-0.87206 5.69169,-2.43359 7.71496,-3.46146 2.02328,-1.0232 5.08649,-2.74405 6.8077,-3.81493 4.17897,-2.59871 9.85126,-6.89967 13.51342,-10.25066 1.64328,-1.50342 4.2163,-4.07655 5.72017,-5.72066 3.35113,-3.66144 7.65161,-9.33443 10.25068,-13.51329 1.07088,-1.72085 2.788,-4.78349 3.81538,-6.80781 1.02787,-2.02317 2.58395,-5.48927 3.46101,-7.70894 1.84421,-4.66605 3.32052,-9.61698 4.42234,-14.83532 1.38749,-6.57062 1.80259,-10.8832 1.80259,-18.61421 0,-7.73103 -0.4151,-12.04245 -1.80259,-18.61422 -1.10227,-5.21835 -2.57813,-10.1623 -4.42234,-14.82952 -0.8767,-2.21965 -2.43349,-5.69158 -3.46101,-7.71474 -1.02784,-2.02315 -2.74497,-5.08697 -3.81538,-6.80781 -2.59907,-4.17886 -6.89955,-9.84487 -10.25068,-13.50748 -1.50387,-1.64294 -4.07689,-4.22305 -5.72017,-5.72647 -1.64343,-1.50341 -4.65547,-3.98352 -6.68758,-5.516 -4.34781,-3.27775 -9.24003,-6.38342 -9.5477,-6.05668 z m -174.68189,27.92191 c -1.75307,0 -2.61244,0.1512 -3.71936,0.68602 -0.79182,0.3837 -1.97223,1.23249 -2.62581,1.88595 -0.65344,0.65112 -1.49817,1.83478 -1.8806,2.62661 -0.53485,1.1046 -0.69764,1.96618 -0.69764,3.71842 0,1.75341 0.1617,2.61268 0.69764,3.71959 1.20285,2.4894 3.56436,4.43001 6.24889,5.13115 1.41459,0.37207 4.2484,0 5.76227,-0.67439 0.75461,-0.36045 1.90609,-1.17902 2.55966,-1.83246 0.65345,-0.65114 1.50423,-1.8348 1.88675,-2.62545 0.53486,-1.1046 0.69068,-1.9662 0.69068,-3.7196 0,-1.75339 -0.15575,-2.61266 -0.69068,-3.71959 -0.38252,-0.79065 -1.23318,-1.97199 -1.88675,-2.62545 -0.65347,-0.65113 -1.83434,-1.50458 -2.6257,-1.88712 -1.10691,-0.53484 -1.96641,-0.68601 -3.71935,-0.68601 z m 258.87432,0 c -1.75294,0 -2.61232,0.1512 -3.71936,0.68602 -0.79183,0.3837 -1.97211,1.23249 -2.62568,1.88595 -0.65347,0.65112 -1.4982,1.83478 -1.88073,2.62661 -0.53485,1.1046 -0.69648,1.96618 -0.69648,3.71842 0,1.75341 0.1617,2.61268 0.69648,3.71959 1.20297,2.4894 3.56437,4.43001 6.24901,5.13115 1.41446,0.37207 4.24828,0 5.76215,-0.67439 0.75462,-0.36045 1.90619,-1.17902 2.55976,-1.83246 0.65345,-0.65114 1.49817,-1.8348 1.8806,-2.62545 0.53487,-1.1046 0.69649,-1.9662 0.69649,-3.7196 0,-1.75339 -0.1617,-2.61266 -0.69649,-3.71959 -0.38253,-0.79065 -1.22715,-1.97199 -1.8806,-2.62545 -0.65344,-0.65113 -1.83433,-1.50458 -2.62581,-1.88712 -1.10692,-0.53484 -1.96629,-0.68601 -3.71934,-0.68601 z m -258.87432,4.36141 c 0.39533,0 1.30169,0.29068 2.01281,0.62787 0.93832,0.45348 1.46238,0.97671 1.91677,1.91736 0.34417,0.70927 0.63136,1.61736 0.63136,2.01269 0,0.39533 -0.28604,1.30226 -0.63136,2.01269 -0.45464,0.94181 -0.97787,1.46271 -1.91677,1.91735 -0.71159,0.34882 -1.62412,0.62788 -2.03083,0.62788 -0.40696,0 -1.31715,-0.27906 -2.01898,-0.62788 -0.91157,-0.45346 -1.45376,-0.99995 -1.89863,-1.91735 -0.343,-0.70926 -0.61857,-1.61038 -0.61857,-2.00686 0,-0.39535 0.28023,-1.30111 0.62438,-2.01272 0.45464,-0.94182 0.97786,-1.46272 1.91677,-1.91617 0.71159,-0.34881 1.61713,-0.62789 2.01293,-0.62789 z m 258.87432,0 c 0.39533,0 1.30167,0.29068 2.01293,0.62787 0.93833,0.45348 1.46224,0.97671 1.91675,1.91736 0.34417,0.70927 0.63136,1.61736 0.63136,2.01269 0,0.39533 -0.28602,1.30226 -0.63136,2.01269 -0.45462,0.94181 -0.97784,1.46271 -1.91675,1.91735 -0.71161,0.34882 -1.62411,0.62788 -2.03096,0.62788 -0.40696,0 -1.31715,-0.27906 -2.01884,-0.62788 -0.9116,-0.45346 -1.45378,-0.99995 -1.89876,-1.91735 -0.34301,-0.70926 -0.62439,-1.61038 -0.62439,-2.00686 0,-0.39535 0.28603,-1.30111 0.63136,-2.01272 0.45463,-0.94182 0.97787,-1.46272 1.91678,-1.91617 0.71159,-0.34881 1.61701,-0.62789 2.01281,-0.62789 z m -129.4371,1.1046 c -5.91728,0 -9.13805,0.5116 -14.31258,2.23595 -7.10953,2.37429 -12.27857,5.59624 -17.76134,11.07968 -3.86155,3.86145 -6.4848,7.42406 -8.69446,11.8192 -0.66741,1.32668 -1.74305,4.00096 -2.39139,5.94157 -1.72876,5.17533 -2.2292,8.3961 -2.2292,14.31327 0,5.91715 0.49997,9.14373 2.2292,14.3179 2.37511,7.11011 5.60297,12.27266 11.08585,17.75611 3.83668,3.83586 7.42603,6.48225 11.72874,8.64609 2.80881,1.41157 7.52627,3.08126 10.6232,3.76145 1.25343,0.27905 3.30124,0.62789 4.55455,0.77903 3.06787,0.37208 9.85941,0.1512 13.21889,-0.44184 1.50401,-0.26742 4.32038,-1.01157 6.26099,-1.65921 7.10662,-2.37199 12.27766,-5.60206 17.76133,-11.08552 3.86158,-3.86144 6.4848,-7.42406 8.69448,-11.8192 0.6674,-1.32667 1.74305,-3.99514 2.39139,-5.93575 1.72875,-5.17533 2.22918,-8.40191 2.22918,-14.31906 0,-5.91717 -0.49996,-9.13794 -2.22918,-14.31211 -2.37512,-7.10896 -5.60299,-12.27848 -11.08587,-17.76193 -3.86142,-3.86145 -7.42393,-6.47876 -11.81883,-8.68794 -1.32715,-0.66276 -4.00189,-1.74295 -5.9425,-2.39174 -5.17453,-1.72783 -8.3953,-2.23479 -14.31245,-2.23479 z m 0,8.83329 c 5.34369,0 7.3693,0.30231 11.78883,1.79061 1.27333,0.43021 3.62066,1.44761 5.21546,2.27082 1.59481,0.82555 3.79052,2.172 4.87895,2.99289 2.51092,1.89292 6.79258,6.31945 8.40005,8.68794 1.65504,2.43826 3.57764,6.31831 4.50641,9.08444 1.46377,4.36143 1.77259,6.40085 1.77259,11.72968 0,5.34392 -0.30697,7.3694 -1.79059,11.78896 -0.4279,1.27319 -1.45356,3.62075 -2.27723,5.21486 -0.82321,1.59527 -2.16559,3.79051 -2.98637,4.87883 -1.89315,2.5115 -6.32598,6.79269 -8.69434,8.40074 -2.4386,1.65458 -6.31225,3.57774 -9.07898,4.50561 -1.24285,0.41858 -3.26821,0.9767 -4.49444,1.23831 -1.22622,0.26743 -4.00445,0.52324 -6.1769,0.59299 -2.17246,0.1162 -4.29296,0.1162 -4.71071,0 -0.41743,-0.11619 -1.71433,-0.29067 -2.88416,-0.47671 -4.43155,-0.7209 -10.21312,-3.07891 -14.28245,-5.84041 -2.36838,-1.60807 -6.79514,-5.88927 -8.68842,-8.39961 -0.82089,-1.09296 -2.16862,-3.28471 -2.9923,-4.88 -0.8232,-1.59411 -1.84979,-3.94165 -2.27721,-5.21485 -1.48365,-4.41956 -1.79062,-6.44504 -1.79062,-11.78896 0,-5.32765 0.3093,-7.36826 1.77259,-11.7285 0.92903,-2.76732 2.85742,-6.64619 4.51247,-9.08562 1.60748,-2.36849 5.88914,-6.795 8.40005,-8.68794 1.08833,-0.82555 3.2781,-2.1685 4.87291,-2.99287 1.59479,-0.82555 3.94212,-1.84295 5.21544,-2.27083 4.41956,-1.48365 6.44514,-1.79061 11.78896,-1.79061 z m -63.34265,116.46993 c -0.50345,0 0.68487,1.04647 3.61717,3.17891 1.68364,1.22671 4.56081,3.14753 6.3991,4.26609 6.96664,4.23932 16.00179,8.29028 23.58373,10.58088 4.50096,1.3604 9.49804,2.47661 14.47478,3.23939 7.46475,1.13947 15.01276,1.44992 22.40601,0.89529 7.74173,-0.56973 15.52716,-1.9999 22.61042,-4.14049 7.58184,-2.29059 16.61105,-6.34272 23.57769,-10.58089 1.83828,-1.11623 4.71547,-3.03939 6.39912,-4.26608 2.93287,-2.13709 4.12107,-3.1789 3.61714,-3.1789 -0.12915,0 -2.43466,0.74414 -5.12533,1.64643 -2.69058,0.90692 -6.46608,2.08129 -8.38796,2.61962 -1.92178,0.53487 -4.83385,1.65225 -6.4712,2.46966 -4.06202,2.02896 -9.6164,4.28118 -14.02411,5.69042 -4.39163,1.40343 -10.66738,2.86498 -15.05159,3.49634 -4.75882,0.68602 -10.02125,1.08134 -14.28232,1.08134 -4.26119,0 -9.52361,-0.39532 -14.28246,-1.08134 -4.38421,-0.62788 -10.65995,-2.09291 -15.05159,-3.49634 -4.40769,-1.40924 -9.96207,-3.66146 -14.02408,-5.69042 -1.63737,-0.81391 -4.54944,-1.9313 -6.4712,-2.46966 -1.92177,-0.53485 -5.69741,-1.71386 -8.38796,-2.61962 -2.6907,-0.90694 -4.99639,-1.64643 -5.12536,-1.64643 z m 20.00253,19.12001 c -0.73718,-0.11619 -0.99065,0.20929 -1.50213,0.8023 -0.56277,0.65111 -0.98949,1.39643 -0.94881,1.64642 0.0349,0.24417 1.23147,0.95345 2.64989,1.57437 4.05561,1.76269 13.06692,4.64397 18.224,5.82764 2.59033,0.59299 6.69793,1.36621 9.12107,1.71272 8.04483,1.15113 15.64715,1.44646 23.39155,0.90694 2.42314,-0.17447 6.31876,-0.593 8.6583,-0.9302 2.33965,-0.33719 6.37457,-1.09296 8.96479,-1.6883 5.07486,-1.16389 13.70969,-3.91377 18.0018,-5.7323 1.83411,-0.77906 2.65768,-1.28251 2.64976,-1.62901 -0.007,-0.27906 -0.46742,-1.03484 -1.02785,-1.68828 -1.01856,-1.18949 -1.02322,-1.18833 -5.89438,0.68599 -5.33345,2.05224 -10.1423,3.508 -15.59831,4.72889 -7.34314,1.64411 -15.99561,2.61383 -23.34944,2.61383 -7.35384,0 -16.00633,-0.96506 -23.34947,-2.61383 -5.45601,-1.22089 -10.26483,-2.67665 -15.59831,-4.72889 -2.43558,-0.94182 -3.65552,-1.40456 -4.39222,-1.48945 z m -36.87472,1.42435 c -1.75295,0 -2.61242,0.16275 -3.71936,0.69765 -0.79181,0.3837 -1.97211,1.2325 -2.62568,1.88597 -0.65347,0.65113 -1.49819,1.8348 -1.88072,2.62546 -0.53487,1.10461 -0.69648,1.96736 -0.69648,3.71961 0,1.75341 0.16152,2.60687 0.69648,3.7138 1.20297,2.48826 3.56437,4.43585 6.24898,5.136971 1.41448,0.372088 4.24829,0 5.76218,-0.674371 0.75462,-0.36046 1.90607,-1.17902 2.55964,-1.83249 0.65347,-0.65113 1.50423,-1.8406 1.88678,-2.63129 0.53485,-1.1046 0.69066,-1.96037 0.69066,-3.71379 0,-1.75341 -0.15576,-2.61268 -0.69066,-3.7196 -0.38255,-0.79068 -1.23321,-1.97201 -1.88678,-2.62546 -0.65346,-0.65116 -1.83434,-1.5046 -2.62568,-1.88714 -1.10693,-0.53486 -1.9663,-0.69765 -3.71936,-0.69765 z m 160.42955,1.82551 c -1.75304,0 -2.61243,0.16275 -3.71934,0.69764 -0.79183,0.38371 -1.97213,1.22786 -2.62571,1.8813 -0.65344,0.65115 -1.49829,1.83483 -1.88071,2.62548 -0.53486,1.10461 -0.69647,1.9662 -0.69647,3.71961 0,1.75343 0.1617,2.61268 0.69647,3.71961 1.20296,2.48827 3.56436,4.428865 6.24887,5.131158 1.4146,0.372078 4.24841,0 5.7623,-0.674384 0.7546,-0.360444 1.90606,-1.179013 2.55963,-1.832484 0.65346,-0.65111 1.49819,-1.83478 1.88073,-2.62546 0.53485,-1.10458 0.69647,-1.96734 0.69647,-3.71959 0,-1.75343 -0.1617,-2.61268 -0.69647,-3.71962 -0.38254,-0.79066 -1.22715,-1.97201 -1.88073,-2.62547 -0.65346,-0.65114 -1.83433,-1.49877 -2.62568,-1.88131 -1.10692,-0.53488 -1.96642,-0.69764 -3.71936,-0.69764 z m -160.42955,2.54174 c 0.39533,0 1.30168,0.27906 2.01293,0.62789 0.93831,0.45346 1.46225,0.98831 1.91675,1.92317 0.34418,0.70927 0.63137,1.61738 0.63137,2.0127 0,0.39533 -0.28602,1.30228 -0.63137,2.01271 -0.45462,0.94183 -0.97784,1.46273 -1.91675,1.91736 -0.71161,0.34881 -1.62411,0.62788 -2.03094,0.62788 -0.40697,0 -1.31716,-0.27907 -2.01888,-0.62788 -0.91157,-0.45347 -1.45375,-0.99995 -1.89872,-1.91736 -0.34303,-0.70928 -0.6186,-1.6104 -0.6186,-2.00689 0,-0.39532 0.28023,-1.30112 0.62556,-2.0127 0.45463,-0.94183 0.97786,-1.46854 1.91677,-1.92318 0.71159,-0.34882 1.61702,-0.62789 2.01282,-0.62789 z m 160.42955,1.82667 c 0.39532,0 1.30168,0.27908 2.01282,0.62789 0.93831,0.45345 1.46236,0.97669 1.91675,1.91736 0.34418,0.70925 0.63137,1.61738 0.63137,2.0127 0,0.39534 -0.28602,1.30227 -0.63137,2.0127 -0.45461,0.94182 -0.97784,1.46273 -1.91675,1.91737 -0.71161,0.34882 -1.62411,0.62787 -2.03084,0.62787 -0.40695,0 -1.31714,-0.29068 -2.01886,-0.63952 -0.91157,-0.45345 -1.45388,-0.99994 -1.89874,-1.91734 -0.34301,-0.70927 -0.62438,-1.61041 -0.62438,-2.0069 0,-0.39533 0.28603,-1.30111 0.63136,-2.0127 0.45463,-0.94181 0.97787,-1.46272 1.91678,-1.91736 0.71158,-0.34882 1.617,-0.62788 2.01279,-0.62788 z m -116.18821,4.00797 c -1.10576,-0.20929 -1.54201,0.2558 -2.54767,1.85108 -1.94582,3.08128 -3.37413,6.132284 -4.63268,9.901868 -0.64764,1.941765 -1.37923,4.690476 -1.62223,6.111336 -0.63488,3.711456 -0.93834,7.900778 -0.57091,7.900778 0.16625,0 0.9953,-1.192958 1.83862,-2.655681 0.84415,-1.462713 2.39454,-3.825392 3.44902,-5.245097 1.0546,-1.42086 3.15019,-3.813757 4.65663,-5.318334 2.94336,-2.939412 6.02925,-5.366025 9.42746,-7.43221 1.16982,-0.70928 2.18362,-1.34878 2.25326,-1.41273 0.0698,0 0.0581,-0.18604 -0.0349,-0.26743 -0.0814,-0.1162 -2.2627,-0.69765 -4.83698,-1.34529 -2.57418,-0.65114 -5.2773,-1.40112 -6.00856,-1.66504 -0.56392,-0.20931 -1.00691,-0.34883 -1.37598,-0.41859 z m 71.94687,0 c -0.36859,0.11621 -0.80577,0.22092 -1.36994,0.41858 -0.73136,0.26744 -3.44042,1.01158 -6.0146,1.66505 -2.57428,0.65113 -4.75126,1.25927 -4.83696,1.34529 -0.0814,0.11621 -0.0931,0.2093 -0.0233,0.26744 0.0698,0.1162 1.08368,0.69764 2.25327,1.41273 3.3982,2.065018 6.47816,4.492818 9.42151,7.432198 1.50645,1.504587 3.60227,3.897485 4.65665,5.31719 1.0546,1.42086 2.60498,3.783528 3.44889,5.246251 0.84415,1.461569 1.6726,2.655692 1.83865,2.655692 0.19417,0 0.22207,-0.953453 0.0814,-2.655692 -0.34185,-4.225378 -1.00926,-7.560105 -2.27723,-11.356432 -1.25842,-3.769574 -2.68684,-6.821767 -4.63268,-9.901857 -1.00577,-1.59297 -1.44144,-2.06154 -2.54754,-1.85109 z m -57.20178,13.771458 c -0.22324,0.22092 0.70578,0.837175 3.74331,2.475459 1.54704,0.837186 3.38367,2.12898 4.25411,2.998695 0.84298,0.837165 1.90734,2.223144 2.3614,3.064971 0.45345,0.837165 1.03017,2.332449 1.28586,3.31612 0.41393,1.588283 0.46859,12.272663 0.46859,95.386064 0,60.207556 0.11619,95.333663 0.31277,98.457933 0.55926,8.77051 1.55248,16.81314 3.0523,24.68833 0.98949,5.19393 1.82595,8.57518 2.12711,8.57518 0.16852,0 0.28253,-45.45124 0.28253,-114.866444 0,-99.966069 0.0581,-114.975819 0.43836,-115.719975 0.24301,-0.476711 0.91391,-1.081343 1.49004,-1.352253 0.57556,-0.279059 1.21191,-0.499979 1.41203,-0.499979 0.19998,0 0.83601,0.22092 1.41202,0.499979 0.57556,0.279048 1.2468,0.88368 1.49016,1.352253 0.38486,0.744156 0.43835,18.595626 0.43835,138.510739 0,83.57027 0.11621,137.65602 0.28255,137.65602 0.15347,0 0.48485,-0.93019 0.73949,-2.05455 1.51702,-6.73921 2.96823,-15.676 3.68332,-22.71284 0.25463,-2.50687 0.59764,-6.94735 0.76275,-9.87163 0.18719,-3.32542 0.29765,-48.58832 0.29998,-120.79056 0.003,-102.754312 0.0581,-115.666477 0.47439,-117.258267 0.25582,-0.988323 0.83719,-2.475459 1.2918,-3.31612 0.45348,-0.837165 1.51272,-2.221979 2.35536,-3.064971 0.87089,-0.872046 2.70708,-2.16384 4.25409,-2.998695 3.03741,-1.637129 3.96645,-2.252219 3.74343,-2.475459 -0.0814,-0.116204 -1.64631,0.186039 -3.47297,0.592998 -1.82666,0.406969 -4.96464,0.976699 -6.97001,1.274353 -2.6536,0.383702 -5.58881,0.523236 -10.78542,0.523236 -5.19673,0 -8.13194,-0.139482 -10.7854,-0.523236 -2.00537,-0.290671 -5.14337,-0.860422 -6.97001,-1.274353 -1.82678,-0.406959 -3.39007,-0.674373 -3.47298,-0.592998 z"
       id="path5156" />
  </g>
</svg>
