<?xml version="1.0" encoding="UTF-8" standalone="no"?>
<!-- Created with Inkscape (http://www.inkscape.org/) -->

<svg
   xmlns:dc="http://purl.org/dc/elements/1.1/"
   xmlns:cc="http://creativecommons.org/ns#"
   xmlns:rdf="http://www.w3.org/1999/02/22-rdf-syntax-ns#"
   xmlns:svg="http://www.w3.org/2000/svg"
   xmlns="http://www.w3.org/2000/svg"
   xmlns:sodipodi="http://sodipodi.sourceforge.net/DTD/sodipodi-0.dtd"
   xmlns:inkscape="http://www.inkscape.org/namespaces/inkscape"
   id="svg3458"
   version="1.1"
   inkscape:version="0.91 r13725"
   width="400"
   height="398.75"
   viewBox="0 0 400 398.75"
   sodipodi:docname="neha.svg">
  <metadata
     id="metadata3464">
    <rdf:RDF>
      <cc:Work
         rdf:about="">
        <dc:format>image/svg+xml</dc:format>
        <dc:type
           rdf:resource="http://purl.org/dc/dcmitype/StillImage" />
        <dc:title />
      </cc:Work>
    </rdf:RDF>
  </metadata>
  <defs
     id="defs3462" />
  <sodipodi:namedview
     pagecolor="#ffffff"
     bordercolor="#666666"
     borderopacity="1"
     objecttolerance="10"
     gridtolerance="10"
     guidetolerance="10"
     inkscape:pageopacity="0"
     inkscape:pageshadow="2"
     inkscape:window-width="1366"
     inkscape:window-height="744"
     id="namedview3460"
     showgrid="false"
     inkscape:zoom="1.1836991"
     inkscape:cx="186.37636"
     inkscape:cy="92.969991"
     inkscape:window-x="0"
     inkscape:window-y="0"
     inkscape:window-maximized="1"
     inkscape:current-layer="layer3" />
  <g
     inkscape:groupmode="layer"
     id="layer2"
     inkscape:label="Layer 2">
    <path
       style="fill:#999999;fill-rule:evenodd;stroke:#000000;stroke-width:0;stroke-linecap:butt;stroke-linejoin:miter;stroke-opacity:1;fill-opacity:1;stroke-miterlimit:4;stroke-dasharray:none"
       d="M 0,398.75 0,0 l 400,0 0,398.75 z"
       id="path3472"
       inkscape:connector-curvature="0" />
  </g>
  <g
     inkscape:groupmode="layer"
     id="layer1"
     inkscape:label="Layer 1">
    <path
       style="fill:none;fill-rule:evenodd;stroke:#000000;stroke-width:1px;stroke-linecap:butt;stroke-linejoin:miter;stroke-opacity:1"
       d="m 51.971225,398.75 8.960556,-61.52915 5.973704,-24.49219 3.213689,-6.06288 6.547272,-7.60328 6.758475,-4.64645 7.180879,-4.01285 6.758475,-2.32322 7.814485,-1.68962 5.06886,-0.84481 0.84481,-5.70246 1.90082,-6.54727 4.01284,-5.06886 6.75848,-9.50411 4.85765,-9.7153 3.80164,-20.27543 1.47842,-17.31859 2.74563,-28.72351 1.90082,-19.00821 4.01284,-12.03854 1.68962,-2.53443 1.90082,-3.80164 -2.11202,-2.95683 3.59044,-8.02569 0,-3.37924 4.22405,-2.95683 2.74563,-7.81448 4.64645,-7.81449 6.96967,-7.81449 4.22405,-4.01284 1.68962,-0.84481 1.47842,0.4224 -0.21121,-3.379233 4.01285,-4.646451 5.91366,-5.913666 6.33607,-2.534428 8.02569,-2.74563 c 0,0 3.16804,0.633607 5.28006,-0.211202 2.11202,-0.84481 11.61613,0.211202 11.61613,0.211202 l 6.12487,0.633607 9.5041,2.956833 11.82733,5.068856 6.33607,3.590439 6.33607,4.435249 10.98252,14.784164 7.18088,13.30575 6.33607,14.99536 9.0817,20.48663 8.02569,16.47378 4.01284,10.56012 2.74563,7.18088 1.47842,5.91366 0,6.12487 -0.63361,1.47841 2.53443,4.43525 2.53443,5.28006 1.90082,5.91367 0.2112,4.64645 0,2.95683 1.68962,0 2.53443,-0.4224 -2.11202,2.11202 -3.16804,0.2112 -1.47841,1.05601 0.2112,1.68962 2.11202,0.42241 2.95683,0.6336 -3.16803,1.47842 c 0,0 -0.42241,1.26721 1.26721,1.47842 1.68962,0.2112 3.16804,0.2112 3.16804,0.2112 l 3.37923,-2.32323 -2.74563,3.59044 -3.59044,1.47842 -3.16803,0 -2.32323,1.90082 0.63361,1.90082 6.12487,0.84481 3.59044,2.74563 1.05601,4.64645 1.68962,9.0817 -3.59044,-11.61613 -3.37924,-2.95683 -3.37924,1.05601 -1.26721,4.64645 0.63361,4.01285 -1.26722,3.80164 -6.33607,8.02569 -1.90082,1.68962 1.90082,5.91366 15.41777,6.33607 4.22405,3.16804 8.44809,4.43525 6.96968,5.28006 7.81449,9.7153 2.11202,5.91367 1.47842,6.96967 0.4224,6.75848 2.74563,9.71531 2.74563,16.26258 0.42241,15.62897 1.26721,5.70246 0,13.30575 -0.2112,9.2929 0,0.42241 -115.73888,-0.21121 z"
       id="path3469"
       inkscape:connector-curvature="0" />
  </g>
  <g
     inkscape:groupmode="layer"
     id="layer5"
     inkscape:label="Layer 5">
    <path
       style="fill:#000025;fill-rule:evenodd;stroke:#000000;stroke-width:1px;stroke-linecap:butt;stroke-linejoin:miter;stroke-opacity:0;fill-opacity:1"
       d="m 51.744571,398.5388 7.180879,-44.56369 2.323226,-16.05138 2.323226,-9.71531 2.323225,-10.56012 1.003211,-4.59365 2.851232,-5.38566 5.49126,-6.54727 2.059223,-2.05922 8.553695,-5.70246 4.54085,-2.58723 7.275463,-2.68568 9.937529,-2.01357 2.69283,-0.31681 64.28108,-6.33149 7.76582,2.83751 2.68816,1.79211 -3.28554,2.83751 -0.89605,1.34409 5.07765,1.04539 -3.1362,6.57108 5.37634,4.77896 3.8829,4.77896 3.88291,5.97371 5.22699,8.0645 4.03225,5.82436 2.24014,-1.19474 4.33094,-5.67502 7.61647,-7.16844 4.03225,-3.88291 2.0908,-1.0454 1.79211,-3.58422 -4.48028,-5.22699 -0.59737,-5.07765 3.88291,-1.94146 -4.1816,-7.16844 -3.73356,-3.43488 4.48028,-6.27239 15.38229,-5.9737 -0.14935,-5.22699 2.53883,-3.43488 61.23046,20.60927 14.93426,5.97371 4.55495,3.50955 7.84049,4.18159 6.04837,4.62962 4.1816,4.33094 3.80823,4.77896 1.26942,1.79211 2.09079,5.30167 1.26941,8.28851 0.37336,5.451 2.76284,10.678 1.49342,8.13917 1.41876,7.16845 0.22401,15.53163 1.26942,6.27239 -0.44803,22.99876 -108.04937,-0.44803 -195.937496,0.29868 z"
       id="path3485"
       inkscape:connector-curvature="0" />
  </g>
  <g
     inkscape:groupmode="layer"
     id="layer4"
     inkscape:label="Layer 4"
     style="display:inline">
    <path
       style="fill:#000000;fill-rule:evenodd;stroke:#000000;stroke-width:1px;stroke-linecap:butt;stroke-linejoin:miter;stroke-opacity:1"
       d="m 110.24762,285.33435 2.11202,2.74563 -1.05601,4.85765 -1.68962,5.49126 0.63361,4.85766 2.11202,4.22404 -1.90082,1.68962 -5.70246,2.32323 c 0,0 -3.37924,0.2112 -4.22405,0 -0.84481,-0.2112 -4.224047,-0.84481 -4.224047,-0.84481 l 0,2.11202 0.422405,4.43525 2.534427,8.02569 2.534425,5.28006 4.43525,2.95683 5.70247,3.37924 5.91366,2.11202 2.11202,0 -4.22404,0.63361 -4.43525,2.53443 -3.37924,3.80164 -2.32322,3.16803 -4.43525,1.26722 -2.112027,0 4.646447,0.84481 3.80165,0.2112 0.4224,0.84481 -1.68962,2.95683 5.06886,-3.16804 2.53443,-1.68961 -4.22405,4.43525 0.4224,4.64645 c 0,0 -1.47841,2.74563 -1.68961,3.80164 -0.21121,1.05601 -0.84481,6.96968 -0.84481,6.96968 l 0.6336,4.64645 1.26722,4.01284 c 0,0 1.26721,3.16804 1.26721,4.01285 0,0.8448 -0.2112,6.75847 -0.2112,6.75847 l 1.47842,2.53443 3.16803,2.11202 1.68962,1.05601 -1.26722,-2.11202 0.42241,-4.01284 1.05601,-1.68962 -1.05601,-3.59044 2.53443,2.74563 2.95683,0.6336 3.37924,2.95684 6.33607,3.80164 5.28006,0.63361 5.06885,1.05601 2.32323,-0.63361 5.49126,-2.53443 -2.11203,-2.74563 c 0,0 -2.32322,-1.90082 -2.32322,-2.74563 0,-0.84481 -1.26722,-5.70246 -1.47842,-6.75847 -0.2112,-1.05601 -0.4224,-4.22405 -0.4224,-4.22405 l 0,-3.37924 2.95683,3.37924 5.06886,1.68962 5.28005,0.84481 2.74564,0 3.80164,-1.68962 -3.80164,-0.2112 -2.53443,-1.90082 -1.90082,-2.95684 -0.21121,-1.90082 1.05602,-0.2112 3.37923,-0.4224 2.95684,-1.68962 1.68961,-1.47842 1.05602,-2.53443 0.2112,-2.11202 0.2112,-1.26721 0,0 -2.74563,1.26721 c 0,0 -2.32323,0.84481 -3.16803,0.84481 -0.84481,0 -2.32323,0 -2.32323,0 l 1.68962,-2.32323 2.95683,-1.47841 c 0,0 1.05601,0.2112 2.32323,-1.68962 1.26721,-1.90082 1.26721,-0.42241 2.32322,-3.37924 1.05601,-2.95683 1.05601,-2.11202 1.05601,-2.95683 0,-0.84481 0.63361,-3.59044 1.26722,-5.49126 0.6336,-1.90082 1.68962,-4.43525 1.68962,-4.43525 l 0.2112,-4.85765 0.2112,-4.22405 0,-1.90082 -1.68962,0 -2.11202,1.47841 -1.47842,0 -0.4224,0 -1.90082,-1.68961 -0.84481,-2.95684 -0.63361,-5.70246 5.91367,-6.12487 1.47841,-4.43525 0.42241,-1.26721 0.6336,-4.85765 2.32323,-1.05602 0.84481,2.53443 -1.05601,3.16804 -1.05601,1.05601 4.01284,-2.95683 c 0,0 1.05601,-2.11203 1.05601,-3.16804 0,-1.05601 0.63361,-5.49126 0.63361,-5.49126 l -0.42241,-3.59044 -1.05601,-2.32322 -0.6336,-3.16804 2.53442,-3.59044 0.21121,-3.59044 0.2112,-1.68962 -2.53443,-0.95041 -2.64003,-2.85123 -1.68962,-12.88334 0.31681,-4.64645 -0.95041,-6.65288 1.37281,-3.59044 3.27364,-1.47841 -1.68962,-0.42241 -3.27364,-4.11844 -1.68962,-7.07528 -0.3168,-0.73921 -2.95683,-4.22405 -2.74563,-5.06885 -3.59044,-14.46736 -2.11203,-14.88977 -1.26721,-8.23689 -0.3168,-10.13771 0.528,-4.75205 1.68962,-1.90082 4.43525,-10.98252 0.2112,-3.16804 0,-2.32322 6.12487,-17.4242 11.61613,-12.56653 3.69604,-2.11203 3.69604,-2.64003 4.11844,-2.64003 4.85766,-2.42882 8.23689,-0.52801 7.28648,0 8.9761,2.53443 4.11844,1.68962 3.90725,2.32322 3.69604,2.85124 2.95683,2.21762 2.32323,2.53443 3.80164,4.32965 2.21762,3.90724 2.85123,5.70246 3.16804,6.86408 2.32323,4.96325 1.05601,4.54085 2.21762,6.33607 1.58402,5.49126 0.63361,4.64645 1.79522,9.39851 -0.10561,3.27363 0.10561,8.4481 -0.52801,2.95683 -3.37924,8.7649 -1.58402,8.44809 -0.4224,2.64003 -1.26721,4.11844 -1.58402,4.64646 -5.17446,7.81448 -0.95041,2.00642 -0.84481,3.90725 -0.63361,2.21762 0,3.37924 0.31681,1.37281 -1.47842,3.59044 -2.42882,2.42883 -1.90083,1.58402 3.59044,-0.1056 0.1056,1.37281 -0.8448,1.90082 c 0,0 -1.16162,0.21121 -1.16162,1.37282 0,1.16161 -0.4224,2.00642 -0.4224,2.00642 l -0.52801,4.64645 -2.21762,1.16161 -13.62255,5.17446 -3.80164,5.91367 2.11202,2.64003 3.06243,2.64002 1.26722,2.85124 1.37281,2.21762 -3.69604,2.64003 0.1056,4.43525 3.80164,4.32965 0.84481,2.00642 -0.84481,2.64003 -2.32322,1.05601 -6.75848,5.80806 -1.90082,2.11203 -0.6336,3.90724 1.05601,4.01284 0.528,-3.90724 c 0,0 1.90082,-1.47842 2.53443,-1.58402 0.63361,-0.1056 2.21763,-0.1056 2.21763,-0.1056 l 1.05601,2.00642 1.05601,2.95684 1.26721,2.00642 -0.3168,3.80164 c 0,0 -0.73921,2.85123 -0.84481,3.48484 -0.1056,0.63361 -0.2112,3.27364 -0.2112,3.27364 l 1.26721,3.80164 1.37282,1.37281 2.11202,2.95684 c 0,0 -0.52801,-2.11203 -0.52801,-2.74563 0,-0.63361 -0.528,-3.06244 0,-3.48484 0.52801,-0.42241 3.27364,-1.05601 3.27364,-1.05601 l 1.79522,1.05601 0.95041,1.68962 -0.63361,8.65929 -2.95683,5.06886 -1.68962,4.85765 c 0,0 -0.84481,2.32323 -0.84481,3.37924 0,1.05601 -0.4224,5.70246 -0.4224,5.70246 0,0 0,2.95683 0,3.80164 0,0.84481 0,3.16804 0,3.16804 l 0,6.12487 -2.11202,2.32322 0,4.64645 -0.63361,7.39208 1.68962,3.37924 0.84481,1.26722 69.69677,0 -0.84481,-3.80165 -0.42241,-3.16803 -2.95683,-1.47842 -4.43525,-3.37924 -6.12487,-4.01284 9.0817,4.22405 7.39208,2.95683 6.54728,0 5.49126,-0.63361 -7.81449,-1.26721 -5.91366,-1.90082 -4.64646,-3.16804 -2.32322,-2.32322 6.75847,2.53443 5.91367,0.6336 1.47841,0 3.16804,-0.84481 c 0,0 -1.47842,0 -3.80164,0 -2.32323,0 -5.49126,-0.6336 -6.33607,-1.05601 -0.84481,-0.4224 -2.32323,-1.05601 -4.22405,-2.53443 -1.90082,-1.47841 -2.32322,-1.26721 -4.22405,-3.59044 -1.90082,-2.32322 -1.90082,0 -3.80164,-4.64645 -1.90082,-4.64645 -1.47841,-2.95683 -2.53443,-5.91366 -1.05601,-2.95684 -1.26721,-5.06886 -1.26721,-5.06886 l -0.2112,-2.11202 4.85765,9.71531 c 0,0 3.16804,2.53442 3.80164,2.74563 0.63361,0.2112 2.74563,0.2112 3.59044,0.6336 0.84481,0.42241 1.47842,0.42241 1.47842,0.42241 0,0 -4.64645,-2.32323 -5.49126,-3.37924 -0.84481,-1.05601 -2.74563,-2.95683 -2.74563,-4.22405 0,-1.26721 -1.05601,-4.85765 -1.05601,-6.12486 0,-1.26722 0,-6.12487 0,-6.12487 0,0 3.16803,-6.54727 4.85765,-7.39208 1.68962,-0.84481 8.23689,-5.28006 8.23689,-5.28006 l 0.63361,-9.0817 1.47842,-6.12487 -3.80165,-7.81449 4.22405,4.43525 7.81449,1.05601 c 0,0 -5.70247,-1.68961 -5.91367,-2.53442 -0.2112,-0.84481 -3.80164,-9.71531 -3.80164,-9.71531 l 2.95683,-6.12487 4.01285,-6.75847 1.68961,-6.12487 2.32323,-4.85765 -2.11202,-3.59044 -5.50362,-2.03278 -1.94146,-6.04837 2.76284,-2.46415 5.00298,-6.19772 1.34408,-3.6589 -0.0747,-2.53882 -0.22401,-2.83751 1.26941,-4.48028 3.21087,-1.0454 2.24013,1.64277 0.89606,1.12007 2.16547,5.89903 0.89605,3.43488 0.67204,1.71744 -2.01612,-11.20069 -2.0908,-3.1362 -2.98685,-1.34408 c 0,0 -1.94145,0 -2.83751,-0.14934 -0.89605,-0.14934 -3.36021,-2.24014 -3.36021,-2.24014 l 1.41876,-1.94145 c 0,0 1.64277,-0.37336 2.24014,-0.37336 0.59737,0 2.46415,-0.14934 2.46415,-0.14934 0,0 1.49343,-0.59737 2.01613,-0.89606 0.52269,-0.29868 1.94145,-1.71744 1.94145,-1.71744 l 1.41875,-1.19474 c 0,0 -2.53882,1.26941 -2.98685,1.26941 -0.44803,0 -2.24014,-0.29868 -2.53882,-0.44803 -0.29869,-0.14934 -1.71744,-1.26941 -1.71744,-1.26941 l 2.09079,-0.59737 0.67205,-0.59737 -4.33094,-1.34408 -0.97073,-1.71744 c 0,0 1.12007,-1.26941 1.71744,-1.26941 0.59737,0 2.01613,-0.14935 2.38948,-0.14935 0.37336,0 1.49343,-0.29868 1.79212,-0.59737 0.29868,-0.29868 0.89605,-0.89605 0.89605,-0.89605 0,0 -1.64277,0 -2.09079,0.14934 -0.44803,0.14934 -1.5681,0.14934 -1.5681,0.14934 l -0.29869,-0.14934 -0.37335,-7.31779 -1.34409,-5.89903 -4.10692,-7.5418 c 0,0 -1.94145,-2.01613 -1.94145,-2.31481 0,-0.29869 0.59737,-2.16547 0.59737,-2.16547 0,0 0.29868,1.12007 0.22401,0.5227 -0.0747,-0.59737 0.37336,-6.64575 0.37336,-6.64575 l -0.82139,-2.76283 -4.48027,-12.47011 -3.73357,-8.28852 -4.70429,-11.05135 -6.4964,-13.73952 -11.87274,-27.47904 -2.46415,-5.00297 -5.74969,-10.37931 -7.69115,-9.25924 -1.64277,-3.061528 -9.85661,-5.600347 -9.85661,-5.002977 -12.24609,-4.181593 -5.37634,-0.896056 -9.78194,-0.970727 -5.74969,0.448028 -5.00297,0.373357 -7.61648,2.762838 -6.12304,2.016125 -9.55793,10.677996 0.29869,3.360204 -1.71744,-0.522695 -2.38949,1.792115 -7.09377,7.09377 -3.65889,4.10692 -3.80824,6.34706 -3.06152,8.81122 -4.33094,2.91218 0.0747,3.43488 -3.58422,8.0645 2.16547,3.28553 -2.98685,4.62962 -1.86679,3.1362 -0.59737,3.50955 -2.09079,6.79509 -1.71744,16.72637 -2.31481,23.1481 -2.01613,24.56686 -4.03225,20.90796 -4.03225,7.69115 -1.86678,3.13619 -5.82436,7.84049 -4.03225,5.07765 -0.82139,2.38948 -0.74671,3.13619 -0.67204,2.98686 z"
       id="path3482"
       inkscape:connector-curvature="0" />
  </g>
  <g
     inkscape:groupmode="layer"
     id="layer3"
     inkscape:label="Layer 3">
    <path
       style="fill:#ff9955;fill-rule:evenodd;stroke:#000000;stroke-width:1px;stroke-linecap:butt;stroke-linejoin:miter;stroke-opacity:0"
       d="m 154.70571,177.72676 0.4224,-4.32965 1.79522,-2.74563 1.47842,-3.27363 2.32322,-5.70247 0.73921,-3.06243 0,-3.69604 1.47842,-4.75205 1.90082,-5.06886 2.64003,-7.49768 4.11844,-4.54085 4.01285,-4.75205 3.59044,-3.59044 3.90724,-2.32323 4.01285,-3.06243 3.90724,-2.32323 4.96325,-2.32323 5.70247,-0.3168 5.70246,0 3.06243,0 4.85766,1.16161 4.01284,1.47842 5.91367,2.21763 7.07527,4.75205 c 0,0 3.09764,2.92163 4.54085,4.32965 l 4.43526,4.85765 c 0,0 2.11202,6.23047 4.11844,8.65929 l 2.00642,4.64646 3.06243,6.01926 2.64003,10.24332 1.58402,5.59686 1.68962,5.06885 1.68962,9.82091 0.1056,4.54085 0.3168,7.81449 -1.05601,4.43525 -2.64003,7.60328 -0.73921,2.53443 -2.32322,10.87692 -2.64003,7.28648 -2.53443,4.32965 -3.59044,4.85765 -9.08169,7.28648 -3.59045,2.53443 -9.2929,2.95683 -5.17446,1.05601 -8.13129,0.42241 -6.96967,0 -12.35534,-1.58402 -7.60328,-3.69604 -3.16804,-2.21763 -4.11845,-3.59043 -5.38565,-5.28006 -2.74563,-3.59044 -3.69605,-6.65288 -1.68961,-6.44167 -1.47842,-6.33607 -1.05601,-6.75847 -1.37282,-10.45452 -1.05601,-7.18088 -0.3168,-7.92008 z"
       id="path3475"
       inkscape:connector-curvature="0"
       sodipodi:nodetypes="cccccccccccccccccccccccccccccccccccccccccccccccccccccccccccccc" />
    <path
       style="fill:#eb8541;fill-rule:evenodd;stroke:#000000;stroke-width:1px;stroke-linecap:butt;stroke-linejoin:miter;stroke-opacity:0;fill-opacity:1"
       d="m 167.69465,235.4906 2.11202,7.39208 2.95684,4.01284 2.32322,0 -3.80164,1.90083 -1.26721,3.16803 0.6336,6.54727 -0.2112,5.06886 1.26721,8.8705 0.42241,3.80164 2.11202,2.74563 7.18088,2.95683 1.90082,0.84481 1.90082,1.26721 -2.95683,2.53443 -1.26721,1.47842 4.64645,1.26721 -2.53443,5.28006 -0.63361,1.26721 5.70247,4.85766 4.22404,5.28006 5.91367,8.87049 4.22405,6.96968 2.74563,3.37924 1.90082,-0.84481 4.22404,-6.12487 7.81449,-7.60328 4.22405,-3.80164 2.11202,-0.84481 1.47842,-2.95684 -2.53443,-3.37923 -2.11203,-2.74563 -0.4224,-4.22405 3.80164,-2.53443 -3.59044,-5.91366 -4.22404,-4.01285 3.80164,-6.33607 5.70246,-2.11202 5.91367,-2.53443 4.22404,-1.47842 0.2112,-5.70246 2.53443,-3.59044 0.2112,-2.32322 -3.37923,0.2112 3.37923,-3.37924 1.90083,-4.22404 -0.63361,-5.49127 2.32322,-7.39208 -1.58401,1.90082 -11.93293,9.39851 -10.24332,3.06243 -4.75205,0.95041 -14.57296,0.63361 -12.35534,-1.68962 -8.44809,-4.11845 -5.28006,-3.90724 z"
       id="path3477"
       inkscape:connector-curvature="0" />
    <path
       style="fill:none;fill-rule:evenodd;stroke:#000000;stroke-width:1px;stroke-linecap:butt;stroke-linejoin:miter;stroke-opacity:1"
       d="m 131.27215,250.75148 -5.227,10.1553 -4.18159,5.07765 -2.68816,3.58422 -3.58423,4.92831 -0.74671,5.07764 0.14934,2.53883 0.14934,1.49343 3.58423,-5.52568 4.48028,-3.88291 5.07764,-2.83751 1.79211,-1.0454 0.74672,-4.77896 -0.29869,-4.48028 0.74672,-5.9737 z"
       id="path3479"
       inkscape:connector-curvature="0" />
  </g>
  <g
     inkscape:groupmode="layer"
     id="layer6"
     inkscape:label="Layer 6">
    <path
       style="fill:#ffffff;fill-rule:evenodd;stroke:#000000;stroke-width:1px;stroke-linecap:butt;stroke-linejoin:miter;stroke-opacity:0"
       d="m 207.82309,337.39572 -1.47841,1.58402 0.6336,2.42883 1.37282,0 1.05601,-0.73921 0.52801,-1.58402 -0.21121,-1.47841 -1.47841,-0.10561 z"
       id="path4288"
       inkscape:connector-curvature="0" />
    <path
       style="fill:#ffffff;fill-rule:evenodd;stroke:#000000;stroke-width:1px;stroke-linecap:butt;stroke-linejoin:miter;stroke-opacity:0"
       d="m 206.34468,390.61871 -1.90082,0.95041 -0.52801,0.95041 -0.3168,1.05601 0.1056,1.58402 1.47841,0.84481 1.37282,-0.3168 2.00642,-1.05602 0.42241,-1.47841 -0.21121,-1.58402 -1.90082,-0.73921 z"
       id="path4290"
       inkscape:connector-curvature="0" />
  </g>
</svg>
