<?xml version="1.0" encoding="UTF-8" standalone="no"?>
<!-- Created with Inkscape (http://www.inkscape.org/) -->

<svg
   xmlns:dc="http://purl.org/dc/elements/1.1/"
   xmlns:cc="http://creativecommons.org/ns#"
   xmlns:rdf="http://www.w3.org/1999/02/22-rdf-syntax-ns#"
   xmlns:svg="http://www.w3.org/2000/svg"
   xmlns="http://www.w3.org/2000/svg"
   xmlns:sodipodi="http://sodipodi.sourceforge.net/DTD/sodipodi-0.dtd"
   xmlns:inkscape="http://www.inkscape.org/namespaces/inkscape"
   version="1.1"
   id="svg2"
   width="594.56488"
   height="625.08105"
   viewBox="0 0 594.56488 625.08105"
   sodipodi:docname="stormtrooper_neha.svg"
   inkscape:version="0.92.1 r">
  <metadata
     id="metadata8">
    <rdf:RDF>
      <cc:Work
         rdf:about="">
        <dc:format>image/svg+xml</dc:format>
        <dc:type
           rdf:resource="http://purl.org/dc/dcmitype/StillImage" />
        <dc:title></dc:title>
      </cc:Work>
    </rdf:RDF>
  </metadata>
  <defs
     id="defs6" />
  <sodipodi:namedview
     pagecolor="#ffffff"
     bordercolor="#666666"
     borderopacity="1"
     objecttolerance="10"
     gridtolerance="10"
     guidetolerance="10"
     inkscape:pageopacity="0"
     inkscape:pageshadow="2"
     inkscape:window-width="1362"
     inkscape:window-height="706"
     id="namedview4"
     showgrid="false"
     inkscape:zoom="0.36875"
     inkscape:cx="-108.63825"
     inkscape:cy="260.11255"
     inkscape:window-x="0"
     inkscape:window-y="25"
     inkscape:window-maximized="0"
     inkscape:current-layer="svg2"
     fit-margin-top="0"
     fit-margin-left="0"
     fit-margin-right="0"
     fit-margin-bottom="0" />
  <g
     id="g4487"
     transform="translate(-45.435185,-5.8528011)">
    <path
       style="fill:#333333;fill-opacity:1"
       d="m 164.5,629.413 c -7.23272,-1.24578 -16.93648,-5.0047 -19.52327,-7.56268 -0.8122,-0.80316 -4.40173,-3.43267 -7.97673,-5.84335 -3.575,-2.41069 -7.07426,-5.08595 -7.77613,-5.94502 -1.91774,-2.34726 -7.84952,-14.20795 -8.53809,-17.07203 -0.3319,-1.38054 -1.85947,-3.28433 -3.39461,-4.23064 -1.53515,-0.94631 -5.04117,-3.74786 -7.79117,-6.22565 -2.75,-2.4778 -7.7,-5.93426 -11,-7.68103 -3.3,-1.74676 -7.332402,-4.27899 -8.960893,-5.62716 -2.594648,-2.14803 -3.60676,-2.37532 -8.182363,-1.83755 -4.560651,0.53602 -5.297985,0.3726 -5.826055,-1.2912 -0.332522,-1.04768 -0.306817,-3.18554 0.05712,-4.75078 0.36394,-1.56525 0.877246,-15.33341 1.140679,-30.59591 0.263433,-15.2625 0.868167,-27.75 1.343854,-27.75 0.475687,0 0.605864,-0.675 0.289281,-1.5 -0.410543,-1.06986 0.100289,-1.50439 1.781385,-1.51531 C 82.031696,499.97242 82.201969,499.77677 81,499 c -1.234925,-0.79807 -1.135502,-0.97208 0.562607,-0.98469 1.838569,-0.0136 2.066308,-0.63987 2.096673,-5.76531 0.01874,-3.1625 0.378182,-7.81293 0.798767,-10.33429 0.57361,-3.43871 0.362034,-5.36295 -0.846673,-7.70034 -2.777057,-5.37023 -2.327159,-5.91723 4.138626,-5.0318 27.68786,3.79158 42.69893,6.47119 44.36992,7.92044 2.01902,1.75108 10.41917,3.29888 12.13808,2.23654 0.61424,-0.37963 0.7545,-0.16979 0.33749,0.50494 -0.48851,0.79042 0.41361,1.15451 2.86059,1.15451 1.96576,0 6.37982,0.71109 9.80902,1.5802 19.46841,4.93416 18.48837,4.72963 16.7349,3.49263 -3.82734,-2.70003 -33.17025,-10.31715 -50.23768,-13.04119 -7.00572,-1.11815 -14.52499,-2.64877 -16.70948,-3.40139 -2.18449,-0.75262 -5.1325,-1.14652 -6.55112,-0.87533 -1.418627,0.27119 -7.849361,-0.26121 -14.29052,-1.18311 C 68.134909,464.98462 70,466.16107 70,457.34625 70,444.4909 66.593527,425.3817 60.579441,404.5 57.741527,394.64639 56.400143,389.27471 52.4821,372.07358 c -1.431479,-6.28454 -3.253655,-12.98441 -4.049281,-14.88861 -1.421664,-3.40252 -1.381854,-3.53902 2.310295,-7.92172 6.244054,-7.41188 6.173664,-7.22871 5.09709,-13.26325 -0.904601,-5.07057 -1.450332,-7.02425 -3.910686,-14 -1.137707,-3.2257 -5.564958,-18.71902 -6.316795,-22.10585 -0.508961,-2.29274 -0.09038,-2.82595 3.483663,-4.43761 l 4.062131,-1.83177 -0.829038,-9.56238 c -1.355734,-15.63747 -0.622624,-72.9955 1.124596,-87.98768 2.156629,-18.50515 7.788106,-41.98036 10.573098,-44.07471 0.365686,-0.275 0.942537,-1.63707 1.281892,-3.02682 0.850973,-3.48496 6.936139,-10.3655 12.53046,-14.16828 2.563261,-1.74239 7.810475,-5.71773 11.660475,-8.83408 3.85,-3.11635 10.6,-7.77897 15,-10.36138 8.16509,-4.79218 14.48354,-9.68356 14.52074,-11.24113 C 119.05148,103.08142 131,91.525414 131,92.78258 c 0,0.59101 -0.57875,1.669206 -1.28612,2.395991 C 128.15807,96.777099 127.72811,101 129.12117,101 c 0.54827,0 0.75424,-0.39257 0.4577,-0.87238 -0.29653,-0.479809 1.02106,-1.125568 2.92799,-1.435021 1.90693,-0.309452 9.4355,-3.463239 16.73015,-7.008416 C 170.55175,81.325283 200.07502,69.518948 211,66.98521 c 5.19298,-1.204364 6.25359,-2.04142 19,-14.995153 7.425,-7.545772 14.625,-14.270216 16,-14.943209 1.375,-0.672992 -0.875,2.078652 -5,6.114765 -12.13751,11.87597 -17.05998,18.066344 -15.2527,19.181426 0.41398,0.255428 5.7027,-0.769949 11.7527,-2.278615 25.08752,-6.255985 46.98298,-9.72235 67.01244,-10.609033 C 312.2056,49.114823 319.625,48.490082 321,48.067077 c 3.71582,-1.143134 29.45937,1.517787 37.45132,3.871067 3.82322,1.125773 9.67322,2.531498 13,3.123832 3.32677,0.592334 11.74625,2.863749 18.70994,5.047588 14.74939,4.625459 27.66927,12.06083 34.16682,19.662944 7.89605,9.238355 15.99311,16.082551 23.53987,19.897537 4.167,2.106475 8.18354,4.392455 8.92564,5.079955 0.7421,0.6875 1.67832,1.25 2.08049,1.25 0.40218,0 2.50753,1.73842 4.67857,3.86316 2.17104,2.12473 12.49735,9.55387 22.94735,16.5092 10.45,6.95532 21.25,14.1691 24,16.0306 16.37756,11.08615 42.53343,27.87914 52,33.38582 l 11,6.39868 14.5,-0.56355 c 7.975,-0.30995 15.5125,-0.85462 16.75,-1.21036 1.27326,-0.36603 2.25,-0.20914 2.25,0.36141 0,1.05997 -2.44549,1.86688 -8.10218,2.67338 -7.47564,1.06584 -31.78609,3.69664 -37.89782,4.10119 -5.63627,0.37308 -6.10136,0.28137 -3.5,-0.69013 1.65,-0.61621 3.7875,-1.8064 4.75,-2.64488 1.05714,-0.92092 1.75,-1.07964 1.75,-0.40089 0,0.61798 0.68465,0.86087 1.52145,0.53977 1.94827,-0.74762 -1.25682,-3.67909 -11.02145,-10.08055 -52.59078,-34.47723 -83.38701,-51.21134 -94.33889,-51.26203 -2.13651,-0.01 -2.29061,0.31367 -1.78088,3.73918 0.30691,2.0625 1.92192,7.05913 3.5889,11.10361 1.66698,4.04449 3.04075,8.09449 3.05283,9 0.0121,0.90552 0.97659,3.67139 2.14335,6.14639 1.16676,2.475 2.45695,6.525 2.86709,9 0.41013,2.475 1.92063,8.9452 3.35665,14.37822 1.43602,5.43303 2.61095,12.30043 2.61095,15.2609 0,3.25181 0.77932,7.06083 1.9686,9.62178 1.08272,2.3315 2.62773,6.7141 3.43334,9.7391 1.92504,7.22832 5.06308,16.13373 12.33312,35 7.0851,18.38631 14.48807,39.69589 14.76455,42.5 0.22325,2.26426 0.71294,3.73932 3.81772,11.5 2.48295,6.20636 4.03654,7.0083 4.49094,2.31817 0.27655,-2.85434 -1.52768,-8.94888 -6.163,-20.81817 -2.86692,-7.34107 -8.46881,-26.14048 -9.1571,-30.73035 -0.43868,-2.92532 -0.28862,-4.77494 0.42308,-5.2148 1.26057,-0.77908 1.30521,-0.66176 3.59398,9.44515 0.93412,4.125 3.00259,10.50043 4.59659,14.16761 1.594,3.66719 2.89818,7.60469 2.89818,8.75 0,1.49174 0.63819,2.08345 2.25,2.08613 1.2375,0.002 3.7274,0.9045 5.53311,2.00544 2.55411,1.55722 6.88404,2.3311 19.5,3.48518 8.91929,0.81592 18.01689,1.92774 20.21689,2.47071 2.2,0.54297 6.25,0.99498 9,1.00447 2.75,0.009 8.375,0.48285 12.5,1.05191 13.50559,1.86318 51.07308,5.97855 54.57566,5.97855 1.88339,0 3.42434,0.45 3.42434,1 0,1.42336 -8.40836,1.23688 -19.75658,-0.43817 -14.05601,-2.07472 -34.0307,-3.51316 -55.24342,-3.97825 -10.175,-0.22308 -20.525,-0.8553 -23,-1.40493 -2.475,-0.54963 -8.6625,-1.31245 -13.75,-1.69515 -11.06467,-0.83233 -11.21437,-0.56762 -5.38196,9.5165 4.1779,7.22351 3.08496,6.84931 16.13196,5.52322 l 6.5,-0.66065 -3.75,2.26527 c -2.0625,1.2459 -3.75,2.57172 -3.75,2.94627 0,3.27094 12.42436,4.86166 38.36933,4.9125 12.02813,0.0236 22.33884,0.33303 22.91271,0.6877 0.57386,0.35466 2.43266,0.98232 4.13067,1.3948 1.69801,0.41247 -10.70617,0.67816 -27.56484,0.59042 -28.84105,-0.1501 -30.59708,-0.0567 -29.72036,1.58012 0.51248,0.95681 2.38094,2.46836 4.15213,3.35901 4.85691,2.4423 15.70971,9.79795 15.71538,10.65134 0.003,0.4125 -0.44502,0.75 -0.99502,0.75 -1.69188,0 -1.10548,1.73915 0.75,2.22437 0.9625,0.2517 1.975,0.43726 2.25,0.41236 1.03397,-0.0936 4.87876,3.75043 4.4481,4.44725 -0.70582,1.14204 -5.4316,-1.42608 -5.4403,-2.95642 -0.006,-1.06139 -0.32437,-1.10972 -1.40457,-0.21324 -1.45362,1.20641 -1.04566,5.08568 0.53484,5.08568 0.49765,0 2.58266,1.08056 4.63337,2.40124 2.05733,1.32495 6.72192,2.90126 10.40684,3.51679 6.06337,1.01282 17.13306,5.00744 14.02206,5.06001 -0.71481,0.0121 -2.53036,-0.61446 -4.03455,-1.39231 -4.89652,-2.53209 -9.91047,-2.98304 -12.71749,-1.14381 -2.48816,1.6303 -2.67848,1.56939 -8.84518,-2.83108 C 563.83271,343.49316 558,340.87722 558,342.40691 c 0,0.34304 2.19953,3.65433 4.88784,7.3584 5.43855,7.49347 11.11216,16.8188 11.11216,18.2643 0,0.51788 2.475,6.1097 5.5,12.42627 3.025,6.31658 5.5,11.98556 5.5,12.59774 0,1.72291 -2.29434,0.54862 -2.56774,-1.31422 -0.77528,-5.28233 -10.41617,-20.67124 -20.73208,-33.0928 -1.7601,-2.11937 -3.35018,-4.25687 -3.53351,-4.75 -0.18334,-0.49313 -0.76134,-0.8966 -1.28445,-0.8966 -0.56145,0 -0.68285,2.02219 -0.29632,4.93598 1.08151,8.15284 -2.83221,35.39987 -8.70335,60.5921 -2.70549,11.60886 -4.69975,14.07746 -11.56894,14.32059 -2.78672,0.0986 -9.24744,1.52303 -14.35717,3.16533 -5.10972,1.6423 -10.07337,2.986 -11.03033,2.986 -3.48313,0 -23.15619,9.02267 -31.68093,14.52985 -4.80985,3.10728 -12.79518,9.59306 -17.74518,14.41284 -4.95,4.81979 -10.8,9.79244 -13,11.05035 -9.97331,5.7025 -17.5,11.37546 -17.5,13.18998 0,0.44485 2.3625,-0.14342 5.25,-1.30728 2.8875,-1.16386 7.275,-2.8953 9.75,-3.84764 2.475,-0.95234 6.075,-2.42336 8,-3.26893 1.925,-0.84557 5.86611,-2.3692 8.75801,-3.38585 2.89191,-1.01665 5.49531,-2.59609 5.78533,-3.50988 0.29003,-0.91379 3.32392,-4.51938 6.74199,-8.01243 L 481.5,462.5 l 6.5,-0.16368 6.5,-0.16369 -6.5,2.23341 c -5.96222,2.04863 -6.77042,2.68159 -9.76844,7.6503 -2.94619,4.88283 -4.12836,5.83443 -11.99055,9.65195 -8.11985,3.94261 -12.29076,7.3225 -7.48559,6.06592 1.11275,-0.29099 2.61203,-0.16515 3.33173,0.27965 0.90932,0.56199 0.40918,1.00764 -1.6393,1.46073 -4.14054,0.9158 -17.83813,5.01728 -24.80318,7.42684 -7.37417,2.55109 -11.68132,5.20404 -18.73321,11.53855 -8.08044,7.25842 -9.91146,8.63186 -9.91146,7.43456 0,-0.58623 1.0125,-1.91177 2.25,-2.94565 1.2375,-1.03387 5.2875,-4.403 9,-7.48695 6.3053,-5.23778 8.04891,-7.48194 5.81312,-7.48194 -0.51528,0 -5.53788,2.25 -11.16134,5 -9.29274,4.54436 -10.85988,5 -17.19711,5 -3.83495,0 -8.64625,-0.50143 -10.69179,-1.11429 -3.60898,-1.08127 -3.89841,-0.97019 -9.77039,3.75 -9.26081,7.44431 -26.66475,16.96703 -42.20921,23.09516 -7.7183,3.0428 -14.03718,6.03564 -14.04195,6.65075 -0.005,0.61511 -1.4831,2.69338 -3.28516,4.61838 -1.80207,1.925 -6.99963,8.11787 -11.55013,13.76193 -10.75066,13.3342 -10.93172,13.51789 -22.65604,22.98456 -22.70357,18.33174 -30.01254,24.52051 -30.24243,25.60738 -0.13333,0.63037 0.59292,2.22401 1.61389,3.54142 l 1.85632,2.39528 6.31752,-3.89528 c 7.70426,-4.75032 22.983,-18.20604 29.58986,-26.05926 12.02183,-14.2897 23.89054,-23.2125 34.88449,-26.22588 2.18919,-0.60004 5.33035,-1.99233 6.98035,-3.09398 4.17708,-2.78888 5.58552,-2.53037 1.72632,0.31685 -1.73923,1.28317 -9.24869,8.48317 -16.68769,16 C 309.44439,578.51196 303.23687,584 302.07991,584 c -1.06329,0 -2.07876,0.5946 -2.25659,1.32133 C 299.50815,586.60937 286.62778,598 285.48647,598 c -0.31557,0 -1.71159,1.05505 -3.10226,2.34456 -1.39068,1.28951 -4.28394,3.42701 -6.42946,4.75 -2.95652,1.82308 -3.90747,3.0589 -3.92785,5.10455 -0.0186,1.86096 -1.03612,3.45457 -3.2769,5.13194 -4.46042,3.33892 -9.08148,5.57938 -11.35175,5.50375 -1.04404,-0.0348 -7.29825,1.78483 -13.89825,4.04358 -6.6,2.25874 -12.7875,4.11014 -13.75,4.11421 -3.86749,0.0164 -1.27011,-2.09268 7.96462,-6.46721 5.34304,-2.53102 10.03626,-5.1223 10.42939,-5.7584 0.39313,-0.6361 -0.18379,-2.41848 -1.28206,-3.96085 -2.30434,-3.23615 -3.15006,-2.99477 -10.86711,3.10157 -2.50102,1.97576 -6.4357,4.44259 -8.74373,5.48184 l -4.19642,1.88955 -3.27735,-2.47694 c -3.59934,-2.72031 -5.79695,-2.56459 -11.42818,0.80979 -9.20996,5.51885 -12.59063,7.30702 -15.5679,8.2345 -4.26935,1.32998 -19.3885,1.09827 -28.28126,-0.43344 z m 12.5,-4.37503 c 2.34933,-0.71671 2.37946,-0.80852 0.5,-1.52337 -12.12518,-4.61182 -20.09385,-7.81334 -24.7598,-9.9476 -7.08253,-3.23962 -8.73456,-3.25435 -5.72524,-0.0511 2.15133,2.28998 15.37142,10.50026 18.98504,11.79057 2.15071,0.76795 8.07666,0.62329 11,-0.26853 z m 10.46355,-1.94625 c 1.73407,-0.67799 1.6172,-0.85063 -1,-1.4772 -1.62995,-0.39022 -3.86355,-0.9426 -4.96355,-1.22751 -1.62671,-0.42134 -1.72003,-0.32201 -0.5,0.53217 1.01513,0.71072 1.09594,1.05514 0.25,1.06551 -0.6875,0.008 -1.25,0.46531 -1.25,1.01531 0,1.15823 4.59146,1.21465 7.46355,0.0917 z m -14.56443,-7.71327 C 171.51977,613.71643 158.48878,607 156.64354,607 c -0.56424,0 1.46072,1.49735 4.4999,3.32745 3.03918,1.8301 6.60033,4.0801 7.91367,5 3.25035,2.27663 5.71629,2.30937 3.84201,0.051 z m 85.05141,-21.09827 c 27.75399,-20.6622 50.49841,-48.44706 52.62387,-64.28596 0.56853,-4.23663 0.26174,-5.01164 -5.35246,-13.52177 -3.27556,-4.96515 -9.19082,-12.16515 -13.14502,-16 -8.32708,-8.07572 -11.56765,-9.21575 -26.65177,-9.37602 -10.04527,-0.10674 -19.6197,2.46394 -28.3193,7.60357 l -4.60585,2.72109 7,1.18918 c 3.85,0.65405 9.99448,1.50066 13.65439,1.88135 6.45085,0.67099 6.82614,0.58229 12.26942,-2.89973 5.45347,-3.48854 8.57619,-4.4853 8.57619,-2.73748 0,0.46992 -3.1193,3.62667 -6.93177,7.015 -7.32073,6.50628 -20.64875,23.39587 -24.57229,31.13861 -1.28273,2.53134 -2.64508,6.27005 -3.02745,8.30825 -0.63634,3.392 -2.01939,5.46616 -2.99458,4.49097 -0.52977,-0.52977 3.938,-14.47784 6.20763,-19.37975 1.00015,-2.16012 3.50402,-6.17749 5.56416,-8.92749 2.21028,-2.95042 3.74746,-6.13244 3.75,-7.76261 0.004,-2.40018 -0.75004,-3.09948 -5.7457,-5.33044 -6.46685,-2.88795 -12.22705,-2.77252 -17.5774,0.35225 -3.02495,1.76667 -7.77388,9.94038 -12.37607,21.30132 -5.52189,13.6313 -5.28774,13.44591 -4.97561,3.93948 0.2476,-7.54084 0.79544,-9.70525 4.85492,-19.18079 2.51671,-5.87444 6.65289,-13.41194 9.1915,-16.75 4.24075,-5.57622 4.43388,-6.06921 2.37758,-6.06921 -1.23096,0 -5.83964,1.17806 -10.24151,2.61791 -6.99888,2.28933 -8.71823,3.35783 -13.69861,8.51306 -7.35695,7.61525 -15.40102,19.79712 -21.3743,32.36903 -4.72539,9.9455 -4.75605,9.98215 -5.62588,6.72531 -1.44528,-5.41144 3.5112,-19.73333 11.57469,-33.44541 1.52663,-2.59605 2.52674,-5.1229 2.22247,-5.61521 -0.699,-1.131 -7.26083,-2.23275 -9.09834,-1.52764 -1.69696,0.65119 -2.88922,5.55278 -2.61328,10.74369 0.14647,2.75552 -0.36155,4.40977 -1.75211,5.70527 -2.56475,2.38943 -3.13805,0.98858 -3.13805,-7.6678 0,-9.30377 -0.91113,-9.95612 -15.1283,-10.83163 -10.18253,-0.62704 -34.58253,0.45121 -45.3717,2.00501 -5.97561,0.86058 -11.5,2.60633 -11.5,3.63409 0,0.5 0.9935,0.59377 2.20778,0.20837 2.90534,-0.92212 26.57226,-0.89509 34.59094,0.0395 9.63231,1.12267 7.38396,2.93363 -4.37818,3.52645 -16.66572,0.83996 -22.84453,5.05685 -20.99031,14.32539 0.3493,1.74604 1.02813,5.5117 1.50851,8.36814 0.48038,2.85644 1.21325,5.78144 1.62859,6.5 0.41534,0.71856 -0.44239,0.21553 -1.90608,-1.11784 C 113.19756,535.74231 112,534.25098 112,533.76161 c 0,-0.48937 -1.21433,-3.44843 -2.69852,-6.57569 -2.93643,-6.1872 -3.07281,-6.63704 -3.936,-12.98282 -0.51003,-3.74949 -0.95273,-4.37055 -3.47499,-4.875 -2.941434,-0.58829 -3.909022,-2.75045 -1.64049,-3.66582 2.68205,-1.08223 -5.024946,-0.55256 -9.75,0.67008 l -5,1.29378 -0.619875,19.93693 C 84.539194,538.52838 83.912588,550.3125 83.487669,553.75 L 82.715087,560 H 93.357544 C 99.210895,560 104,559.74542 104,559.43426 c 0,-0.31116 -0.39561,-1.32366 -0.87912,-2.25 C 101.60514,554.28035 101.19777,543 102.60864,543 c 0.67994,0 1.76222,1.6875 2.40506,3.75 5.51563,17.69638 22.5023,37.79511 39.4863,46.72043 2.75,1.44517 7.07391,3.90502 9.6087,5.46634 6.92229,4.26384 8.55897,4.57008 9.94739,1.86129 0.64784,-1.26393 3.67727,-5.5989 6.73207,-9.63325 4.43583,-5.85824 5.26802,-7.51631 4.13301,-8.23469 -0.78164,-0.49472 -2.13309,-0.90639 -3.00322,-0.91481 -1.51441,-0.0147 -13.09356,-11.87315 -15.31531,-15.6848 -0.58684,-1.00678 -1.12121,-4.08051 -1.18748,-6.83051 -0.0663,-2.75 -0.38596,-6.0125 -0.71041,-7.25 -0.46239,-1.76361 -0.16998,-2.25 1.35267,-2.25 1.24324,0 1.94258,0.68543 1.94258,1.90393 0,2.22478 6.40432,13.90231 8.83426,16.10826 2.80717,2.54839 11.73856,8.71555 15.25698,10.53499 1.83142,0.94707 6.82138,2.11257 11.08881,2.59 18.91305,2.11599 29.98089,11.0394 33.31836,26.86282 1.5923,7.54936 1.64199,7.55145 11.76794,0.49499 5.07851,-3.53905 13.93639,-9.93572 19.68418,-14.21481 z M 150.16697,593.05652 C 144.73836,591.21876 143.17115,590.12651 136.25,583.35728 132.31872,579.51229 130.73064,576 132.9234,576 c 1.05965,0 8.17724,5.31719 12.5221,9.35462 2.70582,2.51436 6.35521,4.5433 10.8045,6.00693 0.9625,0.31663 1.75,0.99166 1.75,1.50008 0,1.84165 -2.7654,1.91046 -7.83303,0.19489 z m 56.11752,14.75147 c 7.78286,-0.96351 9.72494,-1.52049 9.49343,-2.72266 -0.60605,-3.14694 -14.69619,-12.13233 -25.20293,-16.0721 -2.81527,-1.05566 -3.19986,-0.81657 -10.25,6.37205 -4.02875,4.10787 -7.32499,8.14635 -7.32499,8.9744 0,1.88375 2.71955,2.79054 11,3.66776 10.22443,1.08317 11.89526,1.06672 22.28449,-0.21945 z m -92.72556,-30.90334 c 1.60423,-2.5957 -1.91087,-5.93299 -8.34095,-7.91904 -10.014775,-3.09325 -11.663339,-2.43193 -4.05516,1.62672 3.66454,1.95489 7.48954,4.3901 8.5,5.41158 2.16137,2.18495 2.97622,2.36915 3.89611,0.88074 z m 221.06343,-48.47191 c 9.87457,-3.21805 23.155,-10.17575 32.26848,-16.90566 0.76497,-0.56489 4.13997,-3.77272 7.5,-7.12851 4.58737,-4.58157 7.40337,-8.69171 11.30474,-16.5 C 390.5477,478.1874 398,460.16743 398,458.14596 c 0,-0.4934 1.09377,-3.3703 2.43059,-6.3931 1.33683,-3.02281 2.72696,-7.2413 3.08917,-9.37443 0.36222,-2.13314 1.28942,-5.67843 2.06045,-7.87843 2.03425,-5.80438 3.24189,-15.0665 2.20583,-16.91784 C 407.11551,416.38399 405.26906,416 400.17805,416 c -7.54957,0 -28.35326,4.005 -32.83068,6.32037 -1.91846,0.99207 -4.05766,1.28176 -6.21179,0.8412 l -3.28562,-0.67199 2.32502,-2.10709 c 2.10223,-1.9052 15.86901,-5.87828 35.82502,-10.3391 8.91355,-1.99246 12,-3.30781 12,-5.11401 0,-0.91786 -0.9,-4.48608 -2,-7.92938 -1.1,-3.4433 -2,-6.87692 -2,-7.63027 C 404,388.61638 403.60248,388 403.11663,388 c -0.48585,0 -1.1348,-0.96146 -1.4421,-2.13658 -0.47439,-1.81411 -1.04698,-2.03893 -3.79371,-1.48958 -1.77924,0.35584 -3.44561,0.85762 -3.70304,1.11505 -0.25744,0.25743 0.10443,3.81489 0.80415,7.90547 1.40786,8.23042 0.78602,14.09697 -1.59092,15.00909 -0.85502,0.3281 -3.06246,0.59655 -4.90541,0.59655 -3.82896,0 -3.90681,-0.16095 -5.88297,-12.16229 -0.62981,-3.82489 -2.54538,-7.02579 -3.92033,-6.55086 -1.23066,0.42509 -1.22701,1.2945 0.047,11.21315 1.08025,8.41009 0.65679,10.09743 -2.9043,11.57248 -4.27288,1.76988 -5.84076,0.43731 -7.79638,-6.62631 C 366.15591,399.68192 364.37108,396 362.96482,396 c -1.47834,0 -1.14736,5.31888 0.58968,9.4762 0.85498,2.04625 1.41748,5.36371 1.25,7.37213 C 364.50907,416.3912 364.38082,416.5 360.5,416.5 h -4 l -1.32102,-5.5 c -1.62068,-6.74768 -4.30007,-9.97432 -6.65777,-8.01761 -1.43425,1.19033 -1.37726,1.54193 0.58914,3.63507 2.57064,2.73632 3.71014,10.98092 1.96769,14.23673 -1.38372,2.58549 -4.92395,2.83157 -5.6942,0.39581 -1.70347,-5.38687 -4.0521,-9.63105 -6.31848,-11.41806 -3.80473,-2.99997 -3.86538,-0.28721 -0.15306,6.8458 3.26766,6.2786 3.27466,10.32226 0.0179,10.32226 -1.19843,0 -2.49129,-1.47671 -3.72085,-4.25 -2.25382,-5.08351 -4.82596,-7.53335 -6.33013,-6.02918 -0.71475,0.71475 -0.21821,2.65004 1.6011,6.24026 2.98935,5.89921 2.99639,9.40353 0.0197,9.81617 -1.49566,0.20733 -2.63042,-0.92743 -4.5,-4.5 -1.73306,-3.3117 -3.21888,-4.87903 -4.84334,-5.10903 -2.03553,-0.2882 -2.252,-0.0255 -1.6479,2 0.3825,1.28248 1.32451,3.63842 2.09335,5.23542 3.90865,8.11887 -0.52679,10.47309 -5.66405,3.00634 -2.25898,-3.28332 -3.46511,-4.28293 -4.23674,-3.5113 -0.77162,0.77162 -0.46092,2.57652 1.09139,6.34002 3.84832,9.33005 0.32265,13.38913 -4.58119,5.27429 -1.5511,-2.56675 -3.35346,-4.3812 -4.21152,-4.23978 -2.47927,0.40862 -2.2877,4.37973 0.43546,9.02644 3.09782,5.28604 3.10161,5.34255 0.45356,6.75974 -1.82845,0.97856 -2.61665,0.636 -5.88912,-2.55949 -3.89808,-3.80637 -6.50048,-4.2467 -8.29111,-1.40287 -0.74325,1.18041 -0.27577,3.08868 1.79201,7.31509 2.56374,5.24008 2.66393,5.85172 1.19858,7.31707 -1.34914,1.34914 -1.85155,1.38941 -3.21513,0.25774 -0.88887,-0.7377 -2.27301,-2.61154 -3.07587,-4.1641 -1.8014,-3.48353 -2.6433,-3.50817 -6.9751,-0.20414 -8.76955,6.68886 1.29349,-7.30644 13.74691,-19.11869 7.1289,-6.76187 17.10795,-15.60061 23.31981,-20.65505 10.8969,-8.86654 37.83159,-24.84978 46.86333,-27.80904 2.12483,-0.6962 6.84983,-2.9486 10.5,-5.00532 3.65017,-2.05673 9.11167,-4.54097 12.13667,-5.52053 8.7865,-2.84525 10.89974,-4.17746 10.29499,-6.49004 C 397.00445,373.90901 395.94864,373 394.94874,373 c -5.21844,0 -17.07536,3.4814 -23.347,6.8551 -11.8508,6.37487 -20.79241,11.53822 -27.10174,15.64992 -3.3,2.15057 -8.3982,5.38039 -11.32934,7.17737 -14.20354,8.70774 -48.64125,39.15014 -58.2533,51.49502 -1.85112,2.37742 -3.61618,4.54759 -3.92234,4.82259 -0.30616,0.275 -2.73883,3.425 -5.40594,7 -4.89925,6.56697 -8.9313,14.47335 -8.31852,16.31167 0.18327,0.54981 2.10987,1.11516 4.28133,1.25633 2.17146,0.14116 6.08561,0.68801 8.69811,1.21522 7.38909,1.49115 5.82195,-1.51638 -2,-3.83823 -2.3375,-0.69386 -4.25,-1.86534 -4.25,-2.60328 0,-1.67022 0.60387,-1.67011 6.09107,0.001 12.46319,3.79579 34.1506,22.45554 42.17177,36.28439 2.33044,4.01778 4.54595,7.3203 4.92336,7.33894 0.37741,0.0186 5.31773,-4.49517 10.97848,-10.03068 10.5788,-10.34473 14.57168,-12.02936 6.41706,-2.70741 -2.51996,2.88069 -4.58174,5.61992 -4.58174,6.08718 0,0.46726 -1.35,3.92542 -3,7.68479 -1.65,3.75937 -3,7.0973 -3,7.41761 0,1.09503 2.74636,0.58185 10.62236,-1.98487 z m 2.46097,-5.71571 c 0.22917,-0.15563 1.31667,-0.94313 2.41667,-1.75 1.85001,-1.35701 1.89707,-1.33579 0.62756,0.28297 -0.75485,0.9625 -1.84235,1.75 -2.41667,1.75 -0.57432,0 -0.85672,-0.12734 -0.62756,-0.28297 z m 50.51803,-19.48234 c 0.60575,-0.40408 2.08583,-3.38606 3.28907,-6.62663 1.20324,-3.24057 3.07013,-7.01376 4.14864,-8.38486 1.07851,-1.37111 1.96093,-2.89503 1.96093,-3.38651 0,-0.49148 1.52999,-4.14329 3.39999,-8.11514 1.86999,-3.97185 4.09873,-9.31215 4.95275,-11.86733 2.4032,-7.19023 5.65622,-24.55247 5.56695,-29.71228 -0.0754,-4.35944 -0.3199,-3.91165 -4.01707,7.35806 -2.16521,6.6 -4.63622,14.66402 -5.49113,17.92004 -0.8549,3.25602 -2.83055,8.44813 -4.39032,11.53802 C 393.37112,479.18877 384,501.45379 384,502.89531 c 0,1.25358 1.95475,1.43779 3.60136,0.33938 z m 17.30417,-0.70136 c 5.01499,-1.76939 22.31685,-13.14502 28.86972,-18.98126 2.59861,-2.31443 5.97393,-5.27677 7.50071,-6.58297 1.52678,-1.3062 4.17885,-4.56113 5.8935,-7.23318 2.99507,-4.66741 3.09357,-5.16031 2.50736,-12.54709 -0.61899,-7.79999 -3.9619,-23.25342 -5.71635,-26.42526 C 443.43221,429.80853 443,427.69759 443,426.07259 c 0,-1.62501 -0.45,-3.23267 -1,-3.57259 -0.55,-0.33992 -1,-1.30326 -1,-2.14075 0,-0.8375 -1.48752,-4.07344 -3.30561,-7.19099 -1.81809,-3.11754 -4.07568,-7.60883 -5.01687,-9.98065 -0.94119,-2.37181 -4.31813,-8.44681 -7.50431,-13.5 -8.37505,-13.28256 -11.46972,-18.73014 -12.8884,-22.68761 -1.86813,-5.21118 -1.5674,-24.74575 0.57344,-37.25 1.01227,-5.9125 1.5513,-10.75 1.19784,-10.75 -0.35346,0 -3.20789,2.16899 -6.34317,4.81997 C 401.88636,328.74651 390.92904,334 386.4802,334 c -3.57841,0 -3.14037,1.73562 2.68073,10.62169 6.44339,9.83604 9.48321,16.52921 14.70514,32.37831 2.26517,6.875 4.60609,13.85 5.20204,15.5 3.58351,9.92147 5.48273,38.95866 3.49924,53.5 -1.60275,11.7501 -2.7118,15.74158 -7.77991,28 -1.93282,4.675 -4.31239,10.975 -5.28792,14 -0.97553,3.025 -2.612,7.16957 -3.63661,9.21016 -2.7515,5.47987 -2.45991,6.78984 1.51136,6.78984 1.85585,0 5.24492,-0.66 7.53126,-1.46667 z m -289.48469,-5.57171 c 4.90646,-0.56208 16.73237,-1.07305 26.27979,-1.13548 9.54742,-0.0624 17.57469,-0.4626 17.83837,-0.88925 0.95472,-1.54477 -13.49665,-2.2187 -35.13036,-1.63828 C 103.51142,493.85928 93,495.13773 93,497.11871 c 0,1.18212 11.42984,1.10204 22.42084,-0.15709 z m 80.14787,-0.0728 c 1.11067,-1.79709 -1.69035,-3.79036 -9.62781,-6.85137 -10.36101,-3.99563 -12.00092,-3.84626 -3.97592,0.36213 7.37246,3.8662 8.96891,5.91443 3.86538,4.95925 -2.30612,-0.43161 -3.02281,-0.30113 -2.33036,0.42426 1.73068,1.81299 11.10102,2.67149 12.06871,1.10573 z m -26.003,-2.03103 c -4.54718,-0.5831 -7.28394,-0.53956 -7.95,0.1265 -0.68761,0.68761 1.55231,0.97485 6.93429,0.88921 l 7.95,-0.12649 z M 202,488.22251 c 0,-0.97763 -0.59299,-2.66513 -1.31775,-3.75 -1.78059,-2.66533 -4.19972,-9.34033 -6.87595,-18.97251 -1.79566,-6.46286 -2.23077,-10.69 -2.26452,-22 -0.0395,-13.23043 0.13996,-14.54625 3.26444,-23.93748 4.9961,-15.0167 5.02723,-14.93429 -11.06041,-29.2834 -1.5148,-1.35111 -2.51996,-2.83554 -2.23368,-3.29874 0.87509,-1.41592 -1.18129,-2.05633 -8.24227,-2.56683 -12.68376,-0.91703 -21.05565,-3.05103 -32.79415,-8.35923 -3.31335,-1.49831 -7.3369,-3.05365 -8.94121,-3.45631 -1.60431,-0.40265 -5.44656,-1.98718 -8.53833,-3.52117 C 117.57899,366.3891 114.50721,365.32385 96,359.71493 73.842243,352.99966 72.822893,352.78597 66.286497,353.48596 L 60,354.15919 v -4.0796 c 0,-4.55389 -1.220976,-5.20796 -3.415347,-1.82959 -1.265644,1.94854 -1.27843,3.29683 -0.09543,10.06323 0.751313,4.29727 1.667711,10.56152 2.036439,13.92055 0.368728,3.35903 1.054437,6.81808 1.523797,7.68677 0.469361,0.8687 1.30468,4.50445 1.856265,8.07945 1.139579,7.38598 2.17406,12.48048 4.568808,22.5 0.920182,3.85 2.124437,9.25 2.676122,12 0.551685,2.75 1.418477,5.4275 1.926204,5.95 C 71.584587,428.9725 72,430.21 72,431.2 c 0,0.99 0.350402,1.8 0.778671,1.8 0.428269,0 1.2904,3.24988 1.915848,7.22195 0.625447,3.97207 1.625045,7.38457 2.221329,7.58333 C 77.529384,448.00979 78,450.69686 78,453.99544 v 5.82876 l 3.75,0.53937 c 2.0625,0.29665 7.35,0.81896 11.75,1.16069 11.72129,0.91033 32.01223,4.29026 42,6.99608 3.3,0.89401 10.05,2.69062 15,3.99246 13.46093,3.54019 26.86935,8.22301 37.5,13.09666 10.3968,4.76644 14,5.43896 14,2.61305 z M 169.70883,472.3755 c -0.34347,-0.34347 -3.68097,-1.67437 -7.41666,-2.95754 -6.61417,-2.2719 -6.53895,-2.58007 0.68545,-2.80816 3.16883,-0.10005 4.10719,-0.935 10.56821,-9.40363 3.89983,-5.1116 7.92753,-11.62124 8.95044,-14.46585 1.0229,-2.84461 2.04208,-4.62528 2.26483,-3.95703 0.93311,2.79933 -2.12025,12.23824 -6.28978,19.44374 -2.98675,5.16149 -4.47132,8.89672 -4.47132,11.25 0,2.74955 -0.40248,3.52297 -1.83333,3.52297 -1.00834,0 -2.11436,-0.28102 -2.45784,-0.6245 z M 108.5,456.396 c -8.48916,-3.61713 -11.94377,-4.34504 -20.75,-4.37214 -7.770746,-0.0239 -9.956962,-1.20142 -5.5,-2.96231 1.2375,-0.48892 3.74498,-2.01224 5.572179,-3.38516 2.928877,-2.2007 3.119077,-2.60988 1.606599,-3.45631 -1.230771,-0.68877 -2.09284,-3.4695 -3.050581,-9.84008 -1.284186,-8.542 -1.758114,-20.21284 -0.715916,-17.63 0.277412,0.6875 1.168443,1.25 1.980069,1.25 0.811626,0 1.240311,0.38084 0.952634,0.84631 -0.287678,0.46547 -0.08764,3.27797 0.444536,6.25 0.532172,2.97203 1.121477,6.34669 1.309566,7.49925 0.18809,1.15256 0.663916,2.61646 1.057393,3.25312 0.393477,0.63666 1.025487,3.95006 1.404467,7.36312 l 0.689054,6.20556 8,3.36964 c 4.4,1.8533 9.91198,4.05152 12.24883,4.88493 2.33686,0.8334 4.50092,1.92316 4.80902,2.42167 1.06238,1.71897 -4.07406,0.85202 -10.05785,-1.6976 z m 9.78296,-28.646 c -3.08231,-6.57367 -3.54821,-10.90767 -3.0821,-28.67095 0.41012,-15.62988 0.26012,-18.25609 -1.11344,-19.4941 -0.87308,-0.78692 -5.39548,-2.81889 -10.04978,-4.5155 -4.654304,-1.69661 -10.157156,-4.20631 -12.228564,-5.5771 C 89.737669,368.12156 87.583232,367 87.02144,367 86.459648,367 86,366.57426 86,366.0539 c 0,-1.02803 4.769808,0.22358 21,5.51046 25.37388,8.26537 29.61188,9.82435 31.47222,11.57729 1.93316,1.82154 1.82776,1.85835 -5.32143,1.85835 -4.53482,0 -7.74289,0.47281 -8.48133,1.25 -2.2661,2.38499 -3.95295,11.31312 -4.42869,23.44005 -0.26302,6.70453 -0.0436,13.45453 0.48752,15 1.64727,4.79293 -0.41988,7.37964 -2.44533,3.05995 z m 64.35702,-25.36539 c -1.85609,-2.54715 -1.85503,-2.55184 0.5,-2.21858 1.55514,0.22007 2.469,1.10133 2.67957,2.58397 0.41955,2.95407 -0.86857,2.80604 -3.17957,-0.36539 z m -99.078258,-1.46739 c -1.086538,-3.05623 -2.305456,-25.45187 -1.435837,-26.38119 0.575543,-0.61505 2.073358,-0.47956 4.138081,0.37433 1.779819,0.73606 5.382378,2.11619 8.005688,3.06695 5.946866,2.15532 6.516316,2.70083 3.004727,2.87843 -8.880658,0.44913 -11.182308,0.71978 -11.857228,1.39426 -0.412767,0.4125 -0.194853,0.75 0.484253,0.75 0.915806,0 1.127265,2.20796 0.818655,8.54801 -0.392829,8.07026 -1.963572,12.72987 -3.158339,9.36921 z m -7.38012,-38.52909 c -6.016116,-3.40972 -8.200838,-5.70223 -6.784175,-7.11889 0.354477,-0.35448 2.547569,1.20409 4.873538,3.46349 2.325969,2.2594 5.804035,4.78213 7.729035,5.60606 1.925,0.82393 2.825,1.52783 2,1.56422 -0.825,0.0364 -4.343279,-1.54531 -7.818398,-3.51488 z M 232.05469,483 h 16.73682 l 3.32461,-5.25 c 6.29424,-9.93944 19.82028,-27.26714 27.84389,-35.66977 4.422,-4.63088 8.03999,-9.02961 8.03999,-9.77497 0,-1.67897 6.3059,-14.29929 9.73066,-19.47444 1.39431,-2.10695 3.16236,-3.83082 3.92899,-3.83082 0.97986,0 0.32015,2.07483 -2.22108,6.98542 -1.98823,3.84198 -3.46277,7.43801 -3.27676,7.99119 0.186,0.55318 4.59425,-2.39313 9.7961,-6.54735 5.20184,-4.15422 15.02762,-11.46276 21.83505,-16.24119 6.80743,-4.77844 15.15138,-10.73305 18.5421,-13.23247 3.39071,-2.49942 8.30567,-5.87442 10.92211,-7.5 2.61645,-1.62558 5.02643,-3.79718 5.35553,-4.82577 1.32257,-4.1337 -8.93851,-13.02774 -19.8627,-17.21648 -4.06314,-1.55796 -6.75,-3.16852 -6.75,-4.04609 0,-2.14614 5.64097,-0.90166 16.81089,3.70872 8.59027,3.54564 18.59894,9.70512 19.36637,11.91834 0.17751,0.51192 3.25595,-0.54762 6.84098,-2.35454 3.58504,-1.80692 7.52254,-3.54793 8.75,-3.86892 4.65266,-1.2167 1.71394,-8.36508 -7.37626,-17.94261 -7.26301,-7.65237 -10.70138,-10.31635 -21.79421,-16.88569 -14.14623,-8.37761 -21.20927,-15.21143 -26.34759,-25.49251 -2.18531,-4.37253 -4.28099,-9.63755 -4.65705,-11.70005 C 327.21706,289.6875 326.47976,288 325.95469,288 325.42961,288 325,284.89813 325,281.10696 c 0,-7.10177 -2.34423,-21.29713 -4.01467,-24.3106 -1.1664,-2.10417 0.24561,-3.17523 3.02362,-2.29352 1.44128,0.45745 1.99105,0.17438 1.99105,-1.02516 0,-1.57735 3.66101,-5.37392 5.25,-5.44441 0.4125,-0.0183 0.75,1.60925 0.75,3.61677 v 3.65004 l 3.25,-4.28558 c 6.5973,-8.69946 6.9447,-9.40963 4.9832,-10.18702 -0.95326,-0.3778 -2.4082,-0.68691 -3.2332,-0.68691 -0.91805,0 -0.72407,0.31141 0.5,0.80267 1.68318,0.67553 1.31685,0.98998 -2.31255,1.9851 -2.3719,0.65034 -5.03752,1.46063 -5.9236,1.80065 -1.20252,0.46145 -1.44821,0.19382 -0.96884,-1.05538 C 328.64823,242.75312 328.50135,242 327.96862,242 327.43588,242 327,242.62935 327,243.39855 c 0,2.07441 -22.90954,9.86641 -50.10318,17.04111 -9.68175,2.55441 -20.48175,5.67888 -24,6.94326 l -6.39682,2.29887 -0.63903,8.90911 c -0.35147,4.9 -1.16855,10.86702 -1.81573,13.26004 -0.64718,2.39302 -0.93132,4.59632 -0.63142,4.89622 0.2999,0.29989 2.46698,-1.22137 4.81573,-3.3806 10.71085,-9.84657 25.77538,-18.80494 39.32404,-23.38467 8.93106,-3.0189 14.45391,-4.00092 8.94641,-1.59077 -1.65,0.72206 -6.15,3.34695 -10,5.83309 -3.85,2.48613 -9.925,5.98969 -13.5,7.78567 -12.65029,6.35517 -28.80462,20.99 -41.5,37.59645 -3.3,4.31663 -8.89158,10.71187 -12.42572,14.21164 C 211.73761,341.08326 198.73593,351 196.54718,351 c -0.80969,0 -4.07654,0.98365 -7.25967,2.18588 -3.18313,1.20223 -6.46251,2.25208 -7.28751,2.33299 -3.41768,0.33517 -5.6502,1.74053 -8.28151,5.21318 -3.73922,4.93479 -4.36054,7.91104 -2.35886,11.2996 0.9022,1.52732 1.64037,3.69345 1.64037,4.81363 0,3.54023 1.89451,3.43981 9.53784,-0.50558 12.53367,-6.46974 26.06014,-18.86598 45.10885,-41.3397 9.56658,-11.28668 30.13114,-30.4445 40.65524,-37.87418 5.94106,-4.1942 13.81606,-9.74527 17.5,-12.33571 11.98536,-8.42775 16.66252,-10.3156 25.04562,-10.10922 4.04116,0.0995 7.56923,0.40256 7.84016,0.67349 0.27094,0.27093 -1.34796,2.93042 -3.59755,5.90998 -2.24959,2.97956 -4.09016,5.68469 -4.09016,6.01141 0,0.32672 -0.43738,1.74443 -0.97196,3.15047 -0.8768,2.30617 -1.21944,2.44368 -3.5,1.40458 C 305.13762,291.1973 304,290.04618 304,289.27276 c 0,-1.51778 4.44232,-7.98552 6.88407,-10.02276 1.28979,-1.07612 1.19584,-1.25 -0.67538,-1.25 -1.20089,0 -4.19519,1.93705 -6.69113,4.32858 C 300.00853,285.69083 299,287.36971 299,289.84891 v 3.19174 l -4.08659,-2.08482 c -3.81921,-1.94842 -4.37081,-1.98798 -8.43073,-0.60463 -5.91199,2.01442 -15.20468,8.47893 -24.3597,16.94596 -12.43352,11.49917 -29.94831,29.6264 -37.02024,38.31474 -21.28907,26.15502 -23.1741,28.22545 -30.46999,33.46677 -4.15055,2.98173 -7.56587,5.71471 -7.5896,6.07329 -0.0237,0.35858 1.49142,1.48358 3.367,2.5 1.87559,1.01642 9.2041,7.33238 16.2856,14.03547 7.08149,6.70309 14.20942,13.19729 15.83985,14.43156 4.38853,3.32224 18.5732,15.88923 21.5536,19.09555 1.42406,1.532 2.99906,2.76501 3.5,2.74001 0.50094,-0.025 5.61832,-7.2814 11.37195,-16.12534 C 269.10873,406.2313 279.74429,393.52331 291.45804,383 303.79801,371.9141 315.70554,359.82638 318,356.05636 c 1.375,-2.25926 3.55875,-5.55868 4.85278,-7.33205 2.10885,-2.89003 2.28029,-2.96512 1.65359,-0.72431 -2.32308,8.30632 -11.20557,19.51494 -27.00637,34.07872 -12.08192,11.13605 -27.45409,29.52856 -32.94771,39.42128 -1.52713,2.75 -3.82377,6.8 -5.10366,9 -1.27988,2.2 -3.99474,8.725 -6.03302,14.5 C 249.68507,455.56965 247,460.9732 247,457.91107 c 0,-0.84367 -0.9,-2.49998 -2,-3.6807 -1.1,-1.18071 -2,-2.81645 -2,-3.63498 0,-2.80141 -7.13849,-13.67026 -13.31486,-20.27282 C 223.69174,423.9156 207.45794,412 204.7225,412 c -2.19403,0 -5.42698,6.91092 -7.25095,15.5 -3.65998,17.23481 -1.58339,35.78579 5.77344,51.57635 l 3.08786,6.62774 4.49251,-1.35204 C 213.82666,483.44879 220.87335,483 232.05469,483 Z m 11.33832,-15.58179 c 0.33385,-0.86998 0.60699,-2.98498 0.60699,-4.7 0,-2.21435 0.31008,-2.80813 1.06975,-2.04846 1.27597,1.27597 0.18524,8.33025 -1.28803,8.33025 -0.54763,0 -0.72255,-0.7118 -0.38871,-1.58179 z m -3.01275,-42.69436 c -1.71585,-1.77312 -4.28535,-4.34885 -5.70999,-5.72385 -1.42464,-1.375 -6.09576,-6.10552 -10.38026,-10.51226 -12.48121,-12.83729 -22.12493,-20.817 -27.54001,-22.788 -0.9625,-0.35033 -1.75,-1.06905 -1.75,-1.59715 0,-1.21669 4.3879,-5.68007 14.51551,-14.76521 8.20244,-7.35814 19.17862,-18.41399 33.07672,-33.31683 C 259.56818,317.81734 269.78614,307.51763 276.5,301.8415 285.8094,293.971 285.771,294 286.88447,294 c 0.53288,0 1.11438,-0.68419 1.29221,-1.52042 0.26296,-1.23656 1.01354,-1.04987 4.02027,1 2.03332,1.38623 4.54831,2.52042 5.58887,2.52042 3.93825,0 23.17398,18.49148 26.2221,25.20753 2.60398,5.73749 2.60055,11.93183 -0.008,14.29247 -2.3581,2.13405 -2.6279,3.67818 -0.5,2.86163 3.0143,-1.1567 1.39541,0.65113 -2.25,2.51259 -4.96476,2.53517 -23.40338,22.38758 -31.69552,34.12578 -2.13693,3.025 -6.17702,7.75 -8.97799,10.5 -2.80097,2.75 -6.21403,6.35027 -7.58458,8.00059 -1.37055,1.65033 -4.8047,5.70033 -7.63145,9 -2.82674,3.29968 -6.42674,7.84133 -8,10.09257 -6.59581,9.43824 -11.50029,15.40519 -12.642,15.38069 -0.67015,-0.0144 -2.62234,-1.47688 -4.3382,-3.25 z M 237,408.69428 c 0,-3.13281 -2.25639,-7.13963 -6.25346,-11.10465 -1.66916,-1.65578 -1.73075,-1.56201 -1.28105,1.95038 0.25982,2.02938 1.61138,5.18306 3.00346,7.00817 1.39208,1.82511 2.53105,3.7984 2.53105,4.3851 0,0.5867 0.45,1.06672 1,1.06672 0.55,0 1,-1.48757 1,-3.30572 z m 8.39301,-11.27607 C 245.72686,396.54823 246,395.43942 246,394.9542 c 0,-2.02198 -11.7,-13.21542 -17.85678,-17.08365 -3.65377,-2.29562 -6.96445,-4.66811 -7.35706,-5.2722 -0.48719,-0.74963 -1.24279,-0.56954 -2.37987,0.56723 -1.55468,1.55427 -1.50235,1.82927 0.78298,4.1146 5.87255,5.87255 23.90058,21.71982 24.70871,21.71982 0.48843,0 1.16119,-0.7118 1.49503,-1.58179 z m 15.07328,-2.38096 c 1.08484,-1.19873 1.51349,-2.64756 1.1012,-3.72198 -0.52216,-1.36071 -0.85812,-1.46306 -1.48309,-0.45183 -0.4444,0.71906 -1.2077,1.31395 -1.6962,1.32197 -0.48851,0.008 -0.7757,0.41959 -0.6382,0.91459 0.1375,0.495 -0.18588,0.9 -0.71862,0.9 -0.53273,0 -0.70959,0.675 -0.39301,1.5 0.76855,2.00279 1.69836,1.89039 3.82792,-0.46275 z M 221,389.12244 c 0,-0.48265 -0.675,-1.43775 -1.5,-2.12244 -1.62821,-1.35129 -1.83174,-1.02807 -0.89301,1.41821 0.64255,1.67447 2.39301,2.18961 2.39301,0.70423 z m 33.85298,-4.69912 c 1.51414,-3.32316 -0.0339,-5.56354 -10.92072,-15.8051 -9.65399,-9.08178 -12.03865,-10.02397 -15.19964,-6.00544 -1.22794,1.56108 -2.23262,3.29055 -2.23262,3.84326 0,0.55272 1.95408,2.08288 4.34241,3.40035 2.38832,1.31748 7.89072,5.71375 12.22755,9.76951 4.33683,4.05575 8.49801,7.3741 9.24708,7.3741 0.74906,0 1.89024,-1.1595 2.53594,-2.57668 z M 269.44316,381.75 c -0.90855,-2.95576 -1.08445,-3.10163 -2.90003,-2.40492 -0.84872,0.32568 -1.54313,1.50627 -1.54313,2.62354 0,1.51436 0.65344,2.03138 2.56739,2.03138 2.20073,0 2.46861,-0.32133 1.87577,-2.25 z m 6.00379,-7.39464 c 0.96618,-3.84959 -0.89851,-5.12202 -2.94005,-2.00624 -0.92361,1.40961 -1.38895,3.03272 -1.03408,3.6069 1.1883,1.92271 3.30366,1.07071 3.97413,-1.60066 z M 264,373.8099 c 0,-2.43655 -7.78172,-10.22351 -17.5,-17.51177 -3.3,-2.47484 -6.27952,-4.9496 -6.62115,-5.49946 -0.60542,-0.97443 -4.87885,1.91491 -4.87885,3.29867 0,0.35908 3.35242,2.97039 7.44982,5.80292 4.0974,2.83253 8.44603,6.60124 9.66361,8.3749 C 256.1987,374.22621 258.27928,376 261.17431,376 263.41509,376 264,375.54665 264,373.8099 Z m 6.9682,-7.55689 c 0.0569,-2.231 -13.77074,-15.84686 -19.99481,-19.68857 C 245.0386,342.90128 242,342.49815 242,345.37396 c 0,0.7902 3.06892,3.71181 6.81982,6.49247 3.75091,2.78066 9.65077,8.24107 13.11082,12.13424 5.78769,6.51219 6.39959,6.93532 7.64837,5.28891 0.74656,-0.98427 1.37169,-2.35072 1.38919,-3.03657 z m 12.30956,-0.26444 C 285.32521,363.59732 285.53168,361 283.67431,361 c -1.9079,0 -6.00673,4.65312 -5.22006,5.92597 1.0206,1.65136 2.9236,1.28153 4.82351,-0.9374 z M 280,356.3287 c 0,-1.87871 -13.48789,-15.86525 -19.82766,-20.56069 -5.72436,-4.23965 -9.16586,-4.51714 -11.10418,-0.89536 -0.838,1.5658 -0.15642,2.42285 4.44946,5.59505 5.85383,4.03168 15.49046,13.04783 19.4886,18.23377 l 2.4682,3.20147 2.26279,-2.12579 C 278.98174,358.60797 280,357.05617 280,356.3287 Z m 10.17126,2.01631 C 292.19437,356.51412 292.64735,353 290.86024,353 c -1.53679,0 -3.78916,3.08871 -3.82844,5.25 -0.0397,2.18721 0.79954,2.21261 3.13946,0.095 z m -4.20644,-7.27927 C 286.53417,350.0019 287,348.82192 287,348.44356 c 0,-1.3215 -16.53636,-17.64443 -20.80013,-20.53169 -4.7275,-3.20127 -7.35029,-3.64047 -9.10608,-1.52488 -1.24913,1.50511 0.004,2.76008 9.55574,9.57213 2.66776,1.90252 7.4762,6.51502 10.68542,10.25 3.20922,3.73498 6.23089,6.79088 6.71482,6.79088 0.48392,0 1.3457,-0.87042 1.91505,-1.93426 z m 13.8294,-1.63416 C 302.43868,347.57933 301.84303,346 298.5,346 c -2.70138,0 -3.94067,1.40925 -3.12,3.54789 0.71147,1.85405 1.63591,1.8297 4.41422,-0.11631 z m -5.35647,-6.01218 c 1.4408,-1.44081 1.41417,-1.79219 -0.30109,-3.97279 -5.99989,-7.62763 -12.87626,-13.87706 -22.28334,-20.25172 -3.8046,-2.57817 -4.84975,-2.90411 -5.76725,-1.79859 -1.73392,2.08924 -0.43146,4.03338 5.38663,8.04046 2.94539,2.02856 8.58046,7.26016 12.52238,11.62577 3.94191,4.36561 7.54848,7.93747 8.01459,7.93747 0.46611,0 1.55875,-0.71127 2.42808,-1.5806 z m 13.41064,-0.30454 c 1.97689,-1.25281 0.98457,-4.61486 -1.36209,-4.61486 -1.4235,0 -2.07596,0.77919 -2.30272,2.75 -0.32639,2.83661 1.03683,3.53029 3.66481,1.86486 z M 315,335 c 0,-1.94187 -1.70843,-3.62491 -2.68663,-2.64671 -0.30446,0.30447 -0.26133,1.71793 0.0958,3.14104 C 313.12432,338.3435 315,337.98562 315,335 Z m -12.22033,-0.10621 c 0.44848,-2.30987 -16.6383,-19.34216 -22.50312,-22.43137 -4.3139,-2.27228 -5.48927,-2.53077 -6.75,-1.48445 -0.8396,0.6968 -1.52655,1.59786 -1.52655,2.00234 0,0.40448 2.7067,2.40609 6.0149,4.44802 3.30819,2.04194 9.72069,7.26191 14.25,11.59994 8.06078,7.72037 9.95003,8.77426 10.51477,5.86552 z m 6.86319,-6.40549 C 310.53753,326.15683 289.99014,303 287.02672,303 c -0.98552,0 -0.81179,0.63774 0.61294,2.25 4.9559,5.60822 13.09192,15.56496 15.32133,18.75 4.53787,6.48304 5.63391,7.21926 6.68187,4.4883 z M 173,366.83744 c 0,-0.49511 0.7875,-1.14159 1.75,-1.43661 4.71588,-1.44549 10.54948,-4.67315 13.96265,-7.72537 4.75129,-4.24883 8.48403,-6.35159 7.7143,-4.34569 -0.73666,1.91971 -10.27771,10.02458 -14.17097,12.03786 C 178.54846,367.28486 173,368.16594 173,366.83744 Z m 140.25,-62.31725 c -0.6875,-0.78968 -1.25,-2.17458 -1.25,-3.07755 0,-2.57363 7.93657,-14.19279 10.07681,-14.75247 2.48313,-0.64936 2.45111,0.5221 -0.0768,2.80983 -1.1,0.99549 -2.00868,2.75273 -2.01929,3.90499 -0.0106,1.15225 -0.60238,4.34448 -1.31505,7.09384 -1.33743,5.15961 -3.21252,6.55194 -5.41566,4.02136 z M 249.14714,285 c -0.0678,-7.44204 1.21057,-11.25007 4.35615,-12.97623 4.72872,-2.59493 15.49708,-6.35674 16.19594,-5.65787 0.8298,0.8298 0.87182,0.80514 -6.80988,3.99532 -6.60686,2.74379 -6.61267,2.74976 -10.16048,10.44207 -3.28022,7.1121 -3.55227,7.43087 -3.58173,4.19671 z M 469.5,454.35259 c 4.4,-2.66974 9.35,-5.81071 11,-6.97994 4.42494,-3.13562 22.34566,-11.94652 27.34457,-13.44423 3.52507,-1.05613 5.03478,-2.33425 8.10674,-6.86312 7.30945,-10.77604 9.9421,-17.28452 11.64445,-28.78752 1.86604,-12.60904 2.93013,-14.89241 2.0987,-4.50346 -0.35681,4.45842 -0.21681,7.04851 0.36168,6.69098 1.8167,-1.12278 0.91774,5.19779 -2.12269,14.92458 -1.6866,5.3957 -2.831,10.0459 -2.54312,10.33378 2.24263,2.24263 8.24202,-8.53408 11.29755,-20.29381 1.32739,-5.10868 1.88426,-6.21742 2.119,-4.21894 0.40612,3.45754 -4.48444,21.97178 -6.0613,22.94633 -0.84368,0.52142 -0.69703,0.92416 0.50441,1.38519 2.61557,1.00369 7.75001,-1.68876 7.75001,-4.06404 0,-1.11836 0.67658,-2.99933 1.50351,-4.17994 2.04748,-2.92319 5.86653,-18.34702 8.01112,-32.35421 1.51868,-9.91914 1.62057,-13.53065 0.71945,-25.5 -0.85786,-11.39475 -1.47802,-14.74609 -3.39194,-18.32991 -3.65643,-6.84669 -9.65999,-13.0358 -17.79868,-18.34879 l -7.47339,-4.87869 -6.53504,0.68166 c -7.90161,0.82419 -16.27047,4.4769 -25.03503,10.92688 -3.575,2.6309 -5.4875,3.67921 -4.25,2.32958 2.81049,-3.06515 2.83611,-3.791 0.10864,-3.07775 -2.41941,0.63269 -26.55117,12.8652 -28.85864,14.62859 -0.825,0.63047 -3.075,1.99832 -5,3.03967 -5.38647,2.91386 -20.46106,12.83768 -20.81461,13.70255 -0.17303,0.42329 -0.98836,0.51107 -1.81185,0.19507 -1.19645,-0.45912 -0.93234,-1.17232 1.31461,-3.55 3.80592,-4.02738 19.43034,-15.56462 26.81185,-19.79816 3.3,-1.89266 7.8,-4.46961 10,-5.72655 4.1784,-2.38727 18.76646,-9.56214 26.5,-13.03352 2.475,-1.11097 6.1875,-3.66489 8.25,-5.67538 4.48046,-4.36749 4.83148,-7.88361 1.75,-17.52949 -1.1,-3.4433 -2,-7.36267 -2,-8.70972 0,-1.34704 -1.06384,-5.22592 -2.36408,-8.61972 -1.30025,-3.39381 -4.41093,-12.24556 -6.91264,-19.67056 -2.5017,-7.425 -6.87603,-19.8 -9.72074,-27.5 -2.8447,-7.7 -6.04985,-16.475 -7.12255,-19.5 -1.0727,-3.025 -2.36436,-6.4 -2.87035,-7.5 -0.506,-1.1 -1.57822,-3.65405 -2.38273,-5.67566 -1.12677,-2.83144 -2.1132,-3.75999 -4.29482,-4.04283 -3.47855,-0.45099 -16.40683,3.97804 -22.09703,7.5701 -2.30742,1.45662 -5.60069,2.64839 -7.31836,2.64839 -1.71767,0 -15.11412,4.01219 -29.76987,8.91598 -19.33153,6.4683 -29.02685,9.20083 -35.31634,9.95355 -9.85319,1.17923 -20.94551,5.60835 -22.82073,9.11224 -1.82774,3.41515 -0.39427,3.62889 5.26828,0.78553 8.39504,-4.21544 15.53949,-5.23863 27.72196,-3.97019 9.37837,0.97647 11.47215,1.58416 19.60065,5.6888 l 9.10064,4.59554 3.14936,-2.94193 C 417.928,233.26484 419.04456,230 416.95034,230 c -0.57731,0 -2.48981,0.74454 -4.25,1.65453 -3.00738,1.55477 -3.11526,1.55197 -1.78934,-0.0465 1.89973,-2.29016 11.29299,-7.68791 18.26016,-10.49304 3.11914,-1.25582 6.46575,-3.16133 7.43691,-4.23444 0.97115,-1.07312 2.42004,-1.70005 3.21974,-1.39317 1.59477,0.61197 6.17219,-1.96819 6.17219,-3.47909 0,-0.52006 -0.7875,-0.67414 -1.75,-0.34241 -1.42187,0.49005 -1.37499,0.30224 0.25,-1.00166 3.48185,-2.79383 22.32982,-11.6656 24.71366,-11.63275 1.3148,0.0181 -1.2908,1.58779 -6.13182,3.69394 -4.62998,2.01435 -7.89248,3.83767 -7.25,4.05183 1.92794,0.64265 1.33207,1.82755 -1.58184,3.14554 -1.5125,0.68411 -5,2.9717 -7.75,5.08353 -9.32247,7.15906 -19.7591,12.92535 -21.60554,11.93717 -1.33762,-0.71588 -1.82301,-0.36433 -2.33977,1.69461 -0.35862,1.42883 -0.44951,2.80038 -0.20199,3.0479 0.24752,0.24752 2.82094,-0.25405 5.71873,-1.1146 2.89778,-0.86055 5.41799,-1.41535 5.60046,-1.23288 0.18246,0.18247 -4.16907,2.68548 -9.67007,5.56224 -6.92459,3.62128 -10.00182,5.7744 -10.00182,6.99828 0,0.97226 1.51929,3.52531 3.3762,5.67344 l 3.37621,3.90569 4.73371,-2.36413 4.73371,-2.36412 6.14008,1.86698 c 3.37705,1.02685 6.40869,1.78108 6.73698,1.67609 0.32829,-0.105 2.33211,1.58613 4.45295,3.75806 4.07213,4.17024 4.02896,5.02953 -0.11623,2.3135 -1.37282,-0.8995 -2.74069,-1.39079 -3.03973,-1.09175 -0.80061,0.80061 4.674,8.72721 6.02756,8.72721 0.63562,0 2.90763,-0.8932 5.0489,-1.98488 6.52797,-3.32815 6.10382,-2.13678 -2.65309,7.4522 -2.02551,2.21797 -5.15428,4.89954 -6.95282,5.95903 l -3.27008,1.92634 2.30283,-3.90299 c 4.33966,-7.35519 3.00731,-11.34798 -6.24306,-18.70918 -6.48617,-5.16153 -17.7075,-4.76359 -16.0839,0.57038 0.36649,1.20401 1.2106,2.8641 1.8758,3.6891 0.6652,0.825 2.50902,5.40966 4.09738,10.18813 l 2.88792,8.68812 -1.64984,7.31188 c -0.90741,4.02153 -2.19032,10.46187 -2.8509,14.31187 -0.66059,3.85 -2.543,10.375 -4.18313,14.5 -8.40755,21.14536 -9.98909,30.36111 -7.35667,42.86789 0.85293,4.05234 2.46393,8.91557 3.58,10.80716 1.11607,1.8916 2.02922,3.83745 2.02922,4.32412 0,0.48666 2.5542,5.07344 5.676,10.19284 6.91793,11.3446 20.55679,37.9279 24.01537,46.80799 1.39238,3.575 3.10575,10.63437 3.8075,15.68748 0.87492,6.30011 1.96387,10.15364 3.46498,12.26176 1.204,1.69085 2.49217,2.89048 2.86262,2.66585 0.37044,-0.22463 4.27353,-2.59276 8.67353,-5.2625 z M 532.62121,393.5 c 0.35677,-1.65 1.04414,-3.675 1.52747,-4.5 0.56235,-0.95986 0.64521,-0.41973 0.23011,1.5 -0.35677,1.65 -1.04414,3.675 -1.52747,4.5 -0.56235,0.95986 -0.64521,0.41973 -0.23011,-1.5 z m -3.6059,-13.25 c 0.008,-1.5125 0.45153,-3.425 0.98469,-4.25 0.70991,-1.09851 0.97347,-0.36246 0.98469,2.75 0.008,2.3375 -0.43469,4.25 -0.98469,4.25 -0.55,0 -0.99311,-1.2375 -0.98469,-2.75 z m 13.71809,-20.84338 c -0.28149,-5.44864 -1.01699,-11.53682 -1.63444,-13.52929 C 538.8233,338.53402 527.50888,329 521.06992,329 c -1.07354,0 -2.23,-0.45 -2.56992,-1 -0.38287,-0.61949 1.43579,-1 4.77951,-1 4.98964,0 5.81907,0.35897 10.97545,4.75 3.52586,3.00252 6.34564,6.47651 7.66476,9.44301 1.14776,2.58116 2.46237,4.9251 2.92135,5.20877 1.2137,0.75011 0.78003,18.75539 -0.50591,21.00484 -0.86069,1.50556 -1.19762,-0.17727 -1.60176,-8 z M 487,280.39726 c -2.475,-1.3818 -3.6757,-2.26147 -2.66821,-1.95481 1.00748,0.30665 2.42013,0.55755 3.13921,0.55755 0.71909,0 2.36978,0.88503 3.66822,1.96673 3.26228,2.71776 1.25371,2.44142 -4.13922,-0.56947 z m -10.884,-55.06547 c -0.0638,-0.64252 -0.40723,-1.99252 -0.76318,-3 -0.50214,-1.42127 -0.36907,-1.57546 0.59378,-0.68801 0.68253,0.62908 1.02596,1.97908 0.76318,3 -0.26278,1.02092 -0.52998,1.33052 -0.59378,0.68801 z m -2.44933,-5.99846 c -0.36667,-0.36666 -0.62799,-1.82916 -0.58072,-3.25 0.0844,-2.5366 0.10189,-2.52997 0.96694,0.3664 0.90899,3.04353 0.77489,4.04472 -0.38622,2.8836 z M 470,208.58179 c 0,-0.78002 -0.2751,-2.13512 -0.61134,-3.01134 -0.41395,-1.07874 -0.17179,-1.42421 0.75,-1.06997 1.50432,0.5781 2.18046,5.49952 0.75555,5.49952 C 470.4024,210 470,209.3618 470,208.58179 Z M 167.34486,375.56556 c -3.35248,-4.20153 -3.77542,-7.69388 -1.74045,-14.37155 0.88932,-2.91829 1.41616,-5.50677 1.17076,-5.75218 -0.83046,-0.83046 -32.17161,-3.29062 -49.33192,-3.87237 C 93.764512,350.76673 85.471732,348.3637 83.041728,341.60078 82.025026,338.7712 81.585275,332 82.418213,332 84.554331,332 86,333.65765 86,336.10699 86,337.69814 86.45,339 87,339 c 0.55,0 1,0.63925 1,1.42054 0,0.7813 1.2375,1.66895 2.75,1.97255 5.844861,1.17322 24.22511,3.60904 34.25,4.53893 5.775,0.53568 16.125,1.6662 23,2.51228 15.89589,1.95624 21.32409,1.94559 28.06095,-0.055 6.81416,-2.02359 20.48006,-8.83873 24.43905,-12.18768 2.89615,-2.44988 2.91346,-2.51325 0.5,-1.83039 -9.64485,2.72889 -12.9862,2.93059 -30.04654,1.8138 -20.80539,-1.362 -26.50865,-2.10106 -42.95346,-5.56622 -12.81441,-2.70018 -21.98712,-5.60824 -27.78042,-8.80734 C 98.415355,321.81516 96.502855,321 95.969584,321 c -1.281576,0 -1.242229,4.62204 0.06006,7.05539 2.381237,4.44938 6.158586,5.44294 47.445276,12.4796 18.49582,3.15231 25.01408,5.08938 21.35208,6.34533 -1.77394,0.6084 -21.97552,-2.07213 -25.92911,-3.44051 -1.98115,-0.6857 -7.15615,-1.76777 -11.5,-2.4046 -4.34384,-0.63682 -12.00363,-1.80526 -17.02176,-2.59654 C 105.35801,337.6474 99.45218,337 97.252072,337 c -3.458875,0 -4.623661,-0.64279 -8.60739,-4.75 -2.533955,-2.6125 -5.316144,-5.7625 -6.182641,-7 -1.376613,-1.96603 -2.451756,-2.25 -8.518745,-2.25 -4.820551,0 -6.981943,0.38216 -7.069706,1.25 -0.839863,8.30495 -0.487245,12.52768 1.290796,15.45778 3.231776,5.32576 7.287386,7.94589 17.550391,11.33844 C 91.09665,352.82526 97.975,355.50581 101,357.003 c 3.025,1.49719 7.3,3.29286 9.5,3.99039 4.74267,1.50371 27.73117,10.58859 31.94153,12.62306 5.37133,2.59545 24.5468,6.60171 26.80548,5.60038 0.41086,-0.18215 -0.44511,-1.82522 -1.90215,-3.65127 z M 136.5,367 c -0.33992,-0.55 0.11008,-1 1,-1 0.88992,0 1.33992,0.45 1,1 -0.33992,0.55 -0.78992,1 -1,1 -0.21008,0 -0.66008,-0.45 -1,-1 z m 6.94113,-3.58164 c -1.77628,-1.44731 -1.78556,-1.53223 -0.10934,-1 1.00748,0.3199 2.24498,0.58164 2.75,0.58164 0.50501,0 0.91821,0.45 0.91821,1 0,1.44794 -1.33595,1.22961 -3.55887,-0.58164 z M 72.299277,337.75 C 69.968342,335.19085 68,331.65665 68,330.03056 c 0,-1.96836 3.689824,0.7315 5.910623,4.32482 3.403576,5.50711 2.34465,7.73794 -1.611346,3.39462 z m 140.067753,-8.76781 c 7.9903,-5.0673 19.61029,-17.26053 23.46559,-24.62321 1.61225,-3.079 3.00113,-17.90928 2.28125,-24.35898 l -0.61387,-5.5 -8.85205,18 c -9.12517,18.55538 -17.43346,33.31086 -20.97416,37.25 -2.79929,3.1143 -0.95155,2.81201 4.69324,-0.76781 z M 220,316.5 c 0,-0.825 0.45,-1.5 1,-1.5 0.55,0 1,-0.42844 1,-0.95209 0,-1.0043 8.86964,-14.04791 9.55256,-14.04791 0.41705,0 -0.46491,2.44488 -2.7138,7.52298 -1.52173,3.43614 -6.95759,10.47695 -8.08876,10.47699 -0.4125,2e-5 -0.75,-0.67497 -0.75,-1.49997 z m 174.4806,11.051 c 12.75401,-5.64043 22.96129,-15.36322 29.05245,-27.67348 2.37467,-4.79921 2.67728,-6.61424 2.81388,-16.87752 0.1509,-11.33706 0.10522,-11.58501 -3.22435,-17.5 -1.85759,-3.3 -4.21613,-7.65758 -5.24122,-9.68351 -2.60131,-5.14112 -12.02147,-15.06858 -17.65895,-18.60994 -8.189,-5.14418 -29.11007,-6.38204 -39.11704,-2.31449 C 355.60903,237.12617 343,247.26316 343,249.44781 c 0,0.66196 -1.16879,2.2945 -2.59732,3.62788 -4.59932,4.29296 -6.40819,9.12771 -6.29117,16.81506 0.0584,3.83939 -0.48186,9.27541 -1.20066,12.08003 -1.56703,6.11423 -0.55145,11.02582 4.34823,21.02922 3.5263,7.19944 11.4021,15.63275 15.55436,16.65542 1.47761,0.36392 4.06746,1.7065 5.75523,2.98351 5.68696,4.3029 20.27405,8.56233 26.67852,7.79014 2.06096,-0.2485 6.21599,-1.54363 9.23341,-2.87807 z m -2.47867,-7.301 c 10e-4,-0.4125 2.28904,-2.30884 5.08438,-4.21408 6.26078,-4.26722 10.12787,-8.58277 12.49157,-13.94023 0.99386,-2.25263 2.34053,-4.09569 2.9926,-4.09569 0.65206,0 1.89186,-1.0125 2.7551,-2.25 l 1.56952,-2.25 0.0524,2.26987 c 0.10964,4.74463 -10.75432,19.22367 -15.75031,20.99138 -1.96054,0.69368 -4.30489,1.93118 -5.20967,2.75 -1.74347,1.57782 -3.98887,1.99401 -3.98564,0.73875 z m -22.36707,-4.32258 c -3.81731,-3.00269 -3.23378,-4.21334 0.86514,-1.79492 1.925,1.13578 3.5,2.4706 3.5,2.96628 0,1.45946 -1.54905,1.04378 -4.36514,-1.17136 z m -22.8298,-9.50394 c -5.72691,-6.08803 -10.99625,-14.50255 -10.44065,-16.67248 0.24631,-0.96196 -0.0294,-2.04399 -0.6128,-2.40451 -0.66831,-0.41304 -0.76138,-0.17131 -0.25161,0.65351 0.51542,0.83396 0.41706,1.06677 -0.27103,0.64151 -1.01248,-0.62575 -0.86405,-6.33976 0.19212,-7.39593 0.26487,-0.26487 0.80097,0.80902 1.19135,2.38642 0.91264,3.68773 10.37617,18.9094 14.33907,23.06377 3.42105,3.58632 3.6885,4.30423 1.60355,4.30423 -0.79472,0 -3.38222,-2.05944 -5.75,-4.57652 z M 418.46353,286.5 c 0.25744,-1.65 0.74775,-4.8 1.08959,-7 0.95688,-6.15838 1.47304,-7.5 2.88544,-7.5 1.62086,0 2.899,8.68373 1.99074,13.52519 -0.8213,4.37789 -2.40778,3.53018 -2.49698,-1.33421 -0.0596,-3.24982 -0.17911,-3.42205 -1,-1.44098 -2.71204,6.54507 -2.96478,6.92897 -2.46879,3.75 z m -65.59513,-9.96493 c -0.93648,-0.93648 0.22956,-5.37148 1.74234,-6.62698 1.64513,-1.36533 1.6531,-0.5563 0.0384,3.90048 -0.65928,1.81971 -1.46062,3.04663 -1.78076,2.7265 z m 6.20469,-12.15691 c 0.40376,-4.85119 16.25216,-16.73034 23.44008,-17.56949 5.27555,-0.61589 5.06096,0.20984 -0.77718,2.99062 -5.22557,2.48901 -13.33604,7.82412 -19.48599,12.81798 -1.7875,1.45148 -3.21711,2.24388 -3.17691,1.76089 z M 412.32308,255.75 c -3.1073,-3.45162 -4.01034,-5.55165 -1.40235,-3.26119 2.09513,1.84005 4.61893,5.51119 3.78877,5.51119 -0.19848,0 -1.27237,-1.0125 -2.38642,-2.25 z M 368.44113,240.4682 C 370.57801,238.85194 374,238.49193 374,239.88337 c 0,0.9225 -3.41809,2.10241 -6,2.07117 -1.13857,-0.0138 -1.03228,-0.37192 0.44113,-1.48634 z m -166.62682,81.35917 c 4.14466,-4.89705 7.12008,-10.10321 7.15448,-12.51835 0.0424,-2.97373 -2.08106,-4.11443 -3.40693,-1.8302 -0.58402,1.00617 -3.18052,4.64416 -5.77,8.08442 -2.58948,3.44026 -5.00282,7.4291 -5.36298,8.86409 -0.62345,2.48402 -0.52651,2.56029 2.02245,1.59117 1.47251,-0.55984 3.88584,-2.44585 5.36298,-4.19113 z M 60.474143,316.61404 c -5.261175,-3.02496 -9.237183,-13.82721 -6.986146,-18.98037 0.72469,-1.65899 0.576223,-1.73841 -1.336367,-0.71482 -2.577471,1.37942 -2.677014,3.44555 -0.526456,10.92724 2.45943,8.55625 3.970902,10.97072 7.115703,11.36686 4.886131,0.61549 5.561816,-0.39765 1.733266,-2.59891 z M 78,319 c 0.825,-0.53316 1.275,-1.00997 1,-1.05958 -4.580823,-0.82645 -13,-0.8741 -13,-0.0736 0,0.55999 1.9125,1.19042 4.25,1.40095 2.3375,0.21054 4.7,0.45452 5.25,0.54219 0.55,0.0877 1.675,-0.27682 2.5,-0.80998 z m 68,-8.20348 c 5.54375,-1.68888 12.27295,-5.92357 11.1683,-7.02822 -0.61876,-0.61876 -6.017,0.50369 -15.07146,3.13381 C 134.33778,309.15595 127.74027,311 127.43571,311 c -0.30456,0 -0.2506,0.49049 0.1199,1.08998 0.77768,1.25831 12.8463,0.41197 18.44439,-1.29346 z m -35.53125,-1.95131 c 0.74749,-0.80987 0.34336,-0.94604 -1.46875,-0.49491 -1.375,0.34232 -3.2875,0.62854 -4.25,0.63605 -0.9625,0.008 -1.75,0.5199 -1.75,1.13865 0,1.38159 5.95398,0.36136 7.46875,-1.27979 z M 139.5,302.34459 c 20.26909,-5.76227 63.90001,-19.95827 68.17065,-22.18039 1.00614,-0.52352 6.55435,-2.37334 12.32935,-4.11072 5.775,-1.73737 11.97777,-3.81015 13.78393,-4.60617 1.80616,-0.79602 4.11722,-1.44731 5.13569,-1.44731 1.01847,0 3.1407,-0.67223 4.71607,-1.49384 4.05402,-2.11432 1.06759,-1.99295 -10.13569,0.41191 -4.95,1.06255 -11.62908,2.45724 -14.84239,3.09931 -3.21332,0.64208 -6.67602,2.00103 -7.6949,3.01991 -2.02818,2.02818 -11.67727,5.25715 -13.09379,4.3817 -0.48634,-0.30058 -1.58795,0.15719 -2.44802,1.01725 -1.86511,1.86511 -3.85449,2.089 -2.78796,0.31376 0.43094,-0.7173 -0.0352,-0.61076 -1.09394,0.25 -4.86484,3.95532 -38.72913,15.83692 -50.039,17.55665 -4.20414,0.63926 -18.73927,5.06291 -21.77801,6.62796 -0.9779,0.50366 -1.54027,1.3004 -1.2497,1.77055 0.54654,0.88432 5.58544,-0.22051 21.02771,-4.61057 z M 71,293.10037 c 3.575,-0.53962 9.425,-2.08201 13,-3.42755 3.575,-1.34553 9.2,-2.97488 12.5,-3.62078 8.82685,-1.72764 36.11825,-9.94207 48,-14.4475 7.85305,-2.97779 -0.49278,-1.71633 -11.92801,1.8029 -6.0896,1.87409 -16.47199,4.84955 -23.07199,6.61213 -6.6,1.76259 -14.475,4.0145 -17.5,5.00425 -9.384126,3.07041 -16.270209,4.93558 -22.260219,6.02943 -3.16812,0.57854 -7.21812,1.719 -9,2.53435 L 57.5,295.07006 61,294.57577 c 1.925,-0.27186 6.425,-0.93579 10,-1.4754 z m 1.343817,-6.1151 C 78.857916,284.79337 84.714815,283 85.359146,283 c 0.644332,0 6.564614,-1.75339 13.156183,-3.89643 C 105.1069,276.96053 113.2,274.65368 116.5,273.97724 c 3.3,-0.67644 10.275,-2.55847 15.5,-4.18229 5.225,-1.62382 10.4,-2.95951 11.5,-2.9682 3.42218,-0.027 19.5,-4.00827 19.5,-4.82865 0,-1.03422 -8.529,-12.58897 -9.93281,-13.45657 -0.6049,-0.37385 -0.84666,-1.08933 -0.53726,-1.58996 0.8056,-1.30348 -1.3525,-4.95157 -2.92919,-4.95157 -0.82425,0 -1.57215,-1.77476 -1.96947,-4.67354 -0.41295,-3.01281 -2.26607,-7.28152 -5.21497,-12.01285 -7.43706,-11.93226 -4.5484,-10.36048 3.50743,1.90847 4.07281,6.20286 8.80935,12.8596 10.52564,14.79276 1.71628,1.93316 5.35479,6.76839 8.08557,10.74496 2.73078,3.97657 5.41506,7.22989 5.96506,7.22959 0.55,-3e-4 2.72894,-0.48063 4.84208,-1.06739 3.20045,-0.88869 3.59251,-1.26351 2.34763,-2.24443 -0.82194,-0.64766 -1.6778,-2.90607 -1.90191,-5.01867 -0.43097,-4.06266 0.18741,-4.86041 11.17517,-14.41681 3.22995,-2.80919 3.3789,-3.19636 2.21359,-5.75393 l -1.24937,-2.74207 -3.90048,4.22498 c -3.70709,4.0155 -6.02671,4.59266 -6.02671,1.49955 0,-0.77624 1.125,-3.87085 2.5,-6.87691 1.375,-3.00605 2.5,-6.4005 2.5,-7.5432 0,-1.94075 -1.74678,-5.91864 -3.09603,-7.05051 -0.32781,-0.275 -0.89356,-1.71628 -1.25721,-3.20284 -0.52541,-2.14778 -0.095,-3.24209 2.09602,-5.32868 2.60454,-2.48043 10.22997,-6.42591 15.40824,-7.97239 2.31747,-0.6921 2.31297,-0.66443 -0.33512,2.06257 -1.47625,1.52024 -5.30125,4.15397 -8.5,5.85271 -5.74992,3.05359 -5.81207,3.13401 -5.47824,7.08863 0.40759,4.82846 1.97464,6.93377 2.80306,3.76587 0.65661,-2.51088 4.04849,-3.97666 5.6036,-2.42155 0.72398,0.72398 0.72092,2.66596 -0.01,6.34933 -1.00565,5.06772 -0.93341,5.4287 1.60634,8.02688 2.17239,2.22237 3.25447,2.61399 5.90935,2.13871 1.7875,-0.32 3.25,-0.18737 3.25,0.29474 0,1.51793 -11.37241,12.90233 -15.84633,15.86302 -3.69069,2.44238 -4.19533,3.18969 -3.65223,5.40848 1.29783,5.30219 2.22545,5.437 14.31719,2.08081 6.13083,-1.70168 12.6172,-3.70251 14.41417,-4.44629 1.79696,-0.74378 8.4422,-2.81989 14.7672,-4.61358 11.12077,-3.15371 14.43648,-5.05001 13.49496,-7.71797 -0.2468,-0.69935 0.64816,-4.74935 1.9888,-9 1.34064,-4.25065 2.96476,-10.19463 3.60915,-13.20884 0.6444,-3.01421 2.46211,-8.01988 4.03936,-11.1237 1.57725,-3.10383 2.86773,-6.96729 2.86773,-8.58547 0,-2.39936 0.75051,-3.36397 4.06801,-5.22851 2.2374,-1.25749 4.52218,-3.25285 5.07729,-4.43414 1.41144,-3.00362 11.20794,-9.48249 16.46369,-10.88818 4.72265,-1.26312 5.56329,-1.10681 18.90518,3.51521 12.07116,4.18181 12.66239,4.68798 22.14752,18.96144 9.75203,14.6751 9.19018,13.88401 13.32634,18.76374 1.63167,1.925 5.06476,7.43749 7.6291,12.24997 4.17564,7.83642 4.80115,8.56726 5.99112,7 0.73079,-0.96248 1.60948,-3.16722 1.95265,-4.89941 0.50759,-2.56212 1.39927,-3.43532 4.78153,-4.68243 4.72061,-1.74059 19.61451,-5.78078 33.65757,-9.13011 10.91842,-2.60409 18.47192,-5.60401 15.76132,-6.25972 -0.95627,-0.23132 -8.83127,0.12385 -17.5,0.78928 -26.28145,2.01742 -38.78918,2.26056 -41.42429,0.80527 -2.04806,-1.13109 -0.4205,-1.44278 13.16297,-2.52079 8.525,-0.67656 22.025,-2.58674 30,-4.24484 7.975,-1.6581 18.1,-3.31116 22.5,-3.67347 5.66274,-0.46628 8.94751,-1.28323 11.24317,-2.79625 4.62635,-3.04913 4.03596,-4.00443 -2.03393,-3.29104 -3.73354,0.43881 -9.06657,-0.11651 -18.11927,-1.88672 -9.70012,-1.8968 -15.10424,-2.41989 -22.16054,-2.14502 -8.8657,0.34535 -13.87589,-0.49001 -10.4014,-1.73426 4.02425,-1.44112 9.7312,-2.18258 11.49499,-1.49345 1.08734,0.42483 4.0898,0.80405 6.67213,0.8427 2.58233,0.0387 10.68233,0.92719 18,1.97451 7.31767,1.04732 15.87375,2.20238 19.01352,2.56679 l 5.70867,0.66258 1.53469,-3.67303 c 0.84408,-2.02017 1.30988,-4.03679 1.0351,-4.48138 -0.27478,-0.4446 0.0657,-0.9965 0.75664,-1.22645 C 432.60873,182.96563 431.12242,162 428.70166,162 c -0.56924,0 -0.77174,-0.26326 -0.44998,-0.58501 0.73142,-0.73142 -1.07892,-6.13359 -3.1122,-9.28705 -1.83552,-2.84674 -5.06114,-11.92825 -5.10683,-14.37794 -0.018,-0.9625 0.617,-1.75 1.41101,-1.75 1.04425,0 15.67821,-6.46941 19.31702,-8.53971 1.02323,-0.58217 -3.41048,-9.23714 -7.68476,-15.00131 -6.70822,-9.04651 -7.99747,-10.53297 -11.47858,-13.234429 -4.26714,-3.311438 -2.35572,-3.920512 3.59055,-1.144126 5.42945,2.535075 13.98916,10.427485 16.43157,15.150585 1.41114,2.72885 4.06377,3.99183 3.09798,1.47504 -0.27309,-0.71168 -3.09113,-5.32418 -6.2623,-10.25 C 432.17333,94.698418 421.76008,83.297176 412.8039,76.371047 406.22778,71.285506 395.63557,66.003634 392,65.997051 c -1.375,-0.0025 -3.85,-0.827244 -5.5,-1.832787 -6.88116,-4.193517 -33.84758,-8.54315 -53,-8.5488 -13.55821,-0.004 -60.28594,2.458423 -64,3.372624 -2.2,0.541521 -6.7132,1.433504 -10.02933,1.982185 -10.36259,1.714576 -62.27291,16.879891 -64.97067,18.980825 -0.945,0.735938 -10.62221,4.594454 -24,9.569325 -16.06174,5.972969 -46.219,21.919127 -67.5,35.691757 -10.95909,7.0925 -22.668316,18.41678 -28.024633,27.1033 -5.24298,8.50273 -11.226616,25.34866 -12.49746,35.18452 -0.355314,2.75 -0.863523,5.7875 -1.129354,6.75 -0.347501,1.25821 0.09766,1.75 1.584059,1.75 C 64.333333,196 65,195.35506 65,194 c 0,-2.79999 2.982596,-2.55713 3.070285,0.25 0.0666,2.13203 0.111775,2.14514 0.861615,0.25 0.435231,-1.1 0.602741,-2.50443 0.372244,-3.12096 -0.230497,-0.61652 0.281777,-1.3899 1.138385,-1.71861 C 71.299138,189.33172 72,188.3415 72,187.45996 c 0,-3.46632 6.179563,-7.40378 11.864307,-7.55964 3.28596,-0.0901 3.395207,-0.1767 1.135693,-0.90032 -1.771,-0.56717 -1.972491,-0.82971 -0.690983,-0.90032 0.994959,-0.0548 1.544778,-0.52723 1.22182,-1.04979 -0.322959,-0.52255 1.001894,-2.39614 2.944118,-4.16353 1.942224,-1.76738 3.313457,-3.43128 3.047186,-3.69755 -0.490071,-0.49007 2.955513,-7.43093 5.057932,-10.18881 0.628924,-0.825 2.214171,-4.5375 3.522767,-8.25 1.3086,-3.7125 2.9458,-6.75 3.63822,-6.75 1.87354,0 1.54261,5.24287 -0.74106,11.74032 -1.1,3.1297 -2,6.07103 -2,6.53629 0,0.46527 2.025,0.54227 4.5,0.17112 2.85799,-0.42858 4.5,-0.2989 4.5,0.35539 0,0.56662 -0.40219,1.18021 -0.89376,1.36355 -2.12073,0.79094 -15.026453,13.15341 -14.544872,13.93263 0.885732,1.43314 -1.507007,4.89704 -4.741411,6.864 -1.67882,1.02095 -4.277618,3.70698 -5.775108,5.96895 -2.19745,3.31928 -2.60679,4.83179 -2.121839,7.84022 0.581447,3.60705 0.745935,3.73627 5.088929,3.9978 l 4.488061,0.27027 -2.413255,-1.89772 -2.413255,-1.89771 2.33095,-1.24749 c 2.842101,-1.52104 12.1513,-1.88475 12.6431,-0.49395 0.1952,0.55201 -1.648444,2.57701 -4.09698,4.5 -4.569169,3.58844 -6.639139,6.35129 -3.999632,5.33841 C 94.347917,207.03625 95,206.46703 95,206.07715 c 0,-0.85311 7.9696,-5.44088 8.51103,-4.89945 0.20875,0.20875 -0.94453,1.26667 -2.56286,2.35093 -1.618332,1.08425 -2.943713,2.33526 -2.945295,2.78001 -0.0032,0.90281 -6.127742,9.01912 -7.165256,9.49549 -0.36431,0.16727 -1.867036,1.42056 -3.339391,2.78509 -4.527142,4.19562 -12.878173,10.14532 -15.248228,10.86363 -4.011429,1.21577 -2.382184,2.26627 2.75,1.77313 5.201237,-0.49977 5.475134,-0.25958 5.254639,4.60806 -0.04185,0.92384 0.69454,1.14455 2.394888,0.71779 2.156169,-0.54117 2.333745,-0.38909 1.457491,1.24821 -0.548804,1.02544 -1.697394,2.44504 -2.552422,3.15465 C 80.699568,241.6643 80,243.00236 80,243.92817 c 0,0.9258 -1.15626,3.2332 -2.569468,5.12755 -4.47302,5.99592 -8.401301,16.8174 -8.419708,23.19428 -0.01373,4.75787 -1.708093,4.88062 -2.588522,0.18753 -1.075998,-5.73557 0.121132,-12.12755 3.528634,-18.84087 3.933876,-7.75035 3.922284,-13.97833 -0.02969,-15.9486 C 68.589563,236.98414 67.5,235.92922 67.5,235.3038 c 0,-0.62542 -0.3375,-1.47463 -0.75,-1.88713 -1.505239,-1.50524 -0.642299,-3.52906 4.75,-11.13995 7.041743,-9.93898 7.091144,-11.78081 0.492956,-18.379 -2.753875,-2.75388 -5.453875,-4.73089 -6,-4.39337 C 65.44683,199.84188 65,199.46648 65,198.67013 65,196.31468 61.59607,197.28977 60.357553,200 c -0.628346,1.375 -1.936001,8.71557 -2.9059,16.31238 -1.476921,11.5681 -1.667757,18.47361 -1.174499,42.5 0.323923,15.77819 0.892223,29.47512 1.262888,30.43762 0.906389,2.35361 1.222113,2.30531 14.803775,-2.26473 z M 87.8125,236.31689 c 0.721875,-0.28887 1.584375,-0.25335 1.916667,0.0789 0.332291,0.33229 -0.258334,0.56864 -1.3125,0.52522 -1.164943,-0.048 -1.4019,-0.28494 -0.604167,-0.60416 z M 363,215.10626 c 0.825,-0.47159 3.75,-1.13296 6.5,-1.46971 3.77438,-0.46219 4.42793,-0.37042 2.66622,0.37436 -3.03371,1.28253 -11.20104,2.25852 -9.16622,1.09535 z m 16,-3.14207 c 2.04818,-0.48635 3.89406,-0.44389 4.45,0.10236 0.59048,0.58019 -0.73406,0.89471 -3.5,0.83109 l -4.45,-0.10236 z m 9.26903,-19.65718 c 0.97297,-0.25354 2.32297,-0.23687 3,0.0371 0.67703,0.27393 -0.11903,0.48137 -1.76903,0.46099 -1.65,-0.0204 -2.20394,-0.2445 -1.23097,-0.49804 z m -44.69878,-3.98455 C 342.71959,186.10569 342.87652,185 344.04181,185 c 0.573,0 2.0355,-0.9511 3.25,-2.11355 l 2.20819,-2.11355 -2.25,0.68094 c -1.35333,0.40957 -2.25,0.25556 -2.25,-0.38645 0,-1.55723 -4.18723,-1.30493 -8.54219,0.51469 -3.45303,1.44276 -3.8644,1.44276 -4.67182,0 C 331.29904,180.71193 330.04954,180 329.00933,180 c -1.04021,0 -2.21667,-0.52647 -2.61436,-1.16994 -0.48553,-0.7856 -0.17885,-0.9611 0.93354,-0.53424 0.91114,0.34964 2.19903,0.055 2.86199,-0.65467 0.98342,-1.05275 1.71861,-1.03434 3.99241,0.1 1.73277,0.86442 5.15691,1.28142 9.05206,1.10238 3.44576,-0.15838 6.82753,0.0636 7.51503,0.49328 0.71013,0.44383 1.25,0.31563 1.25,-0.29683 0,-0.61791 0.96038,-0.83809 2.25,-0.51586 1.2375,0.30922 4.05,0.72214 6.25,0.9176 2.2,0.19547 4.3375,0.40105 4.75,0.45685 1.97056,0.26656 0.44254,2.10145 -1.75,2.10145 -1.83333,0 -2.5,0.53333 -2.5,2 0,1.1 0.45,2 1,2 0.55,0 1,0.48908 1,1.08685 0,0.72771 -2.26097,0.91339 -6.84241,0.56192 -4.68958,-0.35976 -7.65647,-0.10258 -9.42976,0.81741 -2.21465,1.14897 -2.66948,1.12827 -3.15758,-0.14372 z m 80.31761,-5.76793 c -0.85598,-0.85598 -13.90831,-2.5873 -27.09489,-3.594 C 389.48184,178.40238 380.35,177.30158 376.5,176.51431 l -7,-1.4314 7.90775,0.59081 c 7.04403,0.52629 7.83933,0.41254 7.28138,-1.04145 -0.77226,-2.01248 -0.47079,-2.01235 14.31087,0.006 14.02325,1.91482 25.88419,2.71626 24.4138,1.64963 -1.6185,-1.17407 -3.52544,-7.13144 -4.09338,-12.78793 -0.27612,-2.75 -1.36117,-7.5733 -2.41123,-10.71845 C 414.61503,145.91001 414.33439,138 416.38478,138 c 0.92444,0 1.60774,1.78459 2.05551,5.36838 0.3689,2.95261 1.50178,6.91893 2.51749,8.81404 2.4203,4.51576 5.67299,15.90874 6.50727,22.79258 0.36494,3.01125 1.1397,6.04875 1.72169,6.75 0.81699,0.98442 0.38452,1.275 -1.89763,1.275 -1.62568,0 -3.15624,-0.20046 -3.40125,-0.44547 z M 82.75,174.66821 C 82.3375,173.66073 82,169.91939 82,166.35414 c 0,-6.54729 3.058231,-15.48428 6.686963,-19.54113 0.829928,-0.92784 1.250489,-2.1052 0.93458,-2.61635 -0.315909,-0.51115 0.329016,-1.74693 1.433166,-2.74617 1.883174,-1.70425 2.112032,-1.71232 3.694091,-0.13026 1.582058,1.58206 1.542736,1.78727 -0.634724,3.31242 -2.819281,1.9747 -8.112196,12.81547 -8.113287,16.61735 -4.34e-4,1.5125 -0.429316,2.75 -0.953072,2.75 -0.523755,0 -1.086255,2.8125 -1.25,6.25 -0.189638,3.98108 -0.569987,5.58501 -1.047717,4.41821 z m -12.517632,-5.5912 c 0.147197,-1.88264 0.830132,-3.60764 1.517632,-3.83333 1.748055,-0.57385 1.569869,2.96493 -0.267632,5.31519 -1.432328,1.83202 -1.502589,1.74873 -1.25,-1.48186 z m 264.036662,-11.77 c 0.97297,-0.25354 2.32297,-0.23687 3,0.0371 0.67703,0.27393 -0.11903,0.48137 -1.76903,0.46099 -1.65,-0.0204 -2.20394,-0.2445 -1.23097,-0.49804 z M 241,155 l -3.5,-0.73672 4.19098,-0.13164 c 2.30504,-0.0724 4.4691,0.31836 4.80902,0.86836 0.68011,1.10044 -0.27202,1.10044 -5.5,0 z m 107.75,-40.66228 c 0.6875,-0.27741 1.8125,-0.27741 2.5,0 0.6875,0.27741 0.125,0.50439 -1.25,0.50439 -1.375,0 -1.9375,-0.22698 -1.25,-0.50439 z m -8.98834,-2.04498 c 1.24391,-0.23919 3.04391,-0.23011 4,0.0202 0.95609,0.25029 -0.0617,0.446 -2.26166,0.4349 -2.2,-0.0111 -2.98225,-0.21589 -1.73834,-0.45508 z M 171,106 c 0,-0.55 0.675,-1 1.5,-1 0.825,0 1.5,0.45 1.5,1 0,0.55 -0.675,1 -1.5,1 -0.825,0 -1.5,-0.45 -1.5,-1 z m 5,-1.31113 c 0,-1.9659 1.29733,-2.91183 10,-7.291387 4.125,-2.075878 7.85986,-4.364535 8.29969,-5.085904 1.14288,-1.87444 2.50253,-1.619608 2.3392,0.438421 -0.0861,1.08485 -2.98953,3.290871 -7.63889,5.804007 -4.125,2.229703 -7.5,4.704703 -7.5,5.500003 0,0.83407 -1.16376,1.57989 -2.75,1.76241 -1.87645,0.21591 -2.75,-0.14226 -2.75,-1.12755 z M 393.88743,92.126091 c -1.3518,-1.063327 -4.24198,-2.411497 -6.42263,-2.995934 -7.04183,-1.887291 -24.80325,-4.344847 -30.7148,-4.249848 -3.1625,0.05082 -5.75,-0.319077 -5.75,-0.821997 0,-1.13545 9.56871,-2.52422 17.25,-2.503606 3.1625,0.0085 5.74443,-0.225351 5.73762,-0.519638 -0.0193,-0.835914 -6.11537,-4.503807 -9.98762,-6.009404 -1.925,-0.748473 -3.95,-1.687892 -4.5,-2.087598 -0.8736,-0.634875 -10.0417,-5.667165 -17.5,-9.605595 -1.375,-0.726082 -3.5125,-1.322922 -4.75,-1.32631 -1.2375,-0.0034 -2.25,-0.515412 -2.25,-1.13783 0,-1.27004 0.45142,-1.218981 22,2.488323 17.94519,3.087363 22.08311,4.417561 23.67237,7.609857 0.67537,1.356581 1.10807,2.586385 0.96155,2.732898 -0.14651,0.146513 -1.81158,-0.192292 -3.70015,-0.752902 -4.36499,-1.295714 -17.33964,-3.837773 -17.72522,-3.472812 C 359.85433,69.808976 376.50244,78 377.53811,78 c 1.64179,0 17.85586,8.635775 20.07434,10.691799 2.39848,2.222835 3.35407,5.023574 1.27575,3.739103 -0.6115,-0.377923 -1.43381,-0.166113 -1.82738,0.470689 -0.50866,0.823031 -1.42626,0.598792 -3.17339,-0.7755 z M 157.0685,268.36046 c 2.98732,-0.90175 4.85612,-1.84355 4.15288,-2.09288 -1.66729,-0.59113 -11.06342,1.66783 -11.78348,2.8329 -0.82144,1.32912 1.53203,1.10088 7.6306,-0.74002 z m 15.04727,-5.1552 c -1.79861,-0.59954 -9.18091,1.88033 -8.56486,2.87711 0.26654,0.43127 2.60577,0.0614 5.19828,-0.82198 2.59252,-0.88336 4.10747,-1.80817 3.36658,-2.05513 z m 16.75093,-3.73566 c 6.33903,-1.49431 12.492,-4.16171 7.1333,-3.09239 -8.03691,1.60376 -18.12756,4.45266 -16,4.51729 1.375,0.0418 5.36501,-0.59944 8.8667,-1.4249 z m 78.50936,-22.08207 c 2.60278,-0.88686 4.50724,-1.83757 4.23211,-2.11269 -0.72071,-0.72071 -10.50875,1.75527 -11.17027,2.82564 -0.83157,1.3455 1.6433,1.09119 6.93816,-0.71295 z M 341,236 c 0,-0.55 -0.45,-1 -1,-1 -0.55,0 -1,0.45 -1,1 0,0.55 0.45,1 1,1 0.55,0 1,-0.45 1,-1 z m -57.45387,-2.36758 c 2.77537,-0.73911 6.03711,-1.87419 7.24832,-2.52241 1.2112,-0.64822 3.89044,-1.3823 5.95387,-1.63128 2.06342,-0.24899 7.12668,-1.14437 11.25168,-1.98973 4.125,-0.84536 9.49739,-1.78356 11.93863,-2.08488 2.44125,-0.30132 5.68141,-1.19051 7.20034,-1.97599 1.51894,-0.78547 3.57156,-1.44244 4.56137,-1.45993 1.72436,-0.0305 1.72359,-0.0895 -0.0183,-1.40997 -1.56376,-1.18543 -2.7525,-1.09615 -8.5,0.63836 -3.6751,1.1091 -10.057,2.81764 -14.182,3.79676 -16.38702,3.88969 -32,8.35928 -32,9.16078 0,1.11299 0.58198,1.06661 6.54613,-0.52171 z M 75,187 c 0,-0.55 -0.45,-1 -1,-1 -0.55,0 -1,0.45 -1,1 0,0.55 0.45,1 1,1 0.55,0 1,-0.45 1,-1 z m 5,-4 c 2.968069,-2.57419 1.386901,-2.57419 -2.5,0 -1.872385,1.24003 -2.399737,1.9893 -1.40301,1.99341 C 76.975335,184.99703 78.731689,184.1 80,183 Z M 455.89091,152.57487 C 454.70608,149.29828 452,147.55321 452,150.06574 c 0,2.49257 3.74817,7.51943 4.81284,6.45475 0.20392,-0.20391 -0.21095,-1.97945 -0.92193,-3.94562 z m -10.11184,-27.41716 c 1.30766,-0.82982 1.36416,-6.95116 0.0715,-7.75005 -1.09606,-0.6774 -2.23686,1.72415 -2.53306,5.33248 -0.27446,3.34354 0.22669,3.83574 2.46153,2.41757 z M 248.29621,627.5 c 2.52109,-1.925 4.90555,-3.5 5.29879,-3.5 1.28731,0 -3.02628,4.17166 -5.79298,5.60238 -4.5084,2.33138 -4.3325,1.58307 0.49419,-2.10238 z M 288,604.35183 c 3.92564,-1.76081 13.23658,-4.44858 13.7236,-3.96157 0.38941,0.38941 -14.87558,5.62505 -16.2416,5.5706 -0.5401,-0.0215 0.593,-0.74559 2.518,-1.60903 z M 471.70686,563.0216 C 466.7394,553.90027 465.73465,553 460.52219,553 c -3.98034,0 -4.29312,0.18406 -3.82364,2.25 0.48952,2.15415 0.41099,2.13777 -1.84362,-0.38461 -1.29521,-1.44904 -4.71743,-3.45044 -7.60493,-4.44755 -2.8875,-0.99711 -5.25,-2.12101 -5.25,-2.49755 0,-0.37654 1.6875,-0.0824 3.75,0.65366 6.00204,2.14195 8.93046,1.62464 6.36239,-1.12395 -0.48818,-0.5225 -1.1935,-2.075 -1.56737,-3.45 -0.40207,-1.47869 0.40327,-0.66164 1.97135,2 3.29112,5.58632 2.50967,4.99384 7.35736,5.57816 4.62652,0.55765 4.95767,-0.0697 2.52244,-4.77894 -2.05958,-3.9828 -5.64672,-14.88201 -5.08336,-15.44536 0.23716,-0.23717 1.84648,3.07977 3.57627,7.37097 4.03328,10.00566 6.81061,14.5788 8.29626,13.66062 0.77614,-0.47968 0.9388,-0.15133 0.49629,1.00182 -0.41552,1.08283 0.81241,4.31063 3.33007,8.75357 4.25082,7.5015 4.39983,7.86283 3.2383,7.85247 -0.4125,-0.004 -2.45691,-3.14095 -4.54314,-6.97171 z M 458,561.94098 c 0,-1.13246 0.45,-1.7809 1,-1.44098 0.55,0.33992 1,1.26648 1,2.05902 0,0.79254 -0.45,1.44098 -1,1.44098 -0.55,0 -1,-0.92656 -1,-2.05902 z m 15.25,-15.65926 c -1.70166,-0.6104 -1.70525,-8.60014 -0.004,-8.03292 1.28981,0.42993 2.91112,7.56622 1.85184,8.15103 -0.32902,0.18166 -1.16073,0.1285 -1.84823,-0.11811 z M 357.35516,536.5208 c 5.41746,-4.94876 11.13098,-7.43466 12.9369,-5.62874 0.81059,0.81059 0.71184,1.10794 -0.36792,1.10794 -0.81173,0 -4.72983,2.025 -8.7069,4.5 -3.97706,2.475 -7.56543,4.49008 -7.97413,4.47796 -0.40871,-0.0121 1.44171,-2.01784 4.11205,-4.45716 z m 123.87385,3.2292 c -1.83787,-2.26143 -5.33584,-8.9765 -4.90198,-9.41036 0.23377,-0.23377 1.36564,1.16918 2.51528,3.11766 1.14963,1.94849 2.78042,3.5427 3.62396,3.5427 0.86706,0 1.53373,0.86934 1.53373,2 0,2.26544 -1.26182,2.60697 -2.77099,0.75 z M 482,534 c 0,-0.55 0.42344,-1 0.94098,-1 0.51754,0 1.2191,0.45 1.55902,1 0.33992,0.55 -0.0835,1 -0.94098,1 C 482.70156,535 482,534.55 482,534 Z m 9.60478,-3.58753 c -0.88163,-2.2975 -0.7394,-6.21124 0.2479,-6.82142 0.46897,-0.28984 1.70647,0.16187 2.75,1.0038 1.35315,1.09174 1.5388,1.68008 0.64732,2.0513 -0.6875,0.28629 -1.25,1.35646 -1.25,2.37817 0,2.44819 -1.62668,3.39093 -2.39522,1.38815 z m -37.62953,-3.97757 c -0.53639,-1.4108 -0.96524,-3.3233 -0.95301,-4.25 0.0173,-1.31205 0.44245,-1.13804 1.92118,0.78634 1.88689,2.45556 2.37232,6.02876 0.81902,6.02876 -0.44657,0 -1.2508,-1.15429 -1.78719,-2.5651 z m 46.1037,-4.60157 c -0.0434,-0.91666 -0.41645,-1.81666 -0.82895,-2 -0.4125,-0.18333 -1.77847,-2.58333 -3.0355,-5.33333 -2.02083,-4.421 -2.05664,-4.71082 -0.30922,-2.50279 l 1.97627,2.49722 0.82253,-2.22352 0.82253,-2.22351 2.50772,2.2263 c 1.37924,1.22447 2.07076,1.8888 1.53669,1.4763 -1.63602,-1.26364 -2.59783,-0.84967 -3.48508,1.5 -0.49088,1.29999 -0.44989,3.0123 0.0971,4.05544 0.52068,0.99299 0.72803,2.34299 0.46078,3 -0.27635,0.6794 -0.51995,0.4758 -0.56485,-0.47211 z M 472,520 c 0,-1.86667 0.26667,-2.13333 1.2,-1.2 0.93333,0.93333 0.93333,1.46667 0,2.4 -0.93333,0.93333 -1.2,0.66667 -1.2,-1.2 z m 51,-6.5 c 0.68469,-0.825 1.67193,-1.5 2.19387,-1.5 0.52194,0 0.27399,0.675 -0.55101,1.5 -0.825,0.825 -1.81225,1.5 -2.19388,1.5 -0.38163,0 -0.13367,-0.675 0.55102,-1.5 z m -9,-4.5 c 0,-0.55 0.47656,-1 1.05902,-1 0.58246,0 0.7809,0.45 0.44098,1 -0.33992,0.55 -0.81648,1 -1.05902,1 C 514.19844,510 514,509.55 514,509 Z m -0.25,-4.0801 C 511.22636,503.45001 511.5988,502 514.5,502 c 1.83333,0 2.5,0.53333 2.5,2 0,2.22861 -0.67504,2.41968 -3.25,0.9199 z M 491,503.5 c -1.01957,-1.22851 -0.95124,-1.5 0.37756,-1.5 0.89234,0 1.62244,0.675 1.62244,1.5 0,0.825 -0.1699,1.5 -0.37756,1.5 -0.20765,0 -0.93775,-0.675 -1.62244,-1.5 z m 9.09968,-2.69098 C 500.04486,498.77898 500.45,496.83992 501,496.5 c 1.15673,-0.7149 1.15673,1.88811 0,5.5 -0.71916,2.24559 -0.81078,2.12439 -0.90032,-1.19098 z M 527,497.5 c 0,-1.375 0.4125,-2.5 0.91667,-2.5 1.1713,0 1.9255,2.12805 1.32903,3.75 C 528.44972,500.9145 527,500.10756 527,497.5 Z m -15.30468,-13.5571 c -0.3422,-1.30858 -0.11174,-1.91521 0.63337,-1.66714 1.43833,0.47887 2.18886,3.72424 0.86127,3.72424 -0.52619,0 -1.19877,-0.9257 -1.49464,-2.0571 z M 495.8125,461.31689 c 0.72187,-0.28887 1.58438,-0.25335 1.91667,0.0789 0.33229,0.33229 -0.25834,0.56864 -1.3125,0.52522 -1.16495,-0.048 -1.4019,-0.28494 -0.60417,-0.60416 z m 6.709,-1.78612 c 6.74899,-2.13384 10.7852,-2.83603 10.1206,-1.7607 -0.73247,1.18517 -8.61,3.26926 -11.83492,3.13106 -1.65193,-0.0708 -1.16505,-0.45998 1.71432,-1.37036 z m 34.291,-6.21388 c 0.72187,-0.28887 1.58438,-0.25335 1.91667,0.0789 0.33229,0.33229 -0.25834,0.56864 -1.3125,0.52522 -1.16495,-0.048 -1.4019,-0.28494 -0.60417,-0.60416 z M 627,368.78297 c -3.025,-1.16206 -4.9787,-2.28738 -4.34155,-2.50072 0.63715,-0.21334 3.78715,0.7424 7,2.12387 7.0785,3.04361 5.03692,3.33302 -2.65845,0.37685 z m 5,-22.00442 c -2.475,-0.5397 -10.35,-2.53845 -17.5,-4.44167 -7.89165,-2.10064 -17.51892,-3.85933 -24.5,-4.4756 -14.63226,-1.29171 -16,-1.58067 -16,-3.38033 0,-0.81452 0.1125,-1.47732 0.25,-1.47288 3.43208,0.11078 23.26099,3.23571 25.19307,3.97029 1.47792,0.5619 3.74685,1.02164 5.04206,1.02164 1.29521,0 7.90341,1.59806 14.6849,3.55124 6.78148,1.95318 14.24247,3.81434 16.57997,4.13592 2.3375,0.32158 4.25,0.97352 4.25,1.44876 0,1.03923 -2.00632,0.94961 -8,-0.35737 z m -2.24023,-10.38869 c -7.75637,-1.66524 -13.64396,-3.81731 -7.75977,-2.8364 1.925,0.3209 6.7625,1.0918 10.75,1.7131 3.9875,0.6213 7.25,1.4905 7.25,1.93154 0,1.08331 -2.261,0.90486 -10.24023,-0.80824 z M 546.8125,303.31689 c 0.72187,-0.28887 1.58438,-0.25335 1.91667,0.0789 0.33229,0.33229 -0.25834,0.56864 -1.3125,0.52522 -1.16495,-0.048 -1.4019,-0.28494 -0.60417,-0.60416 z M 563,301.04569 c 0.825,-0.55829 2.3625,-1.02196 3.41667,-1.03038 2.55844,-0.0204 1.76026,0.55192 -1.91667,1.37439 -2.19092,0.49007 -2.59546,0.3973 -1.5,-0.34401 z m 7.61794,-0.97675 c 1.16487,-0.49873 4.31487,-1.17519 7,-1.50324 3.17599,-0.38802 4.18315,-0.29005 2.88206,0.28035 -1.1,0.48225 -4.25,1.15871 -7,1.50324 -3.37986,0.42345 -4.31373,0.33261 -2.88206,-0.28035 z M 588.75,243.31067 c -0.9625,-0.25152 -1.75,-0.90465 -1.75,-1.45138 0,-0.5531 0.92666,-0.69996 2.08896,-0.33105 1.14893,0.36465 4.18643,1.01705 6.75,1.44976 l 4.66104,0.78676 -5,0.002 c -2.75,8.9e-4 -5.7875,-0.20418 -6.75,-0.45571 z M 492.68038,227.60946 C 492.34069,226.72426 491.37365,226 490.53138,226 c -0.84226,0 -1.52915,-0.7875 -1.52643,-1.75 0.003,-0.9625 -0.7575,-3.87728 -1.68938,-6.47729 -0.93188,-2.60001 -1.41948,-5.00213 -1.08356,-5.33806 0.33592,-0.33592 2.03418,0.44136 3.77389,1.72729 l 3.16313,2.33806 52.16548,0.0437 c 43.72201,0.0366 52.59857,0.27943 54.84114,1.5 2.39318,1.30254 -0.93235,1.48264 -31.5,1.70595 -33.21273,0.24264 -42.97566,0.87892 -58.77543,3.83057 C 505.72034,224.36111 501.10784,225 499.65022,225 498.1926,225 497,225.47656 497,226.05902 c 0,0.58246 -0.42234,0.79799 -0.93854,0.47896 -0.5162,-0.31902 -1.34915,0.15368 -1.85101,1.05045 -0.83548,1.49291 -0.96458,1.49469 -1.53007,0.021 z M 525.5,228 c 1.1,-0.47269 4.025,-0.8462 6.5,-0.83003 3.69063,0.0241 4.05035,0.17339 2,0.83003 -3.5765,1.1454 -11.16548,1.1454 -8.5,0 z m 17.76375,-0.71758 c 1.52006,-0.22986 3.77006,-0.22371 5,0.0136 1.22994,0.23736 -0.0137,0.42542 -2.76375,0.41792 -2.75,-0.008 -3.75631,-0.20172 -2.23625,-0.43157 z M 603,226.86692 c 3.025,-0.49252 8.65,-1.55133 12.5,-2.35291 9.40912,-1.95902 24.5,-3.04143 24.5,-1.75729 0,1.2575 -4.85009,2.24328 -11.03703,2.24328 -2.63287,0 -8.31412,0.67492 -12.625,1.49983 -4.31088,0.8249 -10.31297,1.44645 -13.33797,1.3812 l -5.5,-0.11862 z m 30,-7.92594 c 0,-0.58246 0.45,-0.7809 1,-0.44098 0.55,0.33992 1,0.81648 1,1.05902 0,0.24254 -0.45,0.44098 -1,0.44098 -0.55,0 -1,-0.47656 -1,-1.05902 z m -63.46432,-7.88324 c -0.75776,-1.2261 11.43054,-8.31786 22.91846,-13.33511 11.10183,-4.84862 45.76402,-18.71398 46.79586,-18.71899 0.4125,-0.002 0.75,0.5874 0.75,1.30978 0,1.33081 -4.27329,3.15393 -25,10.66577 -13.8088,5.00463 -31.6295,13.21655 -38.48665,17.73495 -5.38094,3.54567 -6.08798,3.78314 -6.97767,2.3436 z M 626,211.57037 c 0,-0.275 0.9,-0.98167 2,-1.57037 1.1,-0.5887 2,-0.84537 2,-0.57037 0,0.275 -0.9,0.98167 -2,1.57037 -1.1,0.5887 -2,0.84537 -2,0.57037 z m 5,-3.09793 C 631,208.00433 638.57468,204 639.46016,204 c 0.29691,0 0.53984,0.35294 0.53984,0.7843 0,0.43137 -2.025,1.53482 -4.5,2.45212 -2.475,0.9173 -4.5,1.47351 -4.5,1.23602 z m -33,-1.91574 c 0,-1.77136 3.80358,-4.5567 6.22251,-4.5567 2.75969,0 2.09759,1.62477 -1.22251,3 -1.65,0.68345 -3,1.63805 -3,2.12132 0,0.48327 -0.45,0.87868 -1,0.87868 -0.55,0 -1,-0.64948 -1,-1.4433 z M 506.5,197 c 1.1,-0.47269 2.675,-0.85943 3.5,-0.85943 0.94548,0 0.76064,0.31771 -0.5,0.85943 -1.1,0.47269 -2.675,0.85943 -3.5,0.85943 -0.94548,0 -0.76064,-0.31771 0.5,-0.85943 z M 630,173.10039 c 5.01025,-3.30551 10,-4.92997 10,-3.25559 0,1.16435 -6.75685,4.40806 -11.5,5.52072 -2.68805,0.63057 -2.53208,0.39504 1.5,-2.26513 z M 599,147 c 0,-0.55 0.17529,-1 0.38953,-1 0.21424,0 3.92674,-0.65881 8.25,-1.46403 4.32326,-0.80521 11.46047,-1.90518 15.86047,-2.44438 4.4,-0.53919 9.9125,-1.2879 12.25,-1.66378 3.80934,-0.61256 4.25,-0.47637 4.25,1.31354 0,2.41575 -2.59566,2.9463 -15.58636,3.18581 -4.9975,0.0921 -11.5225,0.81588 -14.5,1.60832 C 603.58416,148.22 599,148.41512 599,147 Z m 10.5,-23.54264 c -34.78736,-7.85256 -44.67842,-9.52405 -85.5,-14.44863 -13.475,-1.62557 -33.02542,-3.43047 -43.44537,-4.01087 -10.41996,-0.5804 -19.09727,-1.20716 -19.28291,-1.39281 -0.97323,-0.97323 10.74805,-1.9018 21.72828,-1.72132 17.55836,0.2886 54.10932,4.40364 89.5,10.07623 25.18996,4.03758 67.5,14.84236 67.5,17.23758 0,1.15229 0.2051,1.19089 -30.5,-5.74018 z m -127.93524,-8.35258 c -0.3043,-0.49236 0.15595,-1.16736 1.02277,-1.5 3.67255,-1.40929 23.41247,-0.11549 23.41247,1.53451 0,1.14669 -23.72593,1.11318 -24.43524,-0.0345 z M 132.56429,89.706872 c 0.37553,-0.986221 0.93469,-1.541221 1.24258,-1.233333 0.30789,0.307887 6.4e-4,1.114794 -0.68278,1.793128 -0.98762,0.980267 -1.10248,0.865403 -0.5598,-0.559795 z m 373.02992,0.424813 C 503.99603,89.784258 502.57701,88.825 502.44083,88 c -0.13617,-0.825 -0.53655,-2.215404 -0.88972,-3.089786 -0.74887,-1.854048 1.32189,-3.828653 5.81506,-5.54506 10.5303,-4.022611 16.47231,-6.817476 16.02681,-7.538319 C 523.11192,71.372076 524.10244,71 525.59414,71 c 1.4917,0 5.68075,-1.4099 9.30902,-3.13311 3.62826,-1.723211 10.19684,-4.369955 14.59684,-5.881654 9.6529,-3.316427 33.75068,-13.052152 39.24685,-15.85609 7.44295,-3.797106 34.13297,-12.302064 36.37395,-11.590805 1.52969,0.485506 1.91828,0.333902 1.37932,-0.53814 -0.55769,-0.902369 0.0522,-1.037798 2.3756,-0.527497 2.38523,0.523883 3.27227,0.305205 3.74353,-0.922869 0.38524,-1.003916 1.29384,-1.394805 2.41502,-1.038959 0.98858,0.313763 2.08684,0.102174 2.44059,-0.470199 C 638.42991,29.495371 640,29.78097 640,31.5 c 0,0.825 -0.56946,1.5 -1.26547,1.5 -0.696,0 -3.28216,1.07867 -5.74701,2.397044 -2.96108,1.583788 -5.50039,2.236108 -7.48454,1.922689 -3.90745,-0.617226 -19.84407,5.349013 -19.14614,7.167794 0.85226,2.220959 -12.81878,7.399893 -13.71665,5.19621 C 592.37493,49.032681 592.11548,49.4 592.06363,50.5 c -0.0741,1.572771 -0.28521,1.698338 -0.98819,0.587821 -0.75403,-1.191159 -1.1594,-1.146719 -2.59006,0.283944 -1.06617,1.066171 -2.44631,1.458022 -3.71598,1.055045 -1.34352,-0.426418 -1.79074,-0.270362 -1.33561,0.466056 0.6699,1.083918 -0.59024,1.528529 -3.28414,1.158735 -0.7427,-0.10195 -1.06868,0.2704 -0.7244,0.827445 0.34427,0.557046 -0.84807,1.451469 -2.64965,1.987609 -4.79967,1.428353 -12.4477,4.461583 -19.2756,7.644752 -23.34186,10.881983 -29.0844,13.777 -32.32898,16.298175 -4.12942,3.208741 -15.45394,10.253611 -16.19074,10.072103 -0.26415,-0.06507 -1.78788,-0.402573 -3.38607,-0.75 z m 92.13496,-42.735852 c -0.33229,-0.332291 -1.1948,-0.367818 -1.91667,-0.07895 -0.79773,0.319226 -0.56078,0.556183 0.60417,0.604167 1.05416,0.04342 1.64479,-0.192928 1.3125,-0.52522 z m 4.91461,-2.18994 c -1.02092,-0.216399 -2.29254,0.04287 -2.82582,0.576149 -0.62614,0.626137 0.0314,0.765512 1.85622,0.393454 2.09296,-0.426728 2.34442,-0.67819 0.9696,-0.969603 z M 630.5,75.925876 C 626.65,74.85129 621.025,73.485114 618,72.889928 610.64906,71.443588 596.99206,67.090577 597.0316,66.206494 597.07144,65.315918 601.71409,60 602.45203,60 602.75342,60 603,60.622211 603,61.382692 c 0,0.917153 3.11438,2.130683 9.25,3.604296 5.0875,1.221882 13.4125,3.545799 18.5,5.16426 8.35306,2.657316 9.25,3.180518 9.25,5.395703 0,2.900642 -0.40707,2.916879 -9.5,0.378925 z M 408.61184,55.036017 c 1.76019,-1.835951 23.04288,-6.116021 32.38816,-6.51344 4.675,-0.19881 7.15,-0.164456 5.5,0.07634 -12.28387,1.792696 -21.8334,3.611174 -26.04823,4.960259 -6.86306,2.196729 -13.29986,2.999616 -11.83993,1.476837 z m -20.2375,-1.50289 c -0.72723,-1.895117 3.63013,-5.676711 10.37566,-9.004655 2.8875,-1.424566 5.25,-3.026248 5.25,-3.559295 0,-0.533048 0.3375,-0.899677 0.75,-0.814733 0.4125,0.08494 2.34822,-0.55879 4.30159,-1.430521 1.95338,-0.87173 10.05338,-2.519862 18,-3.662514 7.94663,-1.142652 17.82341,-2.719368 21.94841,-3.503812 4.125,-0.784444 12.675,-2.348409 19,-3.475477 6.325,-1.127068 12.9625,-2.475206 14.75,-2.995862 2.52656,-0.735925 3.25,-0.646838 3.25,0.400214 0,0.740774 0.5625,1.547754 1.25,1.79329 0.6875,0.245536 1.025,0.662578 0.75,0.926761 -1.00845,0.968784 -51.52284,8.999176 -58.27366,9.263903 -6.10791,0.239515 -8.22301,0.904985 -17.14285,5.393607 -5.59639,2.81621 -12.79663,6.698888 -16.00053,8.628174 -6.51304,3.92195 -7.40199,4.14297 -8.20862,2.04092 z m -15.84928,-0.445404 c -1.59768,-0.624289 0.2171,-1.91317 9.5,-6.74704 6.31121,-3.286433 15.57609,-8.28992 20.5886,-11.11886 5.01251,-2.82894 11.53751,-6.093327 14.5,-7.254193 6.61713,-2.592959 8.82603,-4.48196 4.06745,-3.478398 -2.83814,0.598551 -3.39822,0.396535 -3.86663,-1.394647 C 416.95668,21.726341 415.96072,21 414.44239,21 c -3.16203,0 -4.07256,-1.816973 -1.23329,-2.461033 13.54384,-3.072278 27.3203,-5.872242 36.7909,-7.47748 6.325,-1.0720686 14.03552,-2.6113128 17.1345,-3.4205428 5.11057,-1.3345153 11.79245,-2.1073101 14.3655,-1.661447 0.55,0.095305 -2.6,0.9923475 -7,1.9934279 -4.4,1.0010804 -9.51303,2.2997859 -11.3623,2.8860109 -1.84926,0.586226 -6.57426,1.524958 -10.5,2.08607 C 441.72285,14.505086 438,15.785375 438,17.97891 c 0,2.489954 -3.09892,4.564217 -17.69637,11.845054 -6.70801,3.345783 -14.13301,7.32705 -16.5,8.847261 -3.79887,2.439834 -10.67444,5.95597 -23.05363,11.789515 -2.0625,0.971929 -3.75,2.165869 -3.75,2.653201 0,1.051289 -1.74354,1.041073 -4.47494,-0.02622 z M 168.03774,50.25 c 0.0793,-1.574953 11.66023,-13.047323 15.80674,-15.658514 6.15673,-3.877096 6.08116,-2.702593 -0.12127,1.884531 -2.87276,2.12461 -5.63682,4.574165 -6.14235,5.443455 C 176.53188,43.723265 169.25396,51 168.49886,51 c -0.27438,0 -0.48187,-0.3375 -0.46112,-0.75 z m 176.98665,-4 c 0.0245,-1.757713 3.69209,-14.714389 6.01516,-21.25 4.81312,-13.541011 6.50715,-14.411602 2.028,-1.042223 C 351.3804,28.993586 350,33.930986 350,34.929778 c 0,0.998792 -0.92335,3.903376 -2.05189,6.45463 -1.12854,2.551255 -1.77699,5.083458 -1.44099,5.627119 0.336,0.54366 0.13436,0.988473 -0.4481,0.988473 -0.58246,0 -1.04805,-0.7875 -1.03463,-1.75 z m -5.85786,-3.096257 C 335.76395,40.012498 335,38.648135 335,35.712627 c 0,-1.977026 0.45,-3.872708 1,-4.212627 0.60372,-0.373121 1,0.98513 1,3.427525 0,3.396597 0.60101,4.596341 3.74661,7.479072 2.06064,1.888433 3.48558,3.694548 3.16654,4.013591 -0.31905,0.319043 -2.45502,-1.150857 -4.74662,-3.266445 z m 272.2746,-0.685546 c 1.06762,-0.807509 2.64262,-1.452251 3.5,-1.432762 0.99919,0.02271 0.6613,0.548533 -0.94113,1.464565 -3.27204,1.870466 -5.04477,1.848433 -2.55887,-0.0318 z M 254,33.100967 c 0,-0.494468 1.6875,-1.7837 3.75,-2.86496 2.0625,-1.08126 5.325,-2.838062 7.25,-3.904006 4.77186,-2.642356 13.00205,-5.663284 13.65369,-5.011648 0.64721,0.647213 -4.40341,3.32724 -9.97469,5.292901 -2.25149,0.794372 -6.17722,2.781361 -8.72386,4.41553 C 255.04186,34.181632 254,34.544162 254,33.100967 Z M 188.96677,27.316414 C 192.32393,16.388772 194.4544,10.71629 194.71929,12 c 0.48017,2.326983 -4.10612,17.295609 -5.43498,17.738564 -0.85456,0.284854 -0.94268,-0.387302 -0.31754,-2.42215 z M 440.41922,27.130699 C 442.67563,23.47975 464.49238,16.390021 478,14.918177 c 5.225,-0.569337 10.96356,-1.189152 12.75235,-1.377366 1.7888,-0.188214 3.50338,0.06395 3.81018,0.560363 0.94051,1.521773 -3.60718,2.5798 -13.8931,3.232256 -8.05871,0.51118 -12.20424,1.444827 -23,5.180005 -16.26078,5.625996 -18.19333,6.143271 -17.25021,4.617264 z M 277.47584,11.923555 c 0.68862,-1.79452 6.39987,-5.3811775 7.23652,-4.5445269 0.31564,0.3156421 -0.27801,0.8765426 -1.31923,1.2464457 -1.04122,0.369903 -2.93061,1.6074082 -4.19865,2.7500122 -1.56374,1.409056 -2.1167,1.585393 -1.71864,0.548069 z"
       id="path4489"
       inkscape:connector-curvature="0" />
  </g>
</svg>
